<?xml version="1.0" encoding="UTF-8" standalone="no"?>
<svg
   width="1440"
   height="1014"
   viewBox="0 0 1440 1014"
   fill="none"
   version="1.1"
   id="svg4"
   sodipodi:docname="Fondo2.svg"
   xml:space="preserve"
   inkscape:version="1.2.2 (732a01da63, 2022-12-09)"
   xmlns:inkscape="http://www.inkscape.org/namespaces/inkscape"
   xmlns:sodipodi="http://sodipodi.sourceforge.net/DTD/sodipodi-0.dtd"
   xmlns="http://www.w3.org/2000/svg"
   xmlns:svg="http://www.w3.org/2000/svg"><defs
     id="defs8" /><sodipodi:namedview
     id="namedview6"
     pagecolor="#ffffff"
     bordercolor="#000000"
     borderopacity="0.25"
     inkscape:showpageshadow="2"
     inkscape:pageopacity="0.0"
     inkscape:pagecheckerboard="0"
     inkscape:deskcolor="#d1d1d1"
     showgrid="false"
     inkscape:zoom="0.53416548"
     inkscape:cx="780.65696"
     inkscape:cy="556.00748"
     inkscape:window-width="1882"
     inkscape:window-height="964"
     inkscape:window-x="-11"
     inkscape:window-y="-11"
     inkscape:window-maximized="1"
     inkscape:current-layer="svg4" /><g
     style="fill:none"
     id="g319"
     transform="translate(-61.715683,-22.41732)"><rect
       x="-47.779099"
       y="-8.1440401"
       width="955"
       height="1046"
       fill="#f7c6cc"
       id="rect310" /></g><g
     style="fill:none"
     id="g150"
     transform="translate(-15.743543,41.277918)"><path
       fill-rule="evenodd"
       clip-rule="evenodd"
       d="m 1435.25,1235.64 25.49,-117.62 c 25.48,-117.62 76.45,-352.856 56.81,-440.085 -19.63,-87.228 -109.86,-26.445 -159.74,-50.24 -49.89,-23.796 -59.44,-132.169 -99.24,-177.108 -39.8,-44.94 -109.86,-26.446 -220.26,76.626 C 927.91,630.285 777.168,817.935 727.281,794.139 677.393,770.344 728.36,535.104 728.899,405.586 729.439,276.069 679.551,252.274 599.408,291.912 519.264,331.55 408.864,434.622 358.976,410.827 309.089,387.032 319.714,236.37 289.997,170.286 260.28,104.202 190.222,122.695 99.9928,183.478 9.76353,244.261 -100.636,347.333 -160.609,344.683 c -59.973,-2.651 -69.519,-111.024 -68.98,-240.542 0.54,-129.5176 11.165,-280.18 21.79,-430.842 10.625,-150.662 21.25,-301.324 -58.894,-261.686 -80.144,39.638 -251.056,269.577 -321.115,288.071 -70.058,18.494 -39.262,-174.457 -79.064,-219.397 -39.802,-44.939 -150.203,58.133 -200.09,34.338 -49.888,-23.796 -39.263,-174.458 -99.236,-177.108 -59.972,-2.651 -190.542,142.71 -240.432,118.915 -49.89,-23.795 -19.09,-216.747 -3.69,-313.222 l 15.39,-96.476 121.03,-253.734 24.94,11.9 c 24.95,11.9 74.835,35.69 124.723,59.49 49.887,23.79 99.775,47.59 149.662,71.38 49.888,23.8 99.775,47.59 149.663,71.386 49.887,23.795 99.775,47.591 149.662,71.386 49.888,23.795 99.776,47.59 149.663,71.385 49.887,23.795 99.775,47.59 149.663,71.385 49.887,23.796 99.7747,47.591 149.6622,71.386 49.8874,23.795 99.7751,47.59 149.6628,71.385 49.887,23.795 99.775,47.59 149.662,71.386 49.888,23.795 99.775,47.59 149.663,71.385 49.888,23.795 99.775,47.59 149.663,71.385 49.887,23.796 99.775,47.591 149.662,71.386 49.888,23.795 99.775,47.59 149.663,71.385 49.887,23.795 99.775,47.591 149.666,71.386 49.88,23.795 99.77,47.59 149.66,71.385 49.89,23.795 99.77,47.5903 149.66,71.3854 49.89,23.7952 99.78,47.5903 149.66,71.38545 49.89,23.79515 99.78,47.59025 149.67,71.38535 49.88,23.7948 99.77,47.5908 149.66,71.3858 49.89,23.795 99.77,47.59 124.72,59.487 l 24.94,11.898 z"
       fill="#ffef98"
       id="path141" /></g><path
     fill-rule="evenodd"
     clip-rule="evenodd"
     d="m 448.548,2187.2 -98.334,-73.27 C 252.705,2038.84 56.0356,1892.29 56.5256,1833.41 c 0.4899,-58.89 196.4874,-26.48 349.6804,-15.78 153.194,10.71 261.932,3.34 196.977,-85.37 C 538.229,1643.55 297.93,1477.13 145.716,1348.65 -6.49746,1220.17 -72.278,1133.28 -6.34362,1104.22 c 65.93442,-29.06 261.93162,3.34 306.05062,-35.66 44.12,-39.01 -65.29,-145.786 44.274,-154.963 109.564,-9.177 436.45,82.875 458.755,33.931 22.305,-48.943 -261.624,-235.256 -304.764,-314.024 -43.139,-78.768 152.858,-46.366 240.607,-65.485 87.749,-19.118 65.598,-86.132 87.903,-135.075 22.305,-48.944 87.413,-76.191 175.158,-95.31 87.75,-19.119 196.49,-26.483 196.98,-85.368 0.49,-58.885 -108.92,-165.6648 -86.61,-214.6084 22.3,-48.9433 166.2456,-44.8488657 243.2556,-40.4021857 L 1437.0619,1.6428652 1832.54,190.888 1821.8,214.453 c -11.57,25.378 -33.05,72.509 -55.35,121.452 -22.3,48.944 -43.78,96.074 -66.09,145.017 -22.3,48.944 -43.78,96.075 -66.09,145.018 -22.3,48.943 -43.78,96.074 -66.08,145.017 -22.31,48.944 -43.79,96.074 -66.09,145.018 -22.31,48.943 -43.79,96.075 -66.09,145.015 -22.31,48.95 -43.78,96.08 -66.09,145.02 -22.3,48.94 -43.78,96.07 -66.09,145.02 -22.3,48.94 -43.78,96.07 -66.09,145.01 -22.3,48.95 -43.78,96.08 -66.08,145.02 -22.31,48.94 -43.79,96.08 -66.09,145.02 -22.31,48.94 -43.79,96.07 -66.09,145.02 -22.31,48.94 -43.784,96.07 -66.089,145.01 -22.304,48.95 -43.783,96.08 -66.088,145.02 -22.305,48.94 -43.783,96.08 -55.349,121.45 l -10.739,23.57 z"
     fill="#b1d3ec"
     id="path2"
     sodipodi:nodetypes="ccscccscscccccsccccccccccccccccccsccc" /></svg>
