<svg width="390" height="844" viewBox="0 0 390 844" fill="none" xmlns="http://www.w3.org/2000/svg">
<g clip-path="url(#clip0_40_81)">
<rect width="390" height="844" fill="#FFE9AF"/>
<path fill-rule="evenodd" clip-rule="evenodd" d="M173 844L205.319 828.851C237.638 815.867 299.968 787.733 295.351 759.6C290.734 731.467 219.17 703.333 205.319 675.2C191.468 647.067 237.638 618.933 251.489 590.8C263.032 562.667 246.872 534.533 258.415 506.4C272.266 478.267 318.436 450.133 313.819 422C309.202 393.867 256.106 365.733 219.17 337.6C182.234 309.467 166.074 281.333 182.234 253.2C200.702 225.067 253.798 196.933 281.5 168.8C309.202 140.667 309.202 112.533 309.202 84.4C309.202 56.2666 309.202 28.1333 309.202 12.9846V-3.88622e-05H390V12.9846C390 28.1333 390 56.2666 390 84.4C390 112.533 390 140.667 390 168.8C390 196.933 390 225.067 390 253.2C390 281.333 390 309.467 390 337.6C390 365.733 390 393.867 390 422C390 450.133 390 478.267 390 506.4C390 534.533 390 562.667 390 590.8C390 618.933 390 647.067 390 675.2C390 703.333 390 731.467 390 759.6C390 787.733 390 815.867 390 828.851V844H173Z" fill="#F7C6CC" stroke="white" stroke-width="7"/>
<path fill-rule="evenodd" clip-rule="evenodd" d="M203 0L170.681 15.1487C138.362 28.1333 76.0319 56.2667 80.6489 84.4C85.266 112.533 156.83 140.667 170.681 168.8C184.532 196.933 138.362 225.067 124.511 253.2C112.968 281.333 129.128 309.467 117.585 337.6C103.734 365.733 57.5638 393.867 62.1808 422C66.7979 450.133 119.894 478.267 156.83 506.4C193.766 534.533 209.926 562.667 193.766 590.8C175.298 618.933 122.202 647.067 94.5 675.2C66.7979 703.333 66.7979 731.467 66.7979 759.6C66.7979 787.733 66.7979 815.867 66.7979 831.015V844H-14V831.015C-14 815.867 -14 787.733 -14 759.6C-14 731.467 -14 703.333 -14 675.2C-14 647.067 -14 618.933 -14 590.8C-14 562.667 -14 534.533 -14 506.4C-14 478.267 -14 450.133 -14 422C-14 393.867 -14 365.733 -14 337.6C-14 309.467 -14 281.333 -14 253.2C-14 225.067 -14 196.933 -14 168.8C-14 140.667 -14 112.533 -14 84.4C-14 56.2667 -14 28.1333 -14 15.1487V0L203 0Z" fill="#B1D3EC" stroke="white" stroke-width="7"/>
</g>
<rect x="3.5" y="3.5" width="383" height="837" stroke="#FBFBFB" stroke-width="7"/>
<defs>
<clipPath id="clip0_40_81">
<rect width="390" height="844" fill="white"/>
</clipPath>
</defs>
</svg>
