<svg width="390" height="987" viewBox="0 0 390 987" fill="none" xmlns="http://www.w3.org/2000/svg">
<g clip-path="url(#clip0_40_81)">
<rect width="390" height="987" fill="#FFE9AF"/>
<path fill-rule="evenodd" clip-rule="evenodd" d="M173 987L205.319 969.285C237.638 954.1 299.968 921.2 295.351 888.3C290.734 855.4 219.17 822.5 205.319 789.6C191.468 756.7 237.638 723.8 251.489 690.9C263.032 658 246.872 625.1 258.415 592.2C272.266 559.3 318.436 526.4 313.819 493.5C309.202 460.6 256.106 427.7 219.17 394.8C182.234 361.9 166.074 329 182.234 296.1C200.702 263.2 253.798 230.3 281.5 197.4C309.202 164.5 309.202 131.6 309.202 98.7C309.202 65.8 309.202 32.9 309.202 15.1846V1.30534e-05H390V15.1846C390 32.9 390 65.8 390 98.7C390 131.6 390 164.5 390 197.4C390 230.3 390 263.2 390 296.1C390 329 390 361.9 390 394.8C390 427.7 390 460.6 390 493.5C390 526.4 390 559.3 390 592.2C390 625.1 390 658 390 690.9C390 723.8 390 756.7 390 789.6C390 822.5 390 855.4 390 888.3C390 921.2 390 954.1 390 969.285V987H173Z" fill="#F7C6CC" stroke="white" stroke-width="7"/>
<path fill-rule="evenodd" clip-rule="evenodd" d="M203 0L170.681 17.7154C138.362 32.9 76.0319 65.8 80.6489 98.7C85.266 131.6 156.83 164.5 170.681 197.4C184.532 230.3 138.362 263.2 124.511 296.1C112.968 329 129.128 361.9 117.585 394.8C103.734 427.7 57.5638 460.6 62.1808 493.5C66.7979 526.4 119.894 559.3 156.83 592.2C193.766 625.1 209.926 658 193.766 690.9C175.298 723.8 122.202 756.7 94.5 789.6C66.7979 822.5 66.7979 855.4 66.7979 888.3C66.7979 921.2 66.7979 954.1 66.7979 971.815V987H-14V971.815C-14 954.1 -14 921.2 -14 888.3C-14 855.4 -14 822.5 -14 789.6C-14 756.7 -14 723.8 -14 690.9C-14 658 -14 625.1 -14 592.2C-14 559.3 -14 526.4 -14 493.5C-14 460.6 -14 427.7 -14 394.8C-14 361.9 -14 329 -14 296.1C-14 263.2 -14 230.3 -14 197.4C-14 164.5 -14 131.6 -14 98.7C-14 65.8 -14 32.9 -14 17.7154V0L203 0Z" fill="#B1D3EC" stroke="white" stroke-width="7"/>
</g>
<rect x="3.5" y="3.5" width="383" height="980" stroke="#FBFBFB" stroke-width="7"/>
<defs>
<clipPath id="clip0_40_81">
<rect width="390" height="987" fill="white"/>
</clipPath>
</defs>
</svg>
