<?xml version="1.0" encoding="UTF-8" standalone="no"?>
<svg
   width="1440"
   height="2152"
   viewBox="0 0 1440 2152"
   fill="none"
   version="1.1"
   id="svg280"
   sodipodi:docname="Fondo.svg"
   inkscape:version="1.2.2 (732a01da63, 2022-12-09)"
   xmlns:inkscape="http://www.inkscape.org/namespaces/inkscape"
   xmlns:sodipodi="http://sodipodi.sourceforge.net/DTD/sodipodi-0.dtd"
   xmlns="http://www.w3.org/2000/svg"
   xmlns:svg="http://www.w3.org/2000/svg">
  <defs
     id="defs284">
    <clipPath
       clipPathUnits="userSpaceOnUse"
       id="clipPath345">
      <rect
         style="fill:#000000"
         id="rect347"
         width="1463.6971"
         height="2191.3315"
         x="-1.4046997"
         y="-0.70234984" />
    </clipPath>
    <clipPath
       clipPathUnits="userSpaceOnUse"
       id="clipPath349">
      <rect
         style="fill:#000000"
         id="rect351"
         width="1463.6971"
         height="2191.3315"
         x="-1.4046997"
         y="-0.70234984" />
    </clipPath>
  </defs>
  <sodipodi:namedview
     id="namedview282"
     pagecolor="#ffffff"
     bordercolor="#000000"
     borderopacity="0.25"
     inkscape:showpageshadow="2"
     inkscape:pageopacity="0.0"
     inkscape:pagecheckerboard="0"
     inkscape:deskcolor="#d1d1d1"
     showgrid="false"
     inkscape:zoom="0.25169321"
     inkscape:cx="-556.23272"
     inkscape:cy="675.42544"
     inkscape:window-width="1882"
     inkscape:window-height="964"
     inkscape:window-x="-11"
     inkscape:window-y="-11"
     inkscape:window-maximized="1"
     inkscape:current-layer="svg280" />
  <path
     fill-rule="evenodd"
     clip-rule="evenodd"
     d="M-91.5972 -240.88L3.53975 -102.455C98.6767 35.9705 288.951 312.821 392.447 649.311C491.812 988.641 504.4 1387.61 723.599 1644.58C942.799 1901.55 1372.74 2013.68 1587.71 2069.75L1798.55 2128.65L550.618 2986.33L455.481 2847.91C360.344 2709.48 170.07 2432.63 -20.2034 2155.78C-210.477 1878.93 -400.751 1602.08 -591.025 1325.23C-781.299 1048.38 -971.573 771.533 -1066.71 633.107L-1161.85 494.682L-91.5972 -240.88Z"
     fill="#F7C6CC"
     id="path276"
     clip-path="url(#clipPath349)" />
  <path
     fill-rule="evenodd"
     clip-rule="evenodd"
     d="m 1444.6,1018.81 -41.63,-54.749 C 1361.34,909.316 1278.09,799.827 1232.09,662.008 1187.86,522.84 1180.89,355.342 1085.21,255.296 989.536,155.251 783.51555,28.65282 690.43755,13.03082 L 599.13455,-3.9399803 1154.78,-316 l 41.63,54.744 c 41.62,54.745 150.7051,136.42226 233.9651,245.911164 83.26,109.4892 -6.3195,304.399656 76.9405,413.887656 83.26,109.489 313.5244,161.36818 355.1444,216.11318 l 41.63,54.744 z"
     fill="#b1d3ec"
     id="path278"
     clip-path="url(#clipPath345)"
     sodipodi:nodetypes="ccccccccscccc" />
</svg>
