<svg width="1440" height="1024" viewBox="0 0 1440 1024" fill="none" xmlns="http://www.w3.org/2000/svg">
<path fill-rule="evenodd" clip-rule="evenodd" d="M1435.25 1235.64L1460.74 1118.02C1486.22 1000.4 1537.19 765.164 1517.55 677.935C1497.92 590.707 1407.69 651.49 1357.81 627.695C1307.92 603.899 1298.37 495.526 1258.57 450.587C1218.77 405.647 1148.71 424.141 1038.31 527.213C927.91 630.285 777.168 817.935 727.281 794.139C677.393 770.344 728.36 535.104 728.899 405.586C729.439 276.069 679.551 252.274 599.408 291.912C519.264 331.55 408.864 434.622 358.976 410.827C309.089 387.032 319.714 236.37 289.997 170.286C260.28 104.202 190.222 122.695 99.9928 183.478C9.76353 244.261 -100.636 347.333 -160.609 344.683C-220.582 342.032 -230.128 233.659 -229.589 104.141C-229.049 -25.3766 -218.424 -176.039 -207.799 -326.701C-197.174 -477.363 -186.549 -628.025 -266.693 -588.387C-346.837 -548.749 -517.749 -318.81 -587.808 -300.316C-657.866 -281.822 -627.07 -474.773 -666.872 -519.713C-706.674 -564.652 -817.075 -461.58 -866.962 -485.375C-916.85 -509.171 -906.225 -659.833 -966.198 -662.483C-1026.17 -665.134 -1156.74 -519.773 -1206.63 -543.568C-1256.52 -567.363 -1225.72 -760.315 -1210.32 -856.79L-1194.93 -953.266L-1073.9 -1207L-1048.96 -1195.1C-1024.01 -1183.2 -974.125 -1159.41 -924.237 -1135.61C-874.35 -1111.82 -824.462 -1088.02 -774.575 -1064.23C-724.687 -1040.43 -674.8 -1016.64 -624.912 -992.844C-575.025 -969.049 -525.137 -945.253 -475.25 -921.458C-425.362 -897.663 -375.474 -873.868 -325.587 -850.073C-275.7 -826.278 -225.812 -802.483 -175.924 -778.688C-126.037 -754.892 -76.1493 -731.097 -26.2618 -707.302C23.6256 -683.507 73.5133 -659.712 123.401 -635.917C173.288 -612.122 223.176 -588.327 273.063 -564.531C322.951 -540.736 372.838 -516.941 422.726 -493.146C472.614 -469.351 522.501 -445.556 572.389 -421.761C622.276 -397.965 672.164 -374.17 722.051 -350.375C771.939 -326.58 821.826 -302.785 871.714 -278.99C921.601 -255.195 971.489 -231.399 1021.38 -207.604C1071.26 -183.809 1121.15 -160.014 1171.04 -136.219C1220.93 -112.424 1270.81 -88.6287 1320.7 -64.8336C1370.59 -41.0384 1420.48 -17.2433 1470.36 6.55185C1520.25 30.347 1570.14 54.1421 1620.03 77.9372C1669.91 101.732 1719.8 125.528 1769.69 149.323C1819.58 173.118 1869.46 196.913 1894.41 208.81L1919.35 220.708L1435.25 1235.64Z" fill="#FFEF98"/>
</svg>
