<svg width="1440" height="1014" viewBox="0 0 1440 1014" fill="none" xmlns="http://www.w3.org/2000/svg">
<path fill-rule="evenodd" clip-rule="evenodd" d="M448.548 2187.2L350.214 2113.93C252.705 2038.84 56.0356 1892.29 56.5256 1833.41C57.0155 1774.52 253.013 1806.93 406.206 1817.63C559.4 1828.34 668.138 1820.97 603.183 1732.26C538.229 1643.55 297.93 1477.13 145.716 1348.65C-6.49746 1220.17 -72.278 1133.28 -6.34362 1104.22C59.5908 1075.16 255.588 1107.56 299.707 1068.56C343.827 1029.55 234.417 922.774 343.981 913.597C453.545 904.42 780.431 996.472 802.736 947.528C825.041 898.585 541.112 712.272 497.972 633.504C454.833 554.736 650.83 587.138 738.579 568.019C826.328 548.901 804.177 481.887 826.482 432.944C848.787 384 913.895 356.753 1001.64 337.634C1089.39 318.515 1198.13 311.151 1198.62 252.266C1199.11 193.381 1089.7 86.6012 1112.01 37.6576C1134.31 -11.2857 1286.68 1.23309 1363.69 5.67977L1439.87 11.9393L1832.54 190.888L1821.8 214.453C1810.23 239.831 1788.75 286.962 1766.45 335.905C1744.15 384.849 1722.67 431.979 1700.36 480.922C1678.06 529.866 1656.58 576.997 1634.27 625.94C1611.97 674.883 1590.49 722.014 1568.19 770.957C1545.88 819.901 1524.4 867.031 1502.1 915.975C1479.79 964.918 1458.31 1012.05 1436.01 1060.99C1413.7 1109.94 1392.23 1157.07 1369.92 1206.01C1347.62 1254.95 1326.14 1302.08 1303.83 1351.03C1281.53 1399.97 1260.05 1447.1 1237.74 1496.04C1215.44 1544.99 1193.96 1592.12 1171.66 1641.06C1149.35 1690 1127.87 1737.14 1105.57 1786.08C1083.26 1835.02 1061.78 1882.15 1039.48 1931.1C1017.17 1980.04 995.696 2027.17 973.391 2076.11C951.087 2125.06 929.608 2172.19 907.303 2221.13C884.998 2270.07 863.52 2317.21 851.954 2342.58L841.215 2366.15L448.548 2187.2Z" fill="#B1D3EC"/>
</svg>
