<svg width="50" height="54" viewBox="0 0 50 54" fill="none" xmlns="http://www.w3.org/2000/svg">
<g filter="url(#filter0_d_52_2)">
<path d="M23.4854 7.68124C23.2974 7.48234 23.1505 7.24837 23.0529 6.99269C22.9554 6.737 22.9092 6.46461 22.9169 6.19106C22.9247 5.91752 22.9862 5.64818 23.098 5.39841C23.2099 5.14865 23.3698 4.92336 23.5687 4.73541C23.7676 4.54745 24.0016 4.40051 24.2573 4.30298C24.5129 4.20545 24.7853 4.15923 25.0589 4.16697C25.3324 4.17471 25.6018 4.23625 25.8515 4.34808C26.1013 4.45991 26.3266 4.61984 26.5145 4.81874L44.2229 23.5687C44.5886 23.9555 44.7923 24.4677 44.7923 25C44.7923 25.5323 44.5886 26.0444 44.2229 26.4312L26.5145 45.1833C26.3278 45.3866 26.1026 45.5507 25.8519 45.6662C25.6012 45.7816 25.3301 45.8461 25.0543 45.8559C24.7785 45.8657 24.5034 45.8206 24.2452 45.7233C23.9869 45.6259 23.7506 45.4781 23.55 45.2887C23.3493 45.0992 23.1883 44.8717 23.0763 44.6194C22.9643 44.3672 22.9035 44.0952 22.8975 43.8193C22.8915 43.5434 22.9403 43.269 23.0413 43.0121C23.1422 42.7552 23.2931 42.521 23.4854 42.3229L39.8437 25L23.4854 7.68124Z" fill="white"/>
</g>
<defs>
<filter id="filter0_d_52_2" x="-4" y="0" width="58" height="58" filterUnits="userSpaceOnUse" color-interpolation-filters="sRGB">
<feFlood flood-opacity="0" result="BackgroundImageFix"/>
<feColorMatrix in="SourceAlpha" type="matrix" values="0 0 0 0 0 0 0 0 0 0 0 0 0 0 0 0 0 0 127 0" result="hardAlpha"/>
<feOffset dy="4"/>
<feGaussianBlur stdDeviation="2"/>
<feComposite in2="hardAlpha" operator="out"/>
<feColorMatrix type="matrix" values="0 0 0 0 0 0 0 0 0 0 0 0 0 0 0 0 0 0 0.25 0"/>
<feBlend mode="normal" in2="BackgroundImageFix" result="effect1_dropShadow_52_2"/>
<feBlend mode="normal" in="SourceGraphic" in2="effect1_dropShadow_52_2" result="shape"/>
</filter>
</defs>
</svg>
