<svg width="1440" height="4973" viewBox="0 0 1440 4973" fill="none" xmlns="http://www.w3.org/2000/svg">
<g clip-path="url(#clip0_33_3)">
<rect width="1440" height="4973" fill="#B1D3EC"/>
<path fill-rule="evenodd" clip-rule="evenodd" d="M-36.3111 -1500.24L-102.078 -1322.39C-167.845 -1144.54 -298.122 -789.053 -210.202 -474.047C-121.94 -157.098 229 117.501 334.667 427.414C476 617 445.278 1059.02 315 1414.5C184.723 1769.98 102.238 2114.55 190.5 2431.5C278.762 2748.45 570.345 3041.95 596.722 3367.8C622.186 3695.83 241.968 4095.38 79.0353 4456.62C-82.6416 4817.64 -26.1212 5138.18 219.138 5427.45C463.141 5716.94 894.286 5973.43 950.806 6293.97C1007.67 6616.46 690.25 7004.94 652.915 7344.03C616.493 7680.96 860.497 7970.45 981.87 8115.31L1104.5 8259.94L167.541 8425.15L139.11 8263.91C110.678 8102.66 53.8151 7780.18 -2.70519 7459.64C-59.5681 7137.15 -116.431 6814.67 -173.294 6492.18C-229.814 6171.64 -286.677 5849.15 -343.54 5526.67C-400.403 5204.18 -456.923 4883.64 -513.786 4561.15C-570.649 4238.67 -627.512 3916.18 -684.375 3593.7C-740.895 3273.15 -797.758 2950.67 -854.621 2628.18C-911.484 2305.7 -968.004 1985.15 -1024.87 1662.67C-1081.73 1340.18 -1138.59 1017.7 -1195.11 697.155C-1251.98 374.67 -1308.84 52.1842 -1365.7 -270.301C-1422.22 -590.844 -1479.08 -913.329 -1507.52 -1074.57L-1535.95 -1235.81L-36.3111 -1500.24Z" fill="#F7C6CC"/>
<path d="M127.138 2582.82C131.402 2583.7 135.159 2585.98 137.692 2589.23C140.225 2592.47 141.358 2596.45 140.874 2600.41C140.39 2604.36 138.323 2608.02 135.067 2610.67C131.812 2613.33 127.595 2614.8 123.222 2614.81H74.2724C68.7546 2614.82 63.4316 2612.96 59.3367 2609.59C55.2418 2606.22 52.6672 2601.59 52.1127 2596.6C51.5582 2591.6 53.0633 2586.59 56.3359 2582.55C59.6084 2578.51 64.415 2575.72 69.8224 2574.72V2574.31C69.8196 2572.17 70.439 2570.07 71.6179 2568.21C72.7967 2566.36 74.4931 2564.82 76.5352 2563.76C78.5772 2562.69 80.8922 2562.14 83.2457 2562.15C85.5991 2562.16 87.9074 2562.74 89.9364 2563.82C93.059 2561.01 97.0275 2559.11 101.339 2558.36C105.65 2557.61 110.11 2558.04 114.152 2559.6C118.194 2561.15 121.637 2563.77 124.045 2567.11C126.452 2570.45 127.714 2574.37 127.672 2578.36C127.672 2579.9 127.494 2581.36 127.138 2582.82Z" fill="#FFFAFA" fill-opacity="0.51"/>
<path fill-rule="evenodd" clip-rule="evenodd" d="M461.079 10608.3L548.783 10429C636.486 10249.8 810.703 9891.28 777.853 9536.75C744.984 9180.07 505.03 8825.2 413.845 8469.03C321.488 8115.02 377.88 7757.56 552.097 7399.07C726.313 7040.59 1019.56 6683.21 986.694 6326.53C953.826 5969.85 596.048 5616.01 621.515 5260.97C648.154 4903.77 865.782 4493 1070.94 4134.25C1274.91 3775.5 1314 3449.5 1254.5 3112.5C1154 2755.5 849.596 2397.02 846.5 2042.23C843.385 1685.29 1012.85 1257.22 1099 899.5C1183.97 543.943 1016.63 272.7 927 94.9996L900.947 -89.5047L1788.79 -97.2528L1790.35 81.2169C1791.91 259.686 1795.02 616.625 1798.12 971.413C1801.24 1328.35 1804.35 1685.29 1807.47 2042.23C1810.56 2397.02 1813.68 2753.96 1816.79 3110.9C1819.91 3467.83 1823 3822.62 1826.12 4179.56C1829.23 4536.5 1832.35 4893.44 1835.46 5250.38C1838.56 5605.17 1841.67 5962.1 1844.79 6319.04C1847.9 6675.98 1851 7030.77 1854.12 7387.71C1857.23 7744.65 1860.34 8101.59 1863.44 8456.37C1866.56 8813.31 1869.67 9170.25 1872.79 9527.19C1875.88 9881.98 1879 10238.9 1880.55 10417.4L1882.11 10595.9L461.079 10608.3Z" fill="#FFE9AF"/>
<g clip-path="url(#clip1_33_3)">
<path d="M1258.06 1270.73C1255.33 1268.81 1255.03 1264.53 1257.41 1261.13C1259.76 1257.77 1263.89 1256.58 1266.63 1258.5C1269.36 1260.41 1269.66 1264.7 1267.3 1268.06C1264.93 1271.45 1260.8 1272.65 1258.06 1270.73ZM1263.69 1236.37C1259.6 1233.5 1258.19 1228.43 1260.54 1225.07C1262.92 1221.68 1268.17 1221.27 1272.26 1224.14C1276.35 1227 1277.76 1232.07 1275.38 1235.46C1273.03 1238.82 1267.78 1239.23 1263.69 1236.37ZM1233.33 1253.41C1230.59 1251.49 1230.3 1247.21 1232.68 1243.81C1235.03 1240.45 1239.16 1239.26 1241.89 1241.18C1244.63 1243.1 1244.92 1247.38 1242.57 1250.74C1240.19 1254.13 1236.07 1255.33 1233.33 1253.41ZM1270.54 1226.58C1271.9 1227.53 1272.24 1229.42 1271.3 1230.76C1270.37 1232.1 1268.47 1232.42 1267.12 1231.47C1265.77 1230.53 1265.42 1228.63 1266.36 1227.3C1267.29 1225.96 1269.19 1225.64 1270.54 1226.58ZM1284.24 1254.4C1283.18 1253.66 1282 1253.17 1280.78 1252.95C1280.59 1249.85 1279.64 1246.66 1277.98 1243.55C1281.68 1242.26 1285.02 1239.88 1287.42 1236.45L1287.56 1236.26C1291.68 1238.02 1296.6 1236.75 1299.27 1232.94C1302.3 1228.6 1301.2 1222.53 1296.81 1219.46C1294.54 1217.86 1291.77 1217.33 1289.33 1217.86C1287.9 1214.48 1285.55 1211.57 1282.53 1209.46C1279.52 1207.35 1275.98 1206.13 1272.31 1205.95C1271.98 1203.48 1270.53 1201.05 1268.25 1199.46C1263.87 1196.39 1257.78 1197.43 1254.75 1201.77C1252.1 1205.55 1252.59 1210.61 1255.6 1213.88L1255.46 1214.08C1253.07 1217.5 1251.98 1221.51 1252.02 1225.38C1248.57 1224.9 1245.24 1225.1 1242.26 1225.98C1241.49 1224.69 1240.4 1223.61 1239.1 1222.84C1237.81 1222.07 1236.34 1221.63 1234.84 1221.57C1233.33 1221.51 1231.84 1221.83 1230.5 1222.49C1229.16 1223.16 1228.01 1224.14 1227.16 1225.37C1224.31 1229.45 1225.32 1235.02 1229.44 1237.9L1229.64 1238.04C1228.96 1238.73 1228.3 1239.54 1227.73 1240.35C1223 1247.1 1223.58 1255.68 1229.06 1259.51C1232.39 1261.84 1236.76 1261.84 1240.77 1259.98C1242.02 1261.15 1243.37 1262.24 1244.85 1263.28C1246.33 1264.32 1247.82 1265.21 1249.34 1265.98C1248.96 1270.39 1250.46 1274.5 1253.79 1276.83C1259.27 1280.66 1267.52 1278.28 1272.25 1271.52C1272.82 1270.71 1273.35 1269.81 1273.76 1268.94L1273.96 1269.08C1278.08 1271.96 1283.67 1271.01 1286.52 1266.93C1289.38 1262.86 1288.36 1257.29 1284.24 1254.4Z" fill="white" fill-opacity="0.5"/>
</g>
<g clip-path="url(#clip2_33_3)">
<path d="M595.733 2805.95C592.742 2807.44 588.836 2805.65 586.988 2801.95C585.158 2798.28 586.08 2794.08 589.07 2792.59C592.061 2791.1 595.967 2792.89 597.797 2796.56C599.645 2800.26 598.723 2804.46 595.733 2805.95ZM568.222 2784.61C563.754 2786.84 558.623 2785.66 556.793 2781.99C554.945 2778.28 557.092 2773.47 561.559 2771.25C566.027 2769.02 571.158 2770.2 573.006 2773.9C574.836 2777.57 572.689 2782.38 568.222 2784.61ZM568.711 2819.42C565.721 2820.92 561.814 2819.13 559.967 2815.42C558.137 2811.75 559.058 2807.55 562.049 2806.06C565.039 2804.57 568.945 2806.36 570.775 2810.03C572.623 2813.74 571.702 2817.93 568.711 2819.42ZM562.892 2773.92C564.369 2773.18 566.198 2773.78 566.926 2775.24C567.655 2776.7 567.034 2778.53 565.557 2779.26C564.08 2780 562.251 2779.4 561.522 2777.94C560.794 2776.48 561.415 2774.65 562.892 2773.92ZM593.874 2775.16C592.721 2775.73 591.728 2776.54 590.95 2777.5C588.137 2776.19 584.872 2775.51 581.351 2775.48C581.983 2771.61 581.485 2767.54 579.619 2763.8L579.512 2763.58C583.031 2760.81 584.262 2755.88 582.183 2751.71C579.82 2746.97 573.957 2745.04 569.165 2747.43C566.679 2748.67 564.888 2750.85 564.192 2753.25C560.543 2752.89 556.857 2753.57 553.564 2755.21C550.272 2756.85 547.51 2759.39 545.601 2762.52C543.271 2761.63 540.45 2761.75 537.964 2762.99C533.172 2765.38 531.182 2771.22 533.545 2775.96C535.605 2780.09 540.283 2782.08 544.601 2780.99L544.707 2781.2C546.573 2784.95 549.575 2787.81 552.996 2789.62C550.933 2792.43 549.515 2795.45 548.869 2798.48C547.364 2798.55 545.897 2798.99 544.601 2799.76C543.305 2800.53 542.222 2801.62 541.452 2802.91C540.681 2804.2 540.248 2805.66 540.191 2807.16C540.134 2808.65 540.456 2810.13 541.126 2811.47C543.347 2815.92 548.726 2817.69 553.23 2815.44L553.446 2815.33C553.728 2816.26 554.118 2817.22 554.562 2818.11C558.24 2825.49 566.053 2829.07 572.034 2826.09C575.672 2824.27 577.76 2820.43 578.036 2816.02C579.655 2815.48 581.258 2814.82 582.879 2814.01C584.501 2813.2 585.996 2812.32 587.403 2811.35C591.09 2813.78 595.416 2814.43 599.055 2812.62C605.036 2809.63 606.879 2801.24 603.201 2793.86C602.757 2792.97 602.223 2792.08 601.652 2791.3L601.869 2791.19C606.372 2788.95 608.198 2783.59 605.978 2779.13C603.757 2774.68 598.377 2772.91 593.874 2775.16Z" fill="white" fill-opacity="0.5"/>
</g>
<g clip-path="url(#clip3_33_3)">
<path d="M1261.48 2869.06C1258.88 2866.96 1258.89 2862.66 1261.5 2859.45C1264.08 2856.26 1268.28 2855.36 1270.88 2857.46C1273.47 2859.56 1273.46 2863.86 1270.88 2867.05C1268.28 2870.26 1264.08 2871.17 1261.48 2869.06ZM1269.49 2835.18C1265.61 2832.04 1264.56 2826.88 1267.14 2823.69C1269.75 2820.47 1275.01 2820.43 1278.89 2823.57C1282.77 2826.72 1283.82 2831.87 1281.22 2835.09C1278.64 2838.28 1273.37 2838.32 1269.49 2835.18ZM1238.01 2850.06C1235.42 2847.96 1235.43 2843.66 1238.03 2840.44C1240.61 2837.26 1244.81 2836.35 1247.41 2838.46C1250.01 2840.56 1250 2844.86 1247.42 2848.04C1244.81 2851.26 1240.61 2852.16 1238.01 2850.06ZM1277.01 2825.9C1278.29 2826.93 1278.51 2828.85 1277.48 2830.12C1276.45 2831.38 1274.53 2831.58 1273.25 2830.54C1271.97 2829.5 1271.76 2827.58 1272.78 2826.32C1273.81 2825.05 1275.73 2824.86 1277.01 2825.9ZM1288.73 2854.6C1287.73 2853.79 1286.59 2853.22 1285.38 2852.91C1285.41 2849.81 1284.68 2846.55 1283.24 2843.34C1287.03 2842.31 1290.52 2840.17 1293.16 2836.92L1293.31 2836.73C1297.29 2838.78 1302.29 2837.86 1305.22 2834.24C1308.55 2830.12 1307.87 2823.99 1303.71 2820.62C1301.55 2818.87 1298.83 2818.15 1296.36 2818.51C1295.17 2815.04 1293.02 2811.96 1290.17 2809.65C1287.31 2807.33 1283.86 2805.87 1280.21 2805.43C1280.05 2802.95 1278.78 2800.43 1276.62 2798.68C1272.46 2795.31 1266.32 2795.92 1262.98 2800.04C1260.08 2803.63 1260.21 2808.71 1262.99 2812.18L1262.84 2812.37C1260.21 2815.62 1258.85 2819.54 1258.62 2823.4C1255.21 2822.69 1251.87 2822.65 1248.84 2823.32C1248.16 2821.98 1247.15 2820.83 1245.91 2819.97C1244.67 2819.11 1243.23 2818.57 1241.74 2818.41C1240.24 2818.24 1238.74 2818.45 1237.35 2819.02C1235.97 2819.59 1234.75 2820.5 1233.82 2821.66C1230.69 2825.53 1231.31 2831.16 1235.22 2834.32L1235.41 2834.47C1234.68 2835.12 1233.97 2835.87 1233.34 2836.64C1228.15 2843.05 1228.14 2851.64 1233.33 2855.85C1236.49 2858.41 1240.85 2858.71 1244.98 2857.14C1246.14 2858.38 1247.41 2859.57 1248.82 2860.71C1250.23 2861.85 1251.65 2862.84 1253.11 2863.72C1252.43 2868.09 1253.63 2872.29 1256.79 2874.85C1261.99 2879.06 1270.39 2877.25 1275.58 2870.85C1276.2 2870.07 1276.79 2869.22 1277.27 2868.37L1277.46 2868.53C1281.37 2871.69 1287 2871.13 1290.13 2867.26C1293.27 2863.4 1292.64 2857.77 1288.73 2854.6Z" fill="white" fill-opacity="0.5"/>
</g>
<path d="M542.042 3942.8C539.573 3942.8 537.419 3942.07 535.58 3940.63C533.741 3939.18 532.658 3937.32 532.331 3935.04C530.246 3934.03 528.601 3932.58 527.394 3930.71C526.187 3928.83 525.583 3926.78 525.583 3924.55C525.583 3921.86 526.419 3919.46 528.092 3917.36C529.764 3915.25 532 3913.8 534.8 3912.99L528.875 3907.51L527.887 3908.43C527.284 3908.98 526.516 3909.26 525.583 3909.26C524.651 3909.26 523.883 3908.98 523.279 3908.43C522.676 3907.87 522.374 3907.16 522.374 3906.3C522.374 3905.44 522.676 3904.73 523.279 3904.17L529.862 3898.08C530.466 3897.53 531.234 3897.25 532.167 3897.25C533.099 3897.25 533.867 3897.53 534.471 3898.08C535.074 3898.64 535.376 3899.35 535.376 3900.21C535.376 3901.08 535.074 3901.79 534.471 3902.34L533.483 3903.26L538.092 3907.51L540.725 3900.37C541.383 3898.49 542.577 3896.98 544.306 3895.84C546.035 3894.7 547.969 3894.13 550.106 3894.13H566.894C569.033 3894.13 570.968 3894.7 572.697 3895.84C574.426 3896.98 575.619 3898.49 576.275 3900.37L580.719 3912.68C583.846 3913.24 586.411 3914.64 588.415 3916.87C590.418 3919.1 591.419 3921.66 591.417 3924.55C591.417 3926.78 590.813 3928.83 589.606 3930.71C588.399 3932.58 586.753 3934.03 584.669 3935.04C584.34 3937.32 583.255 3939.19 581.417 3940.63C579.578 3942.08 577.425 3942.8 574.958 3942.8C572.874 3942.8 570.994 3942.24 569.32 3941.12C567.645 3940.01 566.453 3938.54 565.742 3936.71H551.258C550.545 3938.54 549.351 3940.01 547.677 3941.12C546.003 3942.24 544.124 3942.8 542.042 3942.8ZM543.358 3912.38H555.208V3900.21H550.106C549.393 3900.21 548.762 3900.4 548.213 3900.79C547.665 3901.17 547.253 3901.69 546.979 3902.34L543.358 3912.38ZM561.792 3912.38H573.642L570.021 3902.34C569.746 3901.68 569.335 3901.16 568.786 3900.78C568.238 3900.4 567.607 3900.21 566.894 3900.21H561.792V3912.38ZM542.042 3936.71C542.974 3936.71 543.757 3936.42 544.389 3935.84C545.021 3935.25 545.335 3934.53 545.333 3933.67C545.333 3932.81 545.017 3932.09 544.385 3931.5C543.753 3930.92 542.972 3930.63 542.042 3930.63C541.109 3930.63 540.327 3930.92 539.695 3931.51C539.063 3932.09 538.748 3932.81 538.75 3933.67C538.75 3934.53 539.066 3935.26 539.698 3935.84C540.33 3936.42 541.111 3936.72 542.042 3936.71ZM574.958 3936.71C575.891 3936.71 576.673 3936.42 577.305 3935.84C577.937 3935.25 578.252 3934.53 578.25 3933.67C578.25 3932.81 577.934 3932.09 577.302 3931.5C576.67 3930.92 575.889 3930.63 574.958 3930.63C574.026 3930.63 573.243 3930.92 572.611 3931.51C571.979 3932.09 571.664 3932.81 571.667 3933.67C571.667 3934.53 571.983 3935.26 572.615 3935.84C573.247 3936.42 574.028 3936.72 574.958 3936.71Z" fill="white" fill-opacity="0.5"/>
<g clip-path="url(#clip4_33_3)">
<path d="M198.911 730.243L159.064 749.677C157.554 750.414 155.82 750.533 154.243 750.008C152.666 749.484 151.375 748.359 150.654 746.881L143.859 732.95C143.499 732.211 143.453 731.356 143.732 730.573C144.011 729.79 144.591 729.144 145.346 728.776C146.101 728.407 146.968 728.348 147.757 728.61C148.545 728.872 149.191 729.435 149.551 730.174L153.628 738.532L159.321 735.756L156.603 730.184C155.882 728.706 155.79 726.996 156.348 725.43C156.906 723.864 158.067 722.571 159.577 721.835C161.087 721.098 162.821 720.979 164.398 721.504C165.976 722.028 167.267 723.153 167.987 724.631L170.705 730.203L176.398 727.427L173.68 721.855C172.959 720.377 172.867 718.667 173.425 717.101C173.983 715.535 175.145 714.242 176.654 713.506C178.164 712.769 179.898 712.65 181.475 713.175C183.053 713.699 184.344 714.824 185.065 716.302L187.782 721.874L193.475 719.098L189.398 710.739C189.038 710 188.992 709.145 189.271 708.362C189.55 707.58 190.13 706.933 190.885 706.565C191.64 706.197 192.507 706.137 193.296 706.399C194.084 706.661 194.73 707.224 195.09 707.963L201.885 721.894C202.606 723.372 202.697 725.082 202.14 726.648C201.582 728.213 200.42 729.507 198.911 730.243ZM244.526 780.425C244.886 781.164 244.932 782.019 244.653 782.802C244.374 783.585 243.793 784.232 243.038 784.6L174.73 817.916C173.975 818.284 173.108 818.344 172.319 818.082C171.531 817.819 170.885 817.257 170.525 816.518C170.165 815.779 170.119 814.924 170.398 814.141C170.677 813.358 171.257 812.712 172.012 812.344L174.858 810.955C176.368 810.219 177.53 808.926 178.087 807.36C178.645 805.794 178.554 804.084 177.833 802.607C177.833 802.607 167.218 766.395 164.5 760.823C163.779 759.345 163.687 757.635 164.245 756.069C164.803 754.503 165.965 753.21 167.474 752.474L195.936 738.592C197.446 737.856 199.18 737.736 200.757 738.261C202.335 738.785 203.626 739.91 204.346 741.388C207.064 746.961 229.064 777.619 229.064 777.619C229.785 779.097 231.076 780.222 232.653 780.747C234.23 781.271 235.965 781.152 237.474 780.416L240.32 779.027C241.066 778.664 241.92 778.601 242.702 778.852C243.483 779.103 244.128 779.648 244.498 780.37L244.526 780.425ZM205.192 772.017C204.111 769.8 202.174 768.113 199.809 767.326C197.443 766.54 194.841 766.718 192.577 767.823C190.312 768.927 188.57 770.867 187.733 773.216C186.897 775.564 187.034 778.129 188.115 780.346L197.628 799.85L214.705 791.521L205.192 772.017Z" fill="white" fill-opacity="0.53"/>
</g>
<g clip-path="url(#clip5_33_3)">
<path d="M187.74 2263.19V2247.39H184.023L181.746 2251.35C178.841 2256.43 171.941 2258.72 165.876 2256.61C161.113 2254.96 158 2250.95 158 2246.47V2231.19C158 2227.33 159.952 2223.85 163.042 2221.48H161.717C159.673 2221.48 158 2220.02 158 2218.24C158 2216.46 159.673 2215 161.717 2215H187.74C204.167 2215 217.481 2226.6 217.481 2240.91H257.258C264.391 2240.91 270.642 2244.21 274.104 2249.17C284.118 2250.32 291.832 2257.79 291.832 2266.82V2278.15C291.832 2280.84 289.345 2283.01 286.255 2283.01C283.165 2283.01 280.679 2280.84 280.679 2278.15V2266.82C280.679 2264.1 279.145 2261.72 276.799 2260.24C276.427 2262.87 275.335 2265.38 273.639 2267.61L267.087 2276.19C265.158 2278.7 265.6 2282 267.365 2284.61C271.199 2290.27 272.152 2297.2 269.689 2303.61L265.623 2314.22C264.601 2316.87 261.766 2318.65 258.56 2318.65H250.729C245.664 2318.65 242.063 2314.32 243.666 2310.13L248.499 2297.48C248.987 2296.19 248.615 2294.77 247.5 2293.8L244.549 2291.23C241.482 2288.55 239.763 2284.93 239.763 2281.17C239.763 2280.7 239.786 2280.24 239.832 2279.77L220.315 2284.63C219.363 2284.87 218.41 2285.05 217.457 2285.19V2312.16C217.457 2315.74 214.135 2318.63 210.022 2318.63H202.587C198.475 2318.63 195.152 2315.74 195.152 2312.16V2278.9C190.691 2275.01 187.833 2269.65 187.717 2263.58V2263.19H187.74ZM176.588 2227.95C175.602 2227.95 174.656 2228.3 173.959 2228.9C173.262 2229.51 172.87 2230.33 172.87 2231.19C172.87 2232.05 173.262 2232.88 173.959 2233.48C174.656 2234.09 175.602 2234.43 176.588 2234.43C177.574 2234.43 178.519 2234.09 179.216 2233.48C179.914 2232.88 180.305 2232.05 180.305 2231.19C180.305 2230.33 179.914 2229.51 179.216 2228.9C178.519 2228.3 177.574 2227.95 176.588 2227.95Z" fill="white" fill-opacity="0.51"/>
<g clip-path="url(#clip6_33_3)">
<path d="M80.7538 2298.57C78.8626 2300.16 76.748 2300.99 74.41 2301.06C72.0719 2301.14 70.0451 2300.41 68.3296 2298.87C66.0809 2299.43 63.8914 2299.38 61.7612 2298.72C59.6309 2298.06 57.8489 2296.88 56.4151 2295.17C54.6881 2293.11 53.7886 2290.74 53.7166 2288.05C53.6445 2285.36 54.421 2282.81 56.046 2280.39L47.9879 2280.01L47.818 2281.34C47.7141 2282.15 47.305 2282.86 46.5905 2283.46C45.8761 2284.06 45.1085 2284.34 44.2878 2284.3C43.467 2284.26 42.7797 2283.91 42.2257 2283.25C41.6718 2282.59 41.4467 2281.85 41.5506 2281.04L42.6834 2272.15C42.7872 2271.33 43.1964 2270.62 43.9108 2270.03C44.6253 2269.43 45.3929 2269.15 46.2136 2269.18C47.0343 2269.22 47.7217 2269.57 48.2756 2270.23C48.8296 2270.89 49.0546 2271.63 48.9508 2272.45L48.7809 2273.78L55.0483 2274.08L52.4709 2266.91C51.7696 2265.05 51.7149 2263.13 52.3071 2261.15C52.8992 2259.16 54.0133 2257.48 55.6493 2256.11L68.5093 2245.31C70.1483 2243.94 71.9971 2243.13 74.0556 2242.9C76.114 2242.66 77.9968 2243.05 79.7038 2244.06L91.0262 2250.64C93.7802 2249.06 96.6414 2248.48 99.61 2248.9C102.579 2249.32 104.991 2250.64 106.846 2252.85C108.28 2254.56 109.138 2256.52 109.419 2258.73C109.7 2260.95 109.368 2263.11 108.422 2265.23C109.637 2267.19 110.004 2269.31 109.525 2271.6C109.045 2273.89 107.86 2275.83 105.969 2277.41C104.372 2278.75 102.574 2279.53 100.575 2279.75C98.5752 2279.98 96.7165 2279.62 94.9988 2278.68L83.9039 2287.99C84.5307 2289.84 84.5612 2291.74 83.9954 2293.67C83.4297 2295.6 82.3491 2297.23 80.7538 2298.57ZM62.211 2274.42L71.2886 2266.81L63.468 2257.49L59.5596 2260.77C59.0133 2261.22 58.6525 2261.78 58.4773 2262.42C58.3021 2263.07 58.3205 2263.73 58.5327 2264.41L62.211 2274.42ZM76.3317 2262.57L85.4094 2254.96L76.1837 2249.6C75.5499 2249.27 74.9004 2249.13 74.2351 2249.19C73.5698 2249.25 72.9646 2249.51 72.4196 2249.97L68.5112 2253.25L76.3317 2262.57ZM76.8435 2293.91C77.558 2293.31 77.9696 2292.58 78.0783 2291.73C78.1871 2290.88 77.9643 2290.12 77.4099 2289.46C76.856 2288.8 76.1492 2288.45 75.2897 2288.41C74.4302 2288.37 73.6447 2288.65 72.9332 2289.25C72.2188 2289.85 71.8072 2290.58 71.6984 2291.43C71.5897 2292.28 71.8125 2293.04 72.3668 2293.7C72.9208 2294.36 73.6275 2294.71 74.487 2294.75C75.3466 2294.79 76.1321 2294.51 76.8435 2293.91ZM102.059 2272.75C102.774 2272.15 103.185 2271.43 103.294 2270.57C103.403 2269.72 103.18 2268.96 102.626 2268.31C102.072 2267.65 101.365 2267.3 100.505 2267.25C99.6458 2267.21 98.8603 2267.49 98.1489 2268.09C97.4344 2268.69 97.0228 2269.42 96.9141 2270.27C96.8053 2271.12 97.0281 2271.88 97.5825 2272.54C98.1364 2273.2 98.8432 2273.55 99.7027 2273.59C100.562 2273.63 101.348 2273.35 102.059 2272.75Z" fill="white" fill-opacity="0.5"/>
</g>
</g>
<g clip-path="url(#clip7_33_3)">
<path d="M1267.31 814.197C1273.4 814.682 1276.45 814.923 1277.74 816.678C1279.02 818.435 1277.69 820.546 1275.02 824.757L1274.33 825.848C1273.58 827.047 1273.2 827.648 1273.17 828.339C1273.14 829.038 1273.46 829.749 1274.1 831.175L1274.69 832.474C1276.95 837.494 1278.08 840.004 1276.66 841.32C1275.24 842.634 1272.22 841.883 1266.17 840.383L1264.6 839.995C1262.88 839.568 1262.02 839.353 1261.21 839.439C1260.4 839.523 1259.73 839.895 1258.39 840.637L1257.18 841.314C1252.48 843.934 1250.13 845.243 1247.97 844.298C1245.81 843.355 1245.27 840.782 1244.19 835.641L1243.91 834.31C1243.61 832.85 1243.45 832.122 1242.99 831.476C1242.51 830.832 1241.78 830.35 1240.31 829.383L1238.98 828.504C1233.81 825.102 1231.23 823.402 1231.31 821.502C1231.39 819.603 1234.09 818.765 1239.48 817.089L1240.87 816.653C1242.4 816.178 1243.17 815.94 1243.68 815.458C1244.2 814.975 1244.42 814.305 1244.85 812.965L1245.24 811.742C1246.74 807.022 1247.5 804.663 1249.71 804.435C1251.92 804.204 1254.13 806.257 1258.53 810.362L1259.67 811.424C1260.92 812.591 1261.55 813.176 1262.34 813.519C1263.13 813.869 1264 813.935 1265.73 814.073L1267.31 814.2L1267.31 814.197ZM1226.69 824.632C1212.85 824.842 1198.01 830.194 1189.17 837.432C1186.3 839.781 1188.22 843.995 1192.31 845.99L1196.07 847.822C1196.56 846.81 1197.47 845.698 1198.56 844.594C1199.67 843.46 1201.09 842.213 1202.73 840.936C1206.44 838.054 1210.47 835.49 1214.79 833.268C1219.37 830.929 1224.42 828.937 1229.35 827.995L1229.72 827.927C1228.51 826.967 1227.48 825.849 1226.69 824.632ZM1236.24 832.489C1234.8 832.487 1233.24 832.644 1231.55 832.967C1227.3 833.776 1222.73 835.547 1218.4 837.767C1214.33 839.854 1210.54 842.264 1207.05 844.972C1205.52 846.166 1204.24 847.292 1203.28 848.274C1202.29 849.284 1201.73 850.033 1201.52 850.48L1211.81 855.499C1213.39 852.258 1217.73 846.945 1223.22 842.177C1227.25 838.681 1232.14 835.27 1237.3 833.192L1236.24 832.489ZM1239.06 838.491C1235.14 840.306 1231.22 843.041 1227.71 846.079C1222.42 850.665 1218.52 855.57 1217.26 858.157L1221.94 860.441C1226.03 862.436 1230.6 861.425 1232.43 858.349C1235.6 853.057 1239.1 848.605 1242.05 845.664C1241.22 844.618 1240.58 843.49 1240.16 842.327C1239.7 841.056 1239.33 839.773 1239.06 838.491Z" fill="white" fill-opacity="0.5"/>
</g>
<g clip-path="url(#clip8_33_3)">
<path d="M186.116 4929.82C190.38 4930.7 194.136 4932.98 196.67 4936.23C199.203 4939.47 200.336 4943.45 199.851 4947.41C199.367 4951.36 197.3 4955.02 194.045 4957.67C190.789 4960.33 186.573 4961.8 182.2 4961.81H133.25C127.732 4961.82 122.409 4959.96 118.314 4956.59C114.219 4953.23 111.645 4948.6 111.09 4943.6C110.536 4938.6 112.041 4933.6 115.313 4929.55C118.586 4925.51 123.393 4922.72 128.8 4921.72V4921.31C128.797 4919.17 129.417 4917.07 130.595 4915.21C131.774 4913.36 133.471 4911.82 135.513 4910.76C137.555 4909.69 139.87 4909.14 142.223 4909.15C144.577 4909.16 146.885 4909.74 148.914 4910.82C152.037 4908.02 156.005 4906.12 160.316 4905.36C164.627 4904.61 169.087 4905.04 173.129 4906.6C177.172 4908.16 180.615 4910.77 183.022 4914.11C185.429 4917.45 186.692 4921.37 186.65 4925.36C186.65 4926.9 186.472 4928.36 186.116 4929.82Z" fill="#FFFAFA" fill-opacity="0.51"/>
</g>
<g clip-path="url(#clip9_33_3)">
<path d="M1243.12 4511.82C1247.38 4512.7 1251.14 4514.99 1253.67 4518.23C1256.2 4521.47 1257.34 4525.45 1256.85 4529.41C1256.37 4533.36 1254.3 4537.02 1251.04 4539.67C1247.79 4542.33 1243.57 4543.81 1239.2 4543.81H1190.25C1184.73 4543.82 1179.41 4541.96 1175.31 4538.59C1171.22 4535.23 1168.64 4530.6 1168.09 4525.6C1167.54 4520.6 1169.04 4515.6 1172.31 4511.55C1175.59 4507.51 1180.39 4504.72 1185.8 4503.72V4503.31C1185.8 4501.17 1186.42 4499.07 1187.6 4497.21C1188.77 4495.36 1190.47 4493.82 1192.51 4492.76C1194.55 4491.69 1196.87 4491.14 1199.22 4491.15C1201.58 4491.16 1203.88 4491.74 1205.91 4492.82C1209.04 4490.02 1213.01 4488.12 1217.32 4487.36C1221.63 4486.61 1226.09 4487.04 1230.13 4488.6C1234.17 4490.16 1237.62 4492.77 1240.02 4496.11C1242.43 4499.45 1243.69 4503.37 1243.65 4507.36C1243.65 4508.9 1243.47 4510.36 1243.12 4511.82Z" fill="#FFFAFA" fill-opacity="0.51"/>
</g>
<g clip-path="url(#clip10_33_3)">
<path d="M172.116 3758.82C176.38 3759.7 180.136 3761.98 182.67 3765.23C185.203 3768.47 186.336 3772.45 185.851 3776.41C185.367 3780.36 183.3 3784.02 180.045 3786.67C176.789 3789.33 172.573 3790.8 168.2 3790.81H119.25C113.732 3790.82 108.409 3788.96 104.314 3785.59C100.219 3782.23 97.6448 3777.6 97.0902 3772.6C96.5357 3767.6 98.0408 3762.6 101.313 3758.55C104.586 3754.51 109.393 3751.72 114.8 3750.72V3750.31C114.797 3748.17 115.417 3746.07 116.595 3744.21C117.774 3742.36 119.471 3740.82 121.513 3739.76C123.555 3738.69 125.87 3738.14 128.223 3738.15C130.577 3738.16 132.885 3738.74 134.914 3739.82C138.037 3737.02 142.005 3735.12 146.316 3734.36C150.627 3733.61 155.087 3734.04 159.129 3735.6C163.172 3737.16 166.615 3739.77 169.022 3743.11C171.429 3746.45 172.692 3750.37 172.65 3754.36C172.65 3755.9 172.472 3757.36 172.116 3758.82Z" fill="#FFFAFA" fill-opacity="0.51"/>
</g>
<g clip-path="url(#clip11_33_3)">
<path d="M133.116 1261.82C137.38 1262.7 141.136 1264.98 143.67 1268.23C146.203 1271.47 147.336 1275.45 146.851 1279.41C146.367 1283.36 144.3 1287.02 141.045 1289.67C137.789 1292.33 133.573 1293.81 129.2 1293.81H80.2499C74.7322 1293.82 69.4092 1291.96 65.3143 1288.59C61.2194 1285.23 58.6448 1280.6 58.0902 1275.6C57.5357 1270.6 59.0408 1265.6 62.3134 1261.55C65.586 1257.51 70.3925 1254.72 75.8 1253.72V1253.31C75.7971 1251.17 76.4166 1249.07 77.5954 1247.21C78.7743 1245.36 80.4707 1243.82 82.5127 1242.76C84.5547 1241.69 86.8698 1241.14 89.2232 1241.15C91.5767 1241.16 93.8849 1241.74 95.914 1242.82C99.0365 1240.02 103.005 1238.12 107.316 1237.36C111.627 1236.61 116.087 1237.04 120.129 1238.6C124.172 1240.16 127.615 1242.77 130.022 1246.11C132.429 1249.45 133.692 1253.37 133.65 1257.36C133.65 1258.9 133.472 1260.36 133.116 1261.82Z" fill="#FFFAFA" fill-opacity="0.51"/>
</g>
<g clip-path="url(#clip12_33_3)">
<path d="M1337.31 1480.23C1343.4 1480.72 1346.45 1480.96 1347.74 1482.71C1349.02 1484.47 1347.69 1486.58 1345.02 1490.79L1344.33 1491.88C1343.58 1493.08 1343.2 1493.68 1343.17 1494.38C1343.14 1495.07 1343.46 1495.79 1344.1 1497.21L1344.69 1498.51C1346.95 1503.53 1348.08 1506.04 1346.66 1507.36C1345.24 1508.67 1342.22 1507.92 1336.17 1506.42L1334.6 1506.03C1332.88 1505.6 1332.02 1505.39 1331.21 1505.48C1330.4 1505.56 1329.73 1505.93 1328.39 1506.67L1327.18 1507.35C1322.48 1509.97 1320.13 1511.28 1317.97 1510.33C1315.81 1509.39 1315.27 1506.82 1314.19 1501.68L1313.91 1500.35C1313.61 1498.89 1313.45 1498.16 1312.99 1497.51C1312.51 1496.87 1311.78 1496.39 1310.31 1495.42L1308.98 1494.54C1303.81 1491.14 1301.23 1489.44 1301.31 1487.54C1301.39 1485.64 1304.09 1484.8 1309.48 1483.13L1310.87 1482.69C1312.4 1482.21 1313.17 1481.98 1313.68 1481.49C1314.2 1481.01 1314.42 1480.34 1314.85 1479L1315.24 1477.78C1316.74 1473.06 1317.5 1470.7 1319.71 1470.47C1321.92 1470.24 1324.13 1472.29 1328.53 1476.4L1329.67 1477.46C1330.92 1478.63 1331.55 1479.21 1332.34 1479.55C1333.13 1479.91 1334 1479.97 1335.73 1480.11L1337.31 1480.24L1337.31 1480.23ZM1296.69 1490.67C1282.85 1490.88 1268.01 1496.23 1259.17 1503.47C1256.3 1505.82 1258.22 1510.03 1262.31 1512.03L1266.07 1513.86C1266.56 1512.85 1267.47 1511.73 1268.56 1510.63C1269.67 1509.5 1271.09 1508.25 1272.73 1506.97C1276.44 1504.09 1280.47 1501.53 1284.79 1499.3C1289.37 1496.97 1294.42 1494.97 1299.35 1494.03L1299.72 1493.96C1298.51 1493 1297.48 1491.89 1296.69 1490.67ZM1306.24 1498.53C1304.8 1498.52 1303.24 1498.68 1301.55 1499C1297.3 1499.81 1292.73 1501.58 1288.4 1503.8C1284.33 1505.89 1280.54 1508.3 1277.05 1511.01C1275.52 1512.2 1274.24 1513.33 1273.28 1514.31C1272.29 1515.32 1271.73 1516.07 1271.52 1516.52L1281.81 1521.54C1283.39 1518.29 1287.73 1512.98 1293.22 1508.21C1297.25 1504.72 1302.14 1501.31 1307.3 1499.23L1306.24 1498.53ZM1309.06 1504.53C1305.14 1506.34 1301.22 1509.08 1297.71 1512.12C1292.42 1516.7 1288.52 1521.61 1287.26 1524.19L1291.94 1526.48C1296.03 1528.47 1300.6 1527.46 1302.43 1524.39C1305.6 1519.09 1309.1 1514.64 1312.05 1511.7C1311.22 1510.65 1310.58 1509.53 1310.16 1508.36C1309.7 1507.09 1309.33 1505.81 1309.06 1504.53Z" fill="white" fill-opacity="0.5"/>
</g>
<g clip-path="url(#clip13_33_3)">
<path d="M877.309 2288.2C883.404 2288.68 886.452 2288.92 887.737 2290.68C889.02 2292.44 887.69 2294.55 885.024 2298.76L884.334 2299.85C883.579 2301.05 883.2 2301.65 883.169 2302.34C883.138 2303.04 883.462 2303.75 884.102 2305.18L884.687 2306.47C886.951 2311.49 888.079 2314 886.663 2315.32C885.244 2316.63 882.22 2315.88 876.166 2314.38L874.602 2314C872.876 2313.57 872.019 2313.35 871.208 2313.44C870.398 2313.52 869.726 2313.9 868.393 2314.64L867.177 2315.31C862.477 2317.93 860.126 2319.24 857.969 2318.3C855.808 2317.36 855.268 2314.78 854.192 2309.64L853.915 2308.31C853.606 2306.85 853.453 2306.12 852.985 2305.48C852.513 2304.83 851.781 2304.35 850.31 2303.38L848.976 2302.5C843.809 2299.1 841.225 2297.4 841.311 2295.5C841.392 2293.6 844.085 2292.77 849.476 2291.09L850.866 2290.65C852.402 2290.18 853.166 2289.94 853.684 2289.46C854.203 2288.98 854.417 2288.31 854.846 2286.97L855.236 2285.74C856.742 2281.02 857.497 2278.66 859.708 2278.44C861.921 2278.2 864.125 2280.26 868.531 2284.36L869.668 2285.42C870.92 2286.59 871.548 2287.18 872.338 2287.52C873.13 2287.87 873.997 2287.94 875.729 2288.07L877.308 2288.2L877.309 2288.2ZM836.691 2298.63C822.851 2298.84 808.009 2304.19 799.173 2311.43C796.305 2313.78 798.22 2318 802.31 2319.99L806.067 2321.82C806.56 2320.81 807.471 2319.7 808.559 2318.59C809.674 2317.46 811.091 2316.21 812.726 2314.94C816.435 2312.05 820.472 2309.49 824.794 2307.27C829.366 2304.93 834.416 2302.94 839.349 2302L839.715 2301.93C838.51 2300.97 837.485 2299.85 836.691 2298.63ZM846.236 2306.49C844.803 2306.49 843.238 2306.64 841.551 2306.97C837.303 2307.78 832.73 2309.55 828.396 2311.77C824.333 2313.85 820.537 2316.26 817.048 2318.97C815.522 2320.17 814.244 2321.29 813.279 2322.27C812.292 2323.28 811.733 2324.03 811.515 2324.48L821.807 2329.5C823.388 2326.26 827.732 2320.95 833.224 2316.18C837.254 2312.68 842.137 2309.27 847.297 2307.19L846.236 2306.49ZM849.056 2312.49C845.136 2314.31 841.216 2317.04 837.711 2320.08C832.425 2324.67 828.517 2329.57 827.256 2332.16L831.938 2334.44C836.028 2336.44 840.595 2335.43 842.433 2332.35C845.599 2327.06 849.096 2322.61 852.046 2319.66C851.223 2318.62 850.585 2317.49 850.158 2316.33C849.698 2315.06 849.328 2313.77 849.056 2312.49Z" fill="white" fill-opacity="0.5"/>
</g>
<g clip-path="url(#clip14_33_3)">
<path d="M360.309 3311.2C366.404 3311.68 369.452 3311.92 370.737 3313.68C372.02 3315.44 370.69 3317.55 368.024 3321.76L367.334 3322.85C366.579 3324.05 366.2 3324.65 366.169 3325.34C366.138 3326.04 366.462 3326.75 367.102 3328.17L367.687 3329.47C369.951 3334.49 371.079 3337 369.663 3338.32C368.244 3339.63 365.22 3338.88 359.166 3337.38L357.602 3337C355.876 3336.57 355.019 3336.35 354.208 3336.44C353.398 3336.52 352.726 3336.89 351.393 3337.64L350.177 3338.31C345.477 3340.93 343.126 3342.24 340.969 3341.3C338.808 3340.35 338.268 3337.78 337.192 3332.64L336.915 3331.31C336.606 3329.85 336.453 3329.12 335.985 3328.48C335.513 3327.83 334.781 3327.35 333.31 3326.38L331.976 3325.5C326.809 3322.1 324.225 3320.4 324.311 3318.5C324.392 3316.6 327.085 3315.76 332.476 3314.09L333.866 3313.65C335.402 3313.18 336.166 3312.94 336.684 3312.46C337.203 3311.98 337.417 3311.31 337.846 3309.97L338.236 3308.74C339.742 3304.02 340.497 3301.66 342.708 3301.43C344.921 3301.2 347.125 3303.26 351.531 3307.36L352.668 3308.42C353.92 3309.59 354.548 3310.18 355.338 3310.52C356.13 3310.87 356.997 3310.93 358.729 3311.07L360.308 3311.2L360.309 3311.2ZM319.691 3321.63C305.851 3321.84 291.009 3327.19 282.173 3334.43C279.305 3336.78 281.22 3341 285.31 3342.99L289.067 3344.82C289.56 3343.81 290.471 3342.7 291.559 3341.59C292.674 3340.46 294.091 3339.21 295.726 3337.94C299.435 3335.05 303.472 3332.49 307.794 3330.27C312.366 3327.93 317.416 3325.94 322.349 3325L322.715 3324.93C321.51 3323.97 320.485 3322.85 319.691 3321.63ZM329.236 3329.49C327.803 3329.49 326.238 3329.64 324.551 3329.97C320.303 3330.78 315.73 3332.55 311.396 3334.77C307.333 3336.85 303.537 3339.26 300.048 3341.97C298.522 3343.17 297.244 3344.29 296.279 3345.27C295.292 3346.28 294.733 3347.03 294.515 3347.48L304.807 3352.5C306.388 3349.26 310.732 3343.95 316.224 3339.18C320.254 3335.68 325.137 3332.27 330.297 3330.19L329.236 3329.49ZM332.056 3335.49C328.136 3337.31 324.216 3340.04 320.711 3343.08C315.425 3347.67 311.517 3352.57 310.256 3355.16L314.938 3357.44C319.028 3359.44 323.595 3358.43 325.433 3355.35C328.599 3350.06 332.096 3345.61 335.046 3342.66C334.223 3341.62 333.585 3340.49 333.158 3339.33C332.698 3338.06 332.328 3336.77 332.056 3335.49Z" fill="white" fill-opacity="0.5"/>
</g>
<g clip-path="url(#clip15_33_3)">
<path d="M1059.31 4093.23C1065.4 4093.72 1068.45 4093.96 1069.74 4095.71C1071.02 4097.47 1069.69 4099.58 1067.02 4103.79L1066.33 4104.88C1065.58 4106.08 1065.2 4106.68 1065.17 4107.38C1065.14 4108.07 1065.46 4108.79 1066.1 4110.21L1066.69 4111.51C1068.95 4116.53 1070.08 4119.04 1068.66 4120.36C1067.24 4121.67 1064.22 4120.92 1058.17 4119.42L1056.6 4119.03C1054.88 4118.6 1054.02 4118.39 1053.21 4118.48C1052.4 4118.56 1051.73 4118.93 1050.39 4119.67L1049.18 4120.35C1044.48 4122.97 1042.13 4124.28 1039.97 4123.33C1037.81 4122.39 1037.27 4119.82 1036.19 4114.68L1035.91 4113.35C1035.61 4111.89 1035.45 4111.16 1034.99 4110.51C1034.51 4109.87 1033.78 4109.39 1032.31 4108.42L1030.98 4107.54C1025.81 4104.14 1023.23 4102.44 1023.31 4100.54C1023.39 4098.64 1026.09 4097.8 1031.48 4096.13L1032.87 4095.69C1034.4 4095.21 1035.17 4094.98 1035.68 4094.49C1036.2 4094.01 1036.42 4093.34 1036.85 4092L1037.24 4090.78C1038.74 4086.06 1039.5 4083.7 1041.71 4083.47C1043.92 4083.24 1046.13 4085.29 1050.53 4089.4L1051.67 4090.46C1052.92 4091.63 1053.55 4092.21 1054.34 4092.56C1055.13 4092.91 1056 4092.97 1057.73 4093.11L1059.31 4093.24L1059.31 4093.23ZM1018.69 4103.67C1004.85 4103.88 990.009 4109.23 981.173 4116.47C978.305 4118.82 980.22 4123.03 984.31 4125.03L988.066 4126.86C988.56 4125.85 989.471 4124.73 990.559 4123.63C991.674 4122.5 993.091 4121.25 994.726 4119.97C998.435 4117.09 1002.47 4114.53 1006.79 4112.3C1011.37 4109.97 1016.42 4107.97 1021.35 4107.03L1021.72 4106.96C1020.51 4106 1019.48 4104.89 1018.69 4103.67ZM1028.24 4111.53C1026.8 4111.52 1025.24 4111.68 1023.55 4112C1019.3 4112.81 1014.73 4114.58 1010.4 4116.8C1006.33 4118.89 1002.54 4121.3 999.048 4124.01C997.522 4125.2 996.244 4126.33 995.279 4127.31C994.292 4128.32 993.733 4129.07 993.515 4129.52L1003.81 4134.54C1005.39 4131.29 1009.73 4125.98 1015.22 4121.21C1019.25 4117.72 1024.14 4114.31 1029.3 4112.23L1028.24 4111.53ZM1031.06 4117.53C1027.14 4119.34 1023.22 4122.08 1019.71 4125.12C1014.42 4129.7 1010.52 4134.61 1009.26 4137.19L1013.94 4139.48C1018.03 4141.47 1022.6 4140.46 1024.43 4137.39C1027.6 4132.09 1031.1 4127.64 1034.05 4124.7C1033.22 4123.65 1032.58 4122.53 1032.16 4121.36C1031.7 4120.09 1031.33 4118.81 1031.06 4117.53Z" fill="white" fill-opacity="0.5"/>
</g>
<g clip-path="url(#clip16_33_3)">
<path d="M140.309 4233.23C146.404 4233.72 149.452 4233.96 150.737 4235.71C152.02 4237.47 150.69 4239.58 148.024 4243.79L147.334 4244.88C146.579 4246.08 146.2 4246.68 146.169 4247.38C146.138 4248.07 146.462 4248.79 147.102 4250.21L147.687 4251.51C149.951 4256.53 151.079 4259.04 149.663 4260.36C148.244 4261.67 145.22 4260.92 139.166 4259.42L137.602 4259.03C135.876 4258.6 135.019 4258.39 134.208 4258.48C133.398 4258.56 132.726 4258.93 131.393 4259.67L130.177 4260.35C125.477 4262.97 123.126 4264.28 120.969 4263.33C118.808 4262.39 118.268 4259.82 117.192 4254.68L116.915 4253.35C116.606 4251.89 116.453 4251.16 115.985 4250.51C115.513 4249.87 114.781 4249.39 113.31 4248.42L111.976 4247.54C106.809 4244.14 104.225 4242.44 104.311 4240.54C104.392 4238.64 107.085 4237.8 112.476 4236.13L113.866 4235.69C115.402 4235.21 116.166 4234.98 116.684 4234.49C117.203 4234.01 117.417 4233.34 117.846 4232L118.236 4230.78C119.742 4226.06 120.497 4223.7 122.708 4223.47C124.921 4223.24 127.125 4225.29 131.531 4229.4L132.668 4230.46C133.92 4231.63 134.548 4232.21 135.338 4232.56C136.13 4232.91 136.997 4232.97 138.729 4233.11L140.308 4233.24L140.309 4233.23ZM99.6908 4243.67C85.8506 4243.88 71.0094 4249.23 62.173 4256.47C59.305 4258.82 61.2201 4263.03 65.3104 4265.03L69.0665 4266.86C69.5602 4265.85 70.4713 4264.73 71.5586 4263.63C72.6737 4262.5 74.0913 4261.25 75.7258 4259.97C79.4354 4257.09 83.4716 4254.53 87.7936 4252.3C92.3656 4249.97 97.4156 4247.97 102.349 4247.03L102.715 4246.96C101.51 4246 100.485 4244.89 99.6908 4243.67ZM109.236 4251.53C107.803 4251.52 106.238 4251.68 104.551 4252C100.303 4252.81 95.7298 4254.58 91.3959 4256.8C87.3325 4258.89 83.5373 4261.3 80.0483 4264.01C78.5218 4265.2 77.2441 4266.33 76.2794 4267.31C75.2919 4268.32 74.7335 4269.07 74.5155 4269.52L84.8067 4274.54C86.3875 4271.29 90.7325 4265.98 96.2237 4261.21C100.254 4257.72 105.137 4254.31 110.297 4252.23L109.236 4251.53ZM112.056 4257.53C108.136 4259.34 104.216 4262.08 100.711 4265.12C95.4249 4269.7 91.5172 4274.61 90.2556 4277.19L94.9381 4279.48C99.0284 4281.47 103.595 4280.46 105.433 4277.39C108.599 4272.09 112.096 4267.64 115.046 4264.7C114.223 4263.65 113.585 4262.53 113.158 4261.36C112.698 4260.09 112.328 4258.81 112.056 4257.53Z" fill="white" fill-opacity="0.5"/>
</g>
<g clip-path="url(#clip17_33_3)">
<path d="M1161.31 4819.2C1167.4 4819.68 1170.45 4819.92 1171.74 4821.68C1173.02 4823.43 1171.69 4825.55 1169.02 4829.76L1168.33 4830.85C1167.58 4832.05 1167.2 4832.65 1167.17 4833.34C1167.14 4834.04 1167.46 4834.75 1168.1 4836.17L1168.69 4837.47C1170.95 4842.49 1172.08 4845 1170.66 4846.32C1169.24 4847.63 1166.22 4846.88 1160.17 4845.38L1158.6 4844.99C1156.88 4844.57 1156.02 4844.35 1155.21 4844.44C1154.4 4844.52 1153.73 4844.89 1152.39 4845.64L1151.18 4846.31C1146.48 4848.93 1144.13 4850.24 1141.97 4849.3C1139.81 4848.35 1139.27 4845.78 1138.19 4840.64L1137.91 4839.31C1137.61 4837.85 1137.45 4837.12 1136.99 4836.48C1136.51 4835.83 1135.78 4835.35 1134.31 4834.38L1132.98 4833.5C1127.81 4830.1 1125.23 4828.4 1125.31 4826.5C1125.39 4824.6 1128.09 4823.76 1133.48 4822.09L1134.87 4821.65C1136.4 4821.18 1137.17 4820.94 1137.68 4820.46C1138.2 4819.98 1138.42 4819.31 1138.85 4817.96L1139.24 4816.74C1140.74 4812.02 1141.5 4809.66 1143.71 4809.43C1145.92 4809.2 1148.13 4811.26 1152.53 4815.36L1153.67 4816.42C1154.92 4817.59 1155.55 4818.18 1156.34 4818.52C1157.13 4818.87 1158 4818.93 1159.73 4819.07L1161.31 4819.2L1161.31 4819.2ZM1120.69 4829.63C1106.85 4829.84 1092.01 4835.19 1083.17 4842.43C1080.3 4844.78 1082.22 4849 1086.31 4850.99L1090.07 4852.82C1090.56 4851.81 1091.47 4850.7 1092.56 4849.59C1093.67 4848.46 1095.09 4847.21 1096.73 4845.94C1100.44 4843.05 1104.47 4840.49 1108.79 4838.27C1113.37 4835.93 1118.42 4833.94 1123.35 4833L1123.72 4832.93C1122.51 4831.97 1121.48 4830.85 1120.69 4829.63ZM1130.24 4837.49C1128.8 4837.49 1127.24 4837.64 1125.55 4837.97C1121.3 4838.78 1116.73 4840.55 1112.4 4842.77C1108.33 4844.85 1104.54 4847.26 1101.05 4849.97C1099.52 4851.17 1098.24 4852.29 1097.28 4853.27C1096.29 4854.28 1095.73 4855.03 1095.52 4855.48L1105.81 4860.5C1107.39 4857.26 1111.73 4851.95 1117.22 4847.18C1121.25 4843.68 1126.14 4840.27 1131.3 4838.19L1130.24 4837.49ZM1133.06 4843.49C1129.14 4845.31 1125.22 4848.04 1121.71 4851.08C1116.42 4855.67 1112.52 4860.57 1111.26 4863.16L1115.94 4865.44C1120.03 4867.44 1124.6 4866.43 1126.43 4863.35C1129.6 4858.06 1133.1 4853.61 1136.05 4850.66C1135.22 4849.62 1134.58 4848.49 1134.16 4847.33C1133.7 4846.06 1133.33 4844.77 1133.06 4843.49Z" fill="white" fill-opacity="0.5"/>
</g>
<g clip-path="url(#clip18_33_3)">
<path d="M135.309 1783.2C141.404 1783.68 144.452 1783.92 145.737 1785.68C147.02 1787.44 145.69 1789.55 143.024 1793.76L142.334 1794.85C141.579 1796.05 141.2 1796.65 141.169 1797.34C141.138 1798.04 141.462 1798.75 142.102 1800.18L142.687 1801.47C144.951 1806.49 146.079 1809 144.663 1810.32C143.244 1811.63 140.22 1810.88 134.166 1809.38L132.602 1809C130.876 1808.57 130.019 1808.35 129.208 1808.44C128.398 1808.52 127.726 1808.9 126.393 1809.64L125.177 1810.31C120.477 1812.93 118.126 1814.24 115.969 1813.3C113.808 1812.35 113.268 1809.78 112.192 1804.64L111.915 1803.31C111.606 1801.85 111.453 1801.12 110.985 1800.48C110.513 1799.83 109.781 1799.35 108.31 1798.38L106.976 1797.5C101.809 1794.1 99.2252 1792.4 99.311 1790.5C99.3918 1788.6 102.085 1787.77 107.476 1786.09L108.866 1785.65C110.402 1785.18 111.166 1784.94 111.684 1784.46C112.203 1783.98 112.417 1783.31 112.846 1781.97L113.236 1780.74C114.742 1776.02 115.497 1773.66 117.708 1773.44C119.921 1773.2 122.125 1775.26 126.531 1779.36L127.668 1780.42C128.92 1781.59 129.548 1782.18 130.338 1782.52C131.13 1782.87 131.997 1782.94 133.729 1783.07L135.308 1783.2L135.309 1783.2ZM94.6908 1793.63C80.8506 1793.84 66.0094 1799.19 57.173 1806.43C54.305 1808.78 56.2201 1813 60.3104 1814.99L64.0665 1816.82C64.5602 1815.81 65.4713 1814.7 66.5586 1813.59C67.6737 1812.46 69.0913 1811.21 70.7258 1809.94C74.4354 1807.05 78.4716 1804.49 82.7936 1802.27C87.3656 1799.93 92.4156 1797.94 97.3493 1797L97.7152 1796.93C96.5105 1795.97 95.4848 1794.85 94.6908 1793.63ZM104.236 1801.49C102.803 1801.49 101.238 1801.64 99.5514 1801.97C95.3033 1802.78 90.7298 1804.55 86.3959 1806.77C82.3325 1808.85 78.5373 1811.26 75.0483 1813.97C73.5218 1815.17 72.2441 1816.29 71.2794 1817.27C70.2919 1818.28 69.7335 1819.03 69.5155 1819.48L79.8067 1824.5C81.3875 1821.26 85.7325 1815.95 91.2237 1811.18C95.2536 1807.68 100.137 1804.27 105.297 1802.19L104.236 1801.49ZM107.056 1807.49C103.136 1809.31 99.2158 1812.04 95.7105 1815.08C90.4249 1819.67 86.5172 1824.57 85.2556 1827.16L89.9381 1829.44C94.0284 1831.44 98.5952 1830.43 100.433 1827.35C103.599 1822.06 107.096 1817.61 110.046 1814.66C109.223 1813.62 108.585 1812.49 108.158 1811.33C107.698 1810.06 107.328 1808.77 107.056 1807.49Z" fill="white" fill-opacity="0.5"/>
</g>
<path d="M284.778 1022.24V1008.06H288.056L290.063 1011.62C292.624 1016.17 298.708 1018.23 304.055 1016.34C308.255 1014.85 311 1011.25 311 1007.24V993.528C311 990.06 309.279 986.936 306.555 984.811H307.722C309.525 984.811 311 983.504 311 981.906C311 980.308 309.525 979 307.722 979H284.778C270.294 979 258.556 989.406 258.556 1002.25H223.483C217.194 1002.25 211.683 1005.21 208.631 1009.65C199.801 1010.69 193 1017.39 193 1025.49V1035.66C193 1038.08 195.192 1040.02 197.917 1040.02C200.641 1040.02 202.833 1038.08 202.833 1035.66V1025.49C202.833 1023.06 204.185 1020.91 206.255 1019.59C206.582 1021.95 207.545 1024.2 209.041 1026.2L214.818 1033.9C216.518 1036.15 216.129 1039.11 214.572 1041.45C211.192 1046.54 210.352 1052.75 212.523 1058.51L216.108 1068.02C217.01 1070.4 219.509 1072 222.336 1072H229.24C233.706 1072 236.881 1068.11 235.468 1064.35L231.207 1053C230.776 1051.84 231.104 1050.57 232.087 1049.7L234.689 1047.39C237.393 1045 238.909 1041.74 238.909 1038.37C238.909 1037.95 238.889 1037.53 238.848 1037.11L256.056 1041.47C256.896 1041.69 257.736 1041.85 258.576 1041.98V1066.17C258.576 1069.38 261.506 1071.98 265.132 1071.98H271.687C275.313 1071.98 278.243 1069.38 278.243 1066.17V1036.33C282.176 1032.85 284.696 1028.03 284.798 1022.59V1022.24H284.778ZM294.611 990.623C295.48 990.623 296.314 990.929 296.929 991.474C297.544 992.019 297.889 992.758 297.889 993.528C297.889 994.299 297.544 995.038 296.929 995.583C296.314 996.128 295.48 996.434 294.611 996.434C293.742 996.434 292.908 996.128 292.293 995.583C291.679 995.038 291.333 994.299 291.333 993.528C291.333 992.758 291.679 992.019 292.293 991.474C292.908 990.929 293.742 990.623 294.611 990.623Z" fill="white" fill-opacity="0.51"/>
<path d="M1220.54 1798.19L1230.67 1782.59L1234.49 1785.07L1234.29 1790.5C1234.01 1797.46 1239.64 1804.32 1247.22 1806.29C1253.18 1807.83 1258.95 1805.95 1261.82 1801.54L1271.61 1786.45C1274.09 1782.63 1274.32 1777.9 1272.66 1773.5L1274.02 1774.38C1276.12 1775.74 1278.78 1775.42 1279.92 1773.66C1281.06 1771.91 1280.27 1769.35 1278.17 1767.99L1251.43 1750.62C1234.55 1739.65 1213.43 1742.22 1204.26 1756.34L1163.38 1729.79C1156.04 1725.03 1147.51 1724.12 1140.77 1726.7C1129.74 1721.16 1117.02 1723.38 1111.24 1732.29L1103.97 1743.48C1102.24 1746.14 1103.41 1749.94 1106.59 1752C1109.76 1754.06 1113.71 1753.58 1115.43 1750.93L1122.7 1739.74C1124.44 1737.06 1127.54 1735.73 1130.9 1735.83C1129.6 1738.68 1129.11 1741.89 1129.43 1745.22L1130.66 1758.06C1131.03 1761.83 1128.46 1764.79 1124.97 1766.19C1117.4 1769.22 1111.99 1775.42 1110.4 1783.4L1107.78 1796.58C1107.13 1799.88 1108.91 1803.53 1112.2 1805.67L1120.25 1810.9C1125.45 1814.28 1131.93 1812.4 1132.97 1807.2L1136.11 1791.49C1136.44 1789.88 1137.73 1788.73 1139.5 1788.52L1144.18 1787.95C1149.05 1787.36 1153.14 1784.93 1155.55 1781.21C1155.85 1780.75 1156.12 1780.28 1156.37 1779.79L1173.32 1797.61C1174.14 1798.48 1175 1799.3 1175.89 1800.07L1158.61 1826.69C1156.31 1830.22 1157.87 1835.3 1162.1 1838.04L1169.74 1843.01C1173.96 1845.75 1179.23 1845.11 1181.53 1841.58L1202.85 1808.75C1209.93 1807.89 1216.3 1804.5 1220.31 1798.59L1220.56 1798.21L1220.54 1798.19ZM1254.59 1770.85C1255.6 1771.51 1256.35 1772.47 1256.68 1773.54C1257.01 1774.6 1256.88 1775.68 1256.33 1776.53C1255.78 1777.37 1254.85 1777.93 1253.74 1778.06C1252.64 1778.19 1251.45 1777.9 1250.44 1777.24C1249.42 1776.58 1248.67 1775.62 1248.34 1774.55C1248.01 1773.49 1248.14 1772.41 1248.69 1771.56C1249.24 1770.72 1250.17 1770.16 1251.28 1770.03C1252.38 1769.9 1253.57 1770.19 1254.59 1770.85Z" fill="white" fill-opacity="0.51"/>
<path d="M942.444 3311.09V3298.58H945.639L947.595 3301.72C950.091 3305.74 956.021 3307.55 961.232 3305.89C965.325 3304.57 968 3301.4 968 3297.86V3285.77C968 3282.72 966.323 3279.96 963.668 3278.09H964.806C966.562 3278.09 968 3276.93 968 3275.53C968 3274.12 966.562 3272.96 964.806 3272.96H942.444C928.329 3272.96 916.889 3282.14 916.889 3293.46H882.708C876.579 3293.46 871.208 3296.07 868.234 3299.99C859.628 3300.91 853 3306.81 853 3313.96V3322.92C853 3325.05 855.136 3326.77 857.792 3326.77C860.447 3326.77 862.583 3325.05 862.583 3322.92V3313.96C862.583 3311.81 863.901 3309.92 865.918 3308.75C866.237 3310.83 867.175 3312.82 868.633 3314.58L874.263 3321.37C875.92 3323.35 875.541 3325.96 874.023 3328.03C870.729 3332.51 869.911 3337.99 872.027 3343.07L875.521 3351.46C876.399 3353.55 878.835 3354.96 881.59 3354.96H888.319C892.671 3354.96 895.766 3351.54 894.388 3348.22L890.235 3338.21C889.816 3337.19 890.135 3336.07 891.094 3335.3L893.629 3333.27C896.265 3331.15 897.742 3328.29 897.742 3325.31C897.742 3324.94 897.722 3324.57 897.682 3324.2L914.453 3328.05C915.272 3328.24 916.09 3328.38 916.909 3328.49V3349.82C916.909 3352.66 919.764 3354.95 923.298 3354.95H929.687C933.22 3354.95 936.076 3352.66 936.076 3349.82V3323.52C939.909 3320.44 942.365 3316.2 942.464 3311.39V3311.09H942.444ZM952.028 3283.21C952.875 3283.21 953.688 3283.48 954.287 3283.96C954.886 3284.44 955.222 3285.09 955.222 3285.77C955.222 3286.45 954.886 3287.1 954.287 3287.59C953.688 3288.07 952.875 3288.34 952.028 3288.34C951.181 3288.34 950.368 3288.07 949.769 3287.59C949.17 3287.1 948.833 3286.45 948.833 3285.77C948.833 3285.09 949.17 3284.44 949.769 3283.96C950.368 3283.48 951.181 3283.21 952.028 3283.21Z" fill="white" fill-opacity="0.51"/>
<path d="M1100.67 1960.8H1056.33C1054.65 1960.8 1053.04 1960.15 1051.85 1958.98C1050.67 1957.82 1050 1956.24 1050 1954.6V1939.1C1050 1938.28 1050.33 1937.49 1050.93 1936.91C1051.52 1936.33 1052.33 1936 1053.17 1936C1054.01 1936 1054.81 1936.33 1055.41 1936.91C1056 1937.49 1056.33 1938.28 1056.33 1939.1V1948.4H1062.67V1942.2C1062.67 1940.56 1063.33 1938.98 1064.52 1937.82C1065.71 1936.65 1067.32 1936 1069 1936C1070.68 1936 1072.29 1936.65 1073.48 1937.82C1074.67 1938.98 1075.33 1940.56 1075.33 1942.2V1948.4H1081.67V1942.2C1081.67 1940.56 1082.33 1938.98 1083.52 1937.82C1084.71 1936.65 1086.32 1936 1088 1936C1089.68 1936 1091.29 1936.65 1092.48 1937.82C1093.67 1938.98 1094.33 1940.56 1094.33 1942.2V1948.4H1100.67V1939.1C1100.67 1938.28 1101 1937.49 1101.59 1936.91C1102.19 1936.33 1102.99 1936 1103.83 1936C1104.67 1936 1105.48 1936.33 1106.07 1936.91C1106.67 1937.49 1107 1938.28 1107 1939.1V1954.6C1107 1956.24 1106.33 1957.82 1105.14 1958.98C1103.96 1960.15 1102.35 1960.8 1100.67 1960.8ZM1119.67 2025.9C1119.67 2026.72 1119.33 2027.51 1118.74 2028.09C1118.15 2028.67 1117.34 2029 1116.5 2029H1040.5C1039.66 2029 1038.85 2028.67 1038.26 2028.09C1037.67 2027.51 1037.33 2026.72 1037.33 2025.9C1037.33 2025.08 1037.67 2024.29 1038.26 2023.71C1038.85 2023.13 1039.66 2022.8 1040.5 2022.8H1043.67C1045.35 2022.8 1046.96 2022.15 1048.14 2020.98C1049.33 2019.82 1050 2018.24 1050 2016.6C1050 2016.6 1056.33 1979.4 1056.33 1973.2C1056.33 1971.56 1057 1969.98 1058.19 1968.82C1059.38 1967.65 1060.99 1967 1062.67 1967H1094.33C1096.01 1967 1097.62 1967.65 1098.81 1968.82C1100 1969.98 1100.67 1971.56 1100.67 1973.2C1100.67 1979.4 1107 2016.6 1107 2016.6C1107 2018.24 1107.67 2019.82 1108.85 2020.98C1110.04 2022.15 1111.65 2022.8 1113.33 2022.8H1116.5C1117.33 2022.8 1118.12 2023.12 1118.72 2023.69C1119.31 2024.25 1119.65 2025.03 1119.67 2025.84V2025.9ZM1088 2001.1C1088 1998.63 1087 1996.27 1085.22 1994.52C1083.44 1992.78 1081.02 1991.8 1078.5 1991.8C1075.98 1991.8 1073.56 1992.78 1071.78 1994.52C1070 1996.27 1069 1998.63 1069 2001.1V2022.8H1088V2001.1Z" fill="white" fill-opacity="0.53"/>
<path d="M1213.67 3593.8H1169.33C1167.65 3593.8 1166.04 3593.15 1164.85 3591.98C1163.67 3590.82 1163 3589.24 1163 3587.6V3572.1C1163 3571.28 1163.33 3570.49 1163.93 3569.91C1164.52 3569.33 1165.33 3569 1166.17 3569C1167.01 3569 1167.81 3569.33 1168.41 3569.91C1169 3570.49 1169.33 3571.28 1169.33 3572.1V3581.4H1175.67V3575.2C1175.67 3573.56 1176.33 3571.98 1177.52 3570.82C1178.71 3569.65 1180.32 3569 1182 3569C1183.68 3569 1185.29 3569.65 1186.48 3570.82C1187.67 3571.98 1188.33 3573.56 1188.33 3575.2V3581.4H1194.67V3575.2C1194.67 3573.56 1195.33 3571.98 1196.52 3570.82C1197.71 3569.65 1199.32 3569 1201 3569C1202.68 3569 1204.29 3569.65 1205.48 3570.82C1206.67 3571.98 1207.33 3573.56 1207.33 3575.2V3581.4H1213.67V3572.1C1213.67 3571.28 1214 3570.49 1214.59 3569.91C1215.19 3569.33 1215.99 3569 1216.83 3569C1217.67 3569 1218.48 3569.33 1219.07 3569.91C1219.67 3570.49 1220 3571.28 1220 3572.1V3587.6C1220 3589.24 1219.33 3590.82 1218.14 3591.98C1216.96 3593.15 1215.35 3593.8 1213.67 3593.8ZM1232.67 3658.9C1232.67 3659.72 1232.33 3660.51 1231.74 3661.09C1231.15 3661.67 1230.34 3662 1229.5 3662H1153.5C1152.66 3662 1151.85 3661.67 1151.26 3661.09C1150.67 3660.51 1150.33 3659.72 1150.33 3658.9C1150.33 3658.08 1150.67 3657.29 1151.26 3656.71C1151.85 3656.13 1152.66 3655.8 1153.5 3655.8H1156.67C1158.35 3655.8 1159.96 3655.15 1161.14 3653.98C1162.33 3652.82 1163 3651.24 1163 3649.6C1163 3649.6 1169.33 3612.4 1169.33 3606.2C1169.33 3604.56 1170 3602.98 1171.19 3601.82C1172.38 3600.65 1173.99 3600 1175.67 3600H1207.33C1209.01 3600 1210.62 3600.65 1211.81 3601.82C1213 3602.98 1213.67 3604.56 1213.67 3606.2C1213.67 3612.4 1220 3649.6 1220 3649.6C1220 3651.24 1220.67 3652.82 1221.85 3653.98C1223.04 3655.15 1224.65 3655.8 1226.33 3655.8H1229.5C1230.33 3655.8 1231.12 3656.12 1231.72 3656.69C1232.31 3657.25 1232.65 3658.03 1232.67 3658.84V3658.9ZM1201 3634.1C1201 3631.63 1200 3629.27 1198.22 3627.52C1196.44 3625.78 1194.02 3624.8 1191.5 3624.8C1188.98 3624.8 1186.56 3625.78 1184.78 3627.52C1183 3629.27 1182 3631.63 1182 3634.1V3655.8H1201V3634.1Z" fill="white" fill-opacity="0.53"/>
<g clip-path="url(#clip19_33_3)">
<path d="M651.667 4622.76H607.333C605.654 4622.76 604.043 4622.11 602.855 4620.95C601.667 4619.79 601 4618.21 601 4616.56V4601.06C601 4600.24 601.334 4599.45 601.928 4598.87C602.521 4598.29 603.327 4597.96 604.167 4597.96C605.007 4597.96 605.812 4598.29 606.406 4598.87C607 4599.45 607.333 4600.24 607.333 4601.06V4610.36H613.667V4604.16C613.667 4602.52 614.334 4600.94 615.522 4599.78C616.709 4598.62 618.32 4597.96 620 4597.96C621.68 4597.96 623.291 4598.62 624.478 4599.78C625.666 4600.94 626.333 4602.52 626.333 4604.16V4610.36H632.667V4604.16C632.667 4602.52 633.334 4600.94 634.522 4599.78C635.709 4598.62 637.32 4597.96 639 4597.96C640.68 4597.96 642.291 4598.62 643.478 4599.78C644.666 4600.94 645.333 4602.52 645.333 4604.16V4610.36H651.667V4601.06C651.667 4600.24 652 4599.45 652.594 4598.87C653.188 4598.29 653.994 4597.96 654.833 4597.96C655.673 4597.96 656.479 4598.29 657.073 4598.87C657.666 4599.45 658 4600.24 658 4601.06V4616.56C658 4618.21 657.333 4619.79 656.145 4620.95C654.957 4622.11 653.346 4622.76 651.667 4622.76ZM670.667 4687.86C670.667 4688.69 670.333 4689.48 669.739 4690.06C669.145 4690.64 668.34 4690.96 667.5 4690.96H591.5C590.66 4690.96 589.855 4690.64 589.261 4690.06C588.667 4689.48 588.333 4688.69 588.333 4687.86C588.333 4687.04 588.667 4686.25 589.261 4685.67C589.855 4685.09 590.66 4684.76 591.5 4684.76H594.667C596.346 4684.76 597.957 4684.11 599.145 4682.95C600.333 4681.79 601 4680.21 601 4678.56C601 4678.56 607.333 4641.36 607.333 4635.16C607.333 4633.52 608.001 4631.94 609.188 4630.78C610.376 4629.62 611.987 4628.96 613.667 4628.96H645.333C647.013 4628.96 648.624 4629.62 649.812 4630.78C650.999 4631.94 651.667 4633.52 651.667 4635.16C651.667 4641.36 658 4678.56 658 4678.56C658 4680.21 658.667 4681.79 659.855 4682.95C661.043 4684.11 662.654 4684.76 664.333 4684.76H667.5C668.329 4684.76 669.125 4685.08 669.717 4685.65C670.309 4686.22 670.65 4686.99 670.667 4687.8V4687.86ZM639 4663.06C639 4660.6 637.999 4658.23 636.218 4656.49C634.436 4654.74 632.02 4653.76 629.5 4653.76C626.98 4653.76 624.564 4654.74 622.783 4656.49C621.001 4658.23 620 4660.6 620 4663.06V4684.76H639V4663.06Z" fill="white" fill-opacity="0.53"/>
</g>
<path d="M736.55 1714.9L697.406 1735.71C695.923 1736.5 694.194 1736.68 692.6 1736.21C691.005 1735.74 689.675 1734.66 688.903 1733.21L681.627 1719.53C681.241 1718.8 681.165 1717.95 681.417 1717.15C681.668 1716.36 682.226 1715.7 682.967 1715.3C683.709 1714.91 684.573 1714.82 685.371 1715.05C686.168 1715.29 686.833 1715.83 687.219 1716.55L691.585 1724.76L697.177 1721.79L694.266 1716.32C693.494 1714.86 693.343 1713.16 693.846 1711.57C694.349 1709.99 695.464 1708.66 696.947 1707.87C698.43 1707.08 700.159 1706.9 701.754 1707.37C703.349 1707.84 704.678 1708.92 705.45 1710.37L708.361 1715.84L713.953 1712.87L711.042 1707.4C710.27 1705.94 710.119 1704.24 710.622 1702.65C711.125 1701.07 712.24 1699.74 713.723 1698.95C715.206 1698.16 716.935 1697.98 718.53 1698.45C720.125 1698.92 721.454 1700 722.226 1701.45L725.137 1706.92L730.729 1703.95L726.363 1695.74C725.977 1695.01 725.901 1694.16 726.153 1693.37C726.404 1692.58 726.962 1691.91 727.703 1691.52C728.445 1691.12 729.309 1691.03 730.107 1691.27C730.904 1691.5 731.569 1692.04 731.955 1692.77L739.231 1706.45C740.003 1707.9 740.155 1709.61 739.652 1711.19C739.149 1712.78 738.033 1714.11 736.55 1714.9ZM783.889 1763.46C784.275 1764.18 784.35 1765.04 784.099 1765.83C783.848 1766.62 783.29 1767.29 782.548 1767.68L715.444 1803.36C714.703 1803.76 713.838 1803.85 713.041 1803.61C712.244 1803.38 711.579 1802.84 711.193 1802.11C710.807 1801.39 710.731 1800.53 710.983 1799.74C711.234 1798.95 711.792 1798.28 712.533 1797.89L715.329 1796.4C716.813 1795.61 717.928 1794.28 718.431 1792.7C718.934 1791.11 718.783 1789.41 718.011 1787.95C718.011 1787.95 706.138 1752.14 703.228 1746.66C702.456 1745.21 702.304 1743.5 702.807 1741.92C703.31 1740.33 704.426 1739 705.909 1738.21L733.869 1723.35C735.352 1722.56 737.081 1722.38 738.676 1722.85C740.27 1723.32 741.6 1724.4 742.372 1725.85C745.282 1731.32 768.339 1761.19 768.339 1761.19C769.111 1762.65 770.44 1763.73 772.035 1764.19C773.629 1764.66 775.358 1764.48 776.841 1763.7L779.637 1762.21C780.369 1761.82 781.221 1761.73 782.011 1761.95C782.8 1762.17 783.464 1762.7 783.86 1763.4L783.889 1763.46ZM744.286 1756.43C743.128 1754.25 741.134 1752.63 738.742 1751.93C736.35 1751.22 733.756 1751.49 731.532 1752.68C729.307 1753.86 727.634 1755.86 726.879 1758.24C726.125 1760.61 726.352 1763.17 727.51 1765.35L737.697 1784.51L754.473 1775.59L744.286 1756.43Z" fill="white" fill-opacity="0.53"/>
<g clip-path="url(#clip20_33_3)">
<path d="M1086.5 555.606L1055.98 523.447C1054.83 522.229 1054.19 520.611 1054.22 518.949C1054.24 517.287 1054.93 515.717 1056.12 514.586L1067.36 503.916C1067.96 503.35 1068.76 503.049 1069.59 503.08C1070.42 503.111 1071.21 503.47 1071.79 504.079C1072.37 504.688 1072.69 505.497 1072.67 506.328C1072.66 507.159 1072.32 507.944 1071.72 508.51L1064.98 514.912L1069.34 519.506L1073.83 515.238C1075.03 514.106 1076.63 513.505 1078.29 513.566C1079.95 513.627 1081.53 514.346 1082.69 515.564C1083.85 516.783 1084.48 518.401 1084.46 520.063C1084.43 521.725 1083.75 523.294 1082.55 524.426L1078.06 528.694L1082.41 533.288L1086.91 529.02C1088.11 527.888 1089.71 527.287 1091.37 527.348C1093.03 527.409 1094.61 528.128 1095.77 529.346C1096.93 530.565 1097.56 532.183 1097.53 533.845C1097.51 535.507 1096.82 537.076 1095.63 538.208L1091.13 542.476L1095.49 547.07L1102.24 540.668C1102.84 540.102 1103.64 539.802 1104.47 539.832C1105.3 539.863 1106.09 540.222 1106.67 540.831C1107.25 541.441 1107.56 542.25 1107.55 543.081C1107.54 543.912 1107.2 544.696 1106.6 545.262L1095.36 555.932C1094.16 557.064 1092.56 557.665 1090.9 557.604C1089.24 557.543 1087.66 556.824 1086.5 555.606ZM1052.36 614.2C1051.76 614.766 1050.96 615.066 1050.13 615.036C1049.3 615.005 1048.51 614.646 1047.93 614.037L995.612 558.908C995.034 558.299 994.717 557.49 994.73 556.659C994.743 555.828 995.085 555.043 995.681 554.477C996.278 553.911 997.079 553.61 997.91 553.641C998.74 553.672 999.532 554.031 1000.11 554.64L1002.29 556.937C1003.45 558.156 1005.03 558.875 1006.69 558.936C1008.35 558.997 1009.95 558.395 1011.15 557.264C1011.15 557.264 1042.49 536.251 1046.99 531.983C1048.18 530.851 1049.78 530.25 1051.44 530.311C1053.11 530.372 1054.69 531.091 1055.84 532.309L1077.64 555.279C1078.8 556.498 1079.43 558.116 1079.41 559.778C1079.38 561.44 1078.7 563.009 1077.5 564.141C1073.01 568.409 1050.38 598.61 1050.38 598.61C1049.19 599.742 1048.51 601.311 1048.48 602.973C1048.45 604.635 1049.09 606.253 1050.24 607.472L1052.42 609.769C1053 610.37 1053.31 611.166 1053.31 611.987C1053.3 612.807 1052.98 613.586 1052.4 614.157L1052.36 614.2ZM1048.55 574.158C1050.34 572.46 1051.36 570.106 1051.4 567.613C1051.44 565.12 1050.49 562.693 1048.75 560.865C1047.02 559.038 1044.65 557.96 1042.15 557.868C1039.66 557.776 1037.26 558.678 1035.47 560.376L1019.73 575.313L1032.81 589.096L1048.55 574.158Z" fill="white" fill-opacity="0.53"/>
</g>
</g>
<defs>
<clipPath id="clip0_33_3">
<rect width="1440" height="4973" fill="white"/>
</clipPath>
<clipPath id="clip1_33_3">
<rect width="96.6202" height="95.5627" fill="white" transform="translate(1249.81 1171.96) rotate(35)"/>
</clipPath>
<clipPath id="clip2_33_3">
<rect width="96.6202" height="95.5627" fill="white" transform="translate(505 2766.08) rotate(-26.5)"/>
</clipPath>
<clipPath id="clip3_33_3">
<rect width="96.6202" height="95.5627" fill="white" transform="translate(1260.14 2769.96) rotate(39)"/>
</clipPath>
<clipPath id="clip4_33_3">
<rect width="95" height="93" fill="white" transform="translate(125.423 738.493) rotate(-26)"/>
</clipPath>
<clipPath id="clip5_33_3">
<rect width="491" height="435" fill="white" transform="translate(0 1883.96)"/>
</clipPath>
<clipPath id="clip6_33_3">
<rect width="79" height="73" fill="white" transform="translate(24 2266.78) rotate(-40)"/>
</clipPath>
<clipPath id="clip7_33_3">
<rect width="97" height="77" fill="white" transform="translate(1209.75 775.964) rotate(26)"/>
</clipPath>
<clipPath id="clip8_33_3">
<rect width="89" height="81" fill="white" transform="translate(111 4892.96)"/>
</clipPath>
<clipPath id="clip9_33_3">
<rect width="89" height="81" fill="white" transform="translate(1168 4474.96)"/>
</clipPath>
<clipPath id="clip10_33_3">
<rect width="89" height="81" fill="white" transform="translate(97 3721.96)"/>
</clipPath>
<clipPath id="clip11_33_3">
<rect width="89" height="81" fill="white" transform="translate(58 1224.96)"/>
</clipPath>
<clipPath id="clip12_33_3">
<rect width="97" height="77" fill="white" transform="translate(1279.75 1442) rotate(26)"/>
</clipPath>
<clipPath id="clip13_33_3">
<rect width="97" height="77" fill="white" transform="translate(819.755 2249.96) rotate(26)"/>
</clipPath>
<clipPath id="clip14_33_3">
<rect width="97" height="77" fill="white" transform="translate(302.755 3272.96) rotate(26)"/>
</clipPath>
<clipPath id="clip15_33_3">
<rect width="97" height="77" fill="white" transform="translate(1001.75 4055) rotate(26)"/>
</clipPath>
<clipPath id="clip16_33_3">
<rect width="97" height="77" fill="white" transform="translate(82.7546 4195) rotate(26)"/>
</clipPath>
<clipPath id="clip17_33_3">
<rect width="97" height="77" fill="white" transform="translate(1103.75 4780.96) rotate(26)"/>
</clipPath>
<clipPath id="clip18_33_3">
<rect width="97" height="77" fill="white" transform="translate(77.7546 1744.96) rotate(26)"/>
</clipPath>
<clipPath id="clip19_33_3">
<rect width="95" height="93" fill="white" transform="translate(582 4597.96)"/>
</clipPath>
<clipPath id="clip20_33_3">
<rect width="95" height="93" fill="white" transform="translate(1056.53 488) rotate(46.5)"/>
</clipPath>
</defs>
</svg>