<svg version="1.1" id="Layer_1" xmlns="http://www.w3.org/2000/svg" xmlns:xlink="http://www.w3.org/1999/xlink" x="0px" y="0px"
	 width="100%" viewBox="0 0 754 527" enable-background="new 0 0 754 527" xml:space="preserve">
<path fill="#B1D3EC" opacity="1.000000" stroke="none"
	d="
M755.000000,10.000000
	C755.000000,182.601013 755.000000,355.202026 755.000000,528.000000
	C557.307556,528.000000 359.615021,528.000000 161.439331,527.602295
	C160.137772,523.812439 159.320831,520.419922 158.500748,517.028259
	C155.778168,505.768341 159.991119,496.333405 170.663605,492.370850
	C176.298767,490.278595 182.602676,489.298279 188.644394,489.113098
	C211.292328,488.418884 233.664474,491.685852 255.969666,495.065399
	C288.645966,500.016266 321.205933,505.767242 353.931915,510.344513
	C371.455261,512.795471 389.202850,513.910950 406.890961,514.758423
	C412.448700,515.024658 418.377655,513.068542 423.707153,511.014862
	C429.008972,508.971832 430.219421,505.312531 428.065796,500.006500
	C426.394897,495.889709 424.478333,491.558685 421.563690,488.319092
	C412.568451,478.320953 403.549622,468.242310 393.614227,459.213593
	C374.910004,442.216125 355.453552,426.049713 336.506012,409.315674
	C318.309113,393.244598 300.095978,377.173401 282.422729,360.536377
	C274.469696,353.049622 267.059753,344.625885 263.939636,333.688049
	C263.203674,331.107971 263.511536,327.686005 264.620483,325.229828
	C267.488312,318.878082 273.694031,316.703918 279.874908,315.098907
	C298.700836,310.210449 318.106445,311.517059 337.252594,310.093597
	C352.138794,308.986877 367.073761,308.536377 382.402588,307.851135
	C386.564270,307.256531 390.338287,306.733826 394.051788,305.931213
	C409.961304,302.492737 423.496063,295.523193 429.272400,279.136932
	C432.007538,271.377899 433.498016,263.115112 434.908356,254.969070
	C437.103729,242.289108 440.957367,230.443573 449.841614,220.780914
	C458.457031,211.410629 469.189819,205.086349 480.688751,199.975708
	C500.231476,191.290054 520.887329,186.347336 541.728882,182.085556
	C555.173828,179.336288 568.773743,177.233627 582.072632,173.913696
	C594.903076,170.710709 607.906982,167.406326 619.987061,162.185242
	C637.055847,154.808014 641.991699,142.062119 635.188660,124.647919
	C631.097229,114.174660 625.404175,104.272537 619.868591,94.430016
	C610.174622,77.194038 598.341736,61.154240 591.962341,42.098248
	C588.491272,31.729782 591.215637,21.545576 600.577087,16.040758
	C604.966309,13.459826 609.857117,10.982880 614.792480,10.221726
	C628.996948,8.031051 643.303833,6.044371 657.639099,5.298741
	C670.553955,4.626995 683.561523,5.639246 696.524353,6.033594
	C702.652100,6.220010 708.775879,6.628847 714.892883,7.058512
	C728.264832,7.997772 741.631287,9.014762 755.000000,10.000000
z"/>
<path fill="#EAA8B4" opacity="1.000000" stroke="none"
	d="
M381.987061,307.794220
	C367.073761,308.536377 352.138794,308.986877 337.252594,310.093597 
	C318.106445,311.517059 298.700836,310.210449 279.874908,315.098907 
	C273.694031,316.703918 267.488312,318.878082 264.620483,325.229828 
	C263.511536,327.686005 263.203674,331.107971 263.939636,333.688049 
	C267.059753,344.625885 274.469696,353.049622 282.422729,360.536377 
	C300.095978,377.173401 318.309113,393.244598 336.506012,409.315674 
	C355.453552,426.049713 374.910004,442.216125 393.614227,459.213593 
	C403.549622,468.242310 412.568451,478.320953 421.563690,488.319092 
	C424.478333,491.558685 426.394897,495.889709 428.065796,500.006500 
	C430.219421,505.312531 429.008972,508.971832 423.707153,511.014862 
	C418.377655,513.068542 412.448700,515.024658 406.890961,514.758423 
	C389.202850,513.910950 371.455261,512.795471 353.931915,510.344513 
	C321.205933,505.767242 288.645966,500.016266 255.969666,495.065399 
	C233.664474,491.685852 211.292328,488.418884 188.644394,489.113098 
	C182.602676,489.298279 176.298767,490.278595 170.663605,492.370850 
	C159.991119,496.333405 155.778168,505.768341 158.500748,517.028259 
	C159.320831,520.419922 160.137772,523.812439 160.978073,527.602295 
	C107.708969,528.000000 54.417931,528.000000 1.000000,528.000000
	C1.000000,397.645813 1.000000,267.291565 1.348725,136.437775
	C3.367331,134.862289 5.094810,133.865463 6.698293,132.698288
	C25.118212,119.290459 43.213264,105.408554 62.019566,92.567856
	C77.846931,81.761116 94.613091,72.202515 113.817871,68.696396
	C127.854462,66.133812 141.653229,67.244614 150.511520,80.337135
	C155.077591,87.085747 159.015594,94.952118 160.659042,102.849945
	C164.877045,123.120140 167.599487,143.699356 171.025040,164.137405 
	C173.443085,178.564285 175.603912,193.071106 182.551025,206.277756 
	C188.075485,216.779877 197.356079,221.705887 208.702576,218.064743 
	C219.225449,214.687912 229.801346,210.558411 239.235641,204.896927 
	C259.343994,192.829987 278.658478,179.447189 298.430878,166.811111 
	C312.906464,157.560104 327.749298,149.045990 344.908203,145.517990 
	C360.104980,142.393417 372.818604,148.372314 380.034973,161.969833 
	C387.384003,175.817368 388.570801,190.975540 388.785095,206.028717 
	C389.025635,222.927368 387.670105,239.852600 386.871063,256.759735 
	C386.644226,261.559021 385.911102,266.333130 385.453278,271.122925 
	C384.284882,283.345459 383.140808,295.570312 381.987061,307.794220 
z"/>
<path fill="#FFEF98" opacity="1.000000" stroke="none"
	d="
M382.402588,307.851135
	C383.140808,295.570312 384.284882,283.345459 385.453278,271.122925 
	C385.911102,266.333130 386.644226,261.559021 386.871063,256.759735 
	C387.670105,239.852600 389.025635,222.927368 388.785095,206.028717 
	C388.570801,190.975540 387.384003,175.817368 380.034973,161.969833 
	C372.818604,148.372314 360.104980,142.393417 344.908203,145.517990 
	C327.749298,149.045990 312.906464,157.560104 298.430878,166.811111 
	C278.658478,179.447189 259.343994,192.829987 239.235641,204.896927 
	C229.801346,210.558411 219.225449,214.687912 208.702576,218.064743 
	C197.356079,221.705887 188.075485,216.779877 182.551025,206.277756 
	C175.603912,193.071106 173.443085,178.564285 171.025040,164.137405 
	C167.599487,143.699356 164.877045,123.120140 160.659042,102.849945 
	C159.015594,94.952118 155.077591,87.085747 150.511520,80.337135 
	C141.653229,67.244614 127.854462,66.133812 113.817871,68.696396 
	C94.613091,72.202515 77.846931,81.761116 62.019566,92.567856 
	C43.213264,105.408554 25.118212,119.290459 6.698293,132.698288 
	C5.094810,133.865463 3.367331,134.862289 1.348725,135.969116 
	C1.000000,91.024170 1.000000,46.048344 1.000000,1.036258 
	C252.333328,1.036258 503.666656,1.036258 755.000000,1.029228 
	C755.000000,3.687433 755.000000,6.352668 755.000000,9.508951 
	C741.631287,9.014762 728.264832,7.997772 714.892883,7.058512 
	C708.775879,6.628847 702.652100,6.220010 696.524353,6.033594 
	C683.561523,5.639246 670.553955,4.626995 657.639099,5.298741 
	C643.303833,6.044371 628.996948,8.031051 614.792480,10.221726 
	C609.857117,10.982880 604.966309,13.459826 600.577087,16.040758 
	C591.215637,21.545576 588.491272,31.729782 591.962341,42.098248 
	C598.341736,61.154240 610.174622,77.194038 619.868591,94.430016 
	C625.404175,104.272537 631.097229,114.174660 635.188660,124.647919 
	C641.991699,142.062119 637.055847,154.808014 619.987061,162.185242 
	C607.906982,167.406326 594.903076,170.710709 582.072632,173.913696 
	C568.773743,177.233627 555.173828,179.336288 541.728882,182.085556 
	C520.887329,186.347336 500.231476,191.290054 480.688751,199.975708 
	C469.189819,205.086349 458.457031,211.410629 449.841614,220.780914 
	C440.957367,230.443573 437.103729,242.289108 434.908356,254.969070 
	C433.498016,263.115112 432.007538,271.377899 429.272400,279.136932 
	C423.496063,295.523193 409.961304,302.492737 394.051788,305.931213 
	C390.338287,306.733826 386.564270,307.256531 382.402588,307.851135 
z"/>
</svg>