<svg width="245" height="132" viewBox="0 0 245 132" fill="none" xmlns="http://www.w3.org/2000/svg">
<path fill-rule="evenodd" clip-rule="evenodd" d="M0 17.9306H10.2083C20.4167 17.9306 40.8333 17.9306 61.25 32.6012C81.6667 47.2717 102.083 76.6127 122.5 73.3526C142.917 70.5 163.333 35.4538 183.75 17.9306C204.167 0 224.583 0 234.792 0L245 0V141H234.792C224.583 141 204.167 141 183.75 141C163.333 141 142.917 141 122.5 141C102.083 141 81.6667 141 61.25 141C40.8333 141 20.4167 141 10.2083 141H0L0 17.9306Z" fill="#A0679B"/>
</svg>
