<svg width="1680" height="998" viewBox="0 0 1680 998" fill="none" xmlns="http://www.w3.org/2000/svg">
<g clip-path="url(#clip0_1_2)">
<rect width="1680" height="998" transform="translate(1680 998) rotate(-180)" fill="white"/>
<rect x="1579" y="1098" width="1339" height="1174" transform="rotate(-180 1579 1098)" fill="#FFE9AF"/>
<path fill-rule="evenodd" clip-rule="evenodd" d="M2211.24 1688.79L2082.77 1697.31C1953.45 1703.36 1696.51 1720.38 1650.18 1662.14C1603.84 1603.89 1769.8 1475.3 1887.93 1360.42C2006.06 1245.55 2078.04 1149.31 1961.22 1115.34C1844.4 1081.36 1540.47 1114.57 1329.67 1112.95C1118.88 1111.34 1002.9 1079.82 1027.05 997.305C1051.2 914.791 1217.16 786.195 1217.82 711.771C1218.47 637.347 1055.51 622.009 1126.65 523.316C1197.79 424.622 1504.72 247.487 1481.88 181.153C1459.04 114.819 1108.11 164.2 1014.79 122.136C921.465 80.0712 1087.43 -48.525 1135.07 -139.129C1182.72 -229.732 1113.73 -277.43 1090.89 -343.764C1068.05 -410.098 1093.04 -490.154 1140.69 -580.758C1188.33 -671.362 1260.32 -767.598 1213.98 -825.842C1167.65 -884.087 1004.68 -899.424 981.842 -965.758C959.001 -1032.09 1077.97 -1144.51 1136.62 -1203.17L1196.1 -1259.38L1619.01 -1405L1630 -1373.06C1641.85 -1338.67 1663.84 -1274.79 1686.68 -1208.45C1709.52 -1142.12 1731.52 -1078.24 1754.36 -1011.91C1777.2 -945.576 1799.19 -881.698 1822.03 -815.364C1844.88 -749.031 1866.87 -685.153 1889.71 -618.819C1912.55 -552.485 1934.55 -488.608 1957.39 -422.274C1980.23 -355.94 2002.22 -292.063 2025.06 -225.729C2047.9 -159.395 2069.9 -95.518 2092.74 -29.184C2115.58 37.15 2137.57 101.027 2160.41 167.361C2183.26 233.695 2205.25 297.572 2228.09 363.906C2250.93 430.24 2272.93 494.117 2295.77 560.451C2318.61 626.785 2340.6 690.662 2363.44 756.996C2386.28 823.33 2408.28 887.208 2431.12 953.542C2453.96 1019.88 2475.95 1083.75 2498.79 1150.09C2521.63 1216.42 2543.63 1280.3 2566.47 1346.63C2589.31 1412.97 2611.31 1476.84 2623.15 1511.24L2634.15 1543.18L2211.24 1688.79Z" fill="#B1D3EC"/>
<path fill-rule="evenodd" clip-rule="evenodd" d="M1202.42 -976.303L1097.6 -968.974C992.77 -961.645 783.118 -946.986 711.179 -901.797C639.24 -856.608 705.014 -780.888 692.095 -722.615C679.176 -664.341 587.564 -623.514 554.972 -569.602C522.38 -515.69 548.807 -448.693 653.928 -364.251C759.049 -279.808 942.864 -177.92 929.945 -119.647C917.026 -61.3731 707.374 -46.7144 596.088 -10.2483C484.803 26.2179 471.884 84.4914 517.985 155.849C564.086 227.207 669.207 311.65 656.288 369.923C643.369 428.197 512.41 460.301 460.144 509.852C407.879 559.402 434.307 626.399 500.081 702.118C565.855 777.838 670.977 862.28 677.731 924.915C684.485 987.55 592.873 1028.38 481.587 1064.84C370.302 1101.31 239.343 1133.41 108.384 1165.52C-22.5751 1197.62 -153.534 1229.73 -107.433 1301.09C-61.3318 1372.44 161.829 1483.06 188.257 1550.05C214.685 1617.05 44.3792 1640.43 11.7869 1694.34C-20.8054 1748.25 84.3158 1832.7 71.3968 1890.97C58.4779 1949.24 -72.4811 1981.35 -65.7267 2043.98C-58.9723 2106.62 85.4955 2199.78 72.5766 2258.06C59.6576 2316.33 -110.648 2339.71 -195.801 2351.4L-280.954 2363.09L-517.034 2310.76L-510.574 2281.62C-504.115 2252.48 -491.196 2194.21 -478.277 2135.94C-465.358 2077.66 -452.439 2019.39 -439.52 1961.12C-426.601 1902.84 -413.682 1844.57 -400.763 1786.29C-387.844 1728.02 -374.925 1669.75 -362.007 1611.47C-349.088 1553.2 -336.169 1494.93 -323.25 1436.65C-310.331 1378.38 -297.412 1320.11 -284.493 1261.83C-271.574 1203.56 -258.655 1145.29 -245.736 1087.01C-232.817 1028.74 -219.898 970.466 -206.979 912.192C-194.06 853.919 -181.142 795.645 -168.223 737.372C-155.304 679.098 -142.385 620.825 -129.466 562.551C-116.547 504.278 -103.628 446.004 -90.709 387.731C-77.7901 329.457 -64.8712 271.184 -51.9523 212.91C-39.0333 154.637 -26.1144 96.3631 -13.1955 38.0896C-0.276552 -20.184 12.6424 -78.4575 25.5613 -136.731C38.4802 -195.005 51.3992 -253.278 64.3181 -311.552C77.237 -369.825 90.1559 -428.099 103.075 -486.372C115.994 -544.646 128.913 -602.919 141.832 -661.193C154.751 -719.466 167.67 -777.74 180.588 -836.013C193.507 -894.287 206.426 -952.56 219.345 -1010.83C232.264 -1069.11 245.183 -1127.38 251.643 -1156.52L258.102 -1185.65L1202.42 -976.303Z" fill="#F7C6CC"/>
<g clip-path="url(#clip1_1_2)">
<path fill-rule="evenodd" clip-rule="evenodd" d="M1275.84 438.025C1279.21 435.19 1283.96 435.115 1286.7 437.279L1313.41 458.356L1340.63 447.081L1338.06 440.863C1336.92 438.114 1337.17 434.924 1338.74 431.994C1340.32 429.064 1343.1 426.633 1346.47 425.238L1349.01 424.185C1350.36 423.627 1351.83 423.529 1353.1 423.911C1354.38 424.294 1355.35 425.127 1355.81 426.226C1356.26 427.325 1356.16 428.601 1355.53 429.774C1354.9 430.946 1353.79 431.918 1352.44 432.476L1349.9 433.528C1349.23 433.807 1348.67 434.293 1348.36 434.88C1348.04 435.466 1347.99 436.104 1348.22 436.653L1352.51 447.017C1356.48 456.609 1355.78 467.708 1350.53 478.01C1352.94 477.898 1355.24 478.352 1357.19 479.325C1359.15 480.298 1360.68 481.753 1361.64 483.537C1362.59 485.321 1362.93 487.368 1362.62 489.46C1362.3 491.553 1361.35 493.615 1359.85 495.427C1358.36 497.24 1356.38 498.736 1354.12 499.758C1351.87 500.78 1349.42 501.29 1347.04 501.234C1344.66 501.178 1342.44 500.558 1340.6 499.439C1338.77 498.321 1337.39 496.746 1336.62 494.88L1336.59 494.818C1327.91 501.747 1317.15 506.204 1306.11 507.446L1306.13 507.508C1306.9 509.374 1307.04 511.462 1306.54 513.55C1306.03 515.638 1304.9 517.65 1303.25 519.372C1301.61 521.094 1299.52 522.463 1297.2 523.335C1294.89 524.206 1292.43 524.548 1290.09 524.323C1287.75 524.098 1285.62 523.316 1283.92 522.059C1282.21 520.801 1281.01 519.115 1280.42 517.179C1279.83 515.243 1279.89 513.128 1280.58 511.058C1281.28 508.987 1282.58 507.039 1284.36 505.418C1277.34 503.13 1271.33 499.279 1266.86 494.205C1262.4 489.13 1259.63 482.989 1258.78 476.326C1257.94 469.662 1259.06 462.681 1262.03 456C1265.01 449.32 1269.75 443.146 1275.84 438.025ZM1280.73 446.004C1276.26 450.253 1272.93 455.253 1271.03 460.556C1269.14 465.86 1268.73 471.302 1269.86 476.395L1302.24 462.984L1280.73 446.004Z" fill="white" fill-opacity="0.38"/>
</g>
<g clip-path="url(#clip2_1_2)">
<path d="M1542.99 526.763L1540.21 525.32L1542.99 526.767L1542.99 526.763ZM1558.8 542.232L1561.06 540.054L1558.8 542.236L1558.8 542.232ZM1574.46 538.63L1571.45 537.788L1574.46 538.626L1574.46 538.63ZM1552.14 508.791L1553.78 509.123L1555 502.928L1553.36 502.6L1552.14 508.791ZM1562.84 507.021L1564.14 506.02L1560.35 501.007L1559.05 502.012L1562.84 507.021ZM1572.68 509.876L1572.94 511.551L1579.11 510.581L1578.86 508.902L1572.68 509.876ZM1577.88 519.59L1579.26 520.58L1582.87 515.412L1581.49 514.431L1577.88 519.59ZM1578.89 529.886L1577.41 530.597L1580.09 536.3L1581.57 535.586L1578.89 529.886ZM1571.44 537.792L1571 539.407L1577.02 541.078L1577.47 539.472L1571.45 537.792L1571.44 537.792ZM1562.23 541.3L1561.06 540.058L1556.53 544.418L1557.71 545.66L1562.23 541.3ZM1552.47 536.341L1550.81 536.353L1550.85 542.665L1552.5 542.652L1552.47 536.341ZM1545.76 528.21L1546.52 526.735L1540.97 523.845L1540.21 525.329L1545.76 528.21ZM1547.07 517.325L1546.49 515.721L1540.62 517.893L1541.2 519.501L1547.07 517.325ZM1546.52 526.735C1547.23 525.352 1548.06 523.856 1548.16 522.131L1541.92 521.786L1541.91 521.836C1541.88 521.94 1541.85 522.042 1541.8 522.141C1541.54 522.72 1541.27 523.29 1540.97 523.849L1546.52 526.735ZM1541.2 519.497C1541.43 520.111 1541.65 520.737 1541.84 521.366C1541.87 521.502 1541.9 521.641 1541.92 521.782L1548.16 522.131C1548.26 520.431 1547.62 518.833 1547.07 517.325L1541.2 519.497ZM1550.81 536.353C1547.5 536.376 1545.38 536.385 1543.9 536.172C1543.45 536.124 1543 536.003 1542.59 535.813L1542.57 535.798L1542.57 535.789L1537.25 539.128C1538.63 541.37 1540.91 542.119 1543 542.42C1545.06 542.713 1547.74 542.685 1550.85 542.665L1550.81 536.353ZM1540.21 525.329C1538.8 528.086 1537.56 530.483 1536.9 532.459C1536.22 534.485 1535.87 536.876 1537.25 539.128L1542.57 535.789C1542.55 535.775 1542.56 535.78 1542.56 535.789C1542.56 535.789 1542.56 535.767 1542.56 535.686C1542.58 535.269 1542.67 534.857 1542.82 534.467C1543.3 533.058 1544.25 531.161 1545.76 528.21L1540.21 525.329ZM1561.06 540.058C1559.96 538.892 1558.83 537.609 1557.28 536.935L1554.8 542.734C1554.93 542.817 1555.04 542.909 1555.15 543.01C1555.47 543.299 1555.86 543.701 1556.53 544.418L1561.06 540.058ZM1552.5 542.652C1553.46 542.647 1554 542.646 1554.4 542.674C1554.54 542.683 1554.67 542.703 1554.8 542.734L1557.28 536.935C1555.72 536.256 1554.03 536.329 1552.47 536.341L1552.5 542.652ZM1571 539.407C1570.11 542.629 1569.54 544.687 1568.94 546.043C1568.34 547.376 1568.12 547.131 1568.41 547.061L1569.79 553.215C1572.42 552.614 1573.79 550.537 1574.64 548.615C1575.48 546.718 1576.19 544.099 1577.02 541.087L1571 539.407ZM1557.7 545.66C1559.9 547.983 1561.78 549.988 1563.42 551.29C1565.06 552.6 1567.2 553.813 1569.79 553.215L1568.41 547.061C1568.66 547.004 1568.5 547.287 1567.29 546.329C1566.09 545.372 1564.57 543.774 1562.23 541.3L1557.71 545.66L1557.7 545.66ZM1577.41 530.597C1576.04 531.251 1574.46 531.945 1573.36 533.277L1578.14 537.315C1578.11 537.354 1578.13 537.309 1578.42 537.137C1578.76 536.941 1579.23 536.71 1580.09 536.296L1577.41 530.597ZM1577.47 539.472C1577.73 538.539 1577.87 538.017 1578.01 537.639C1578.13 537.309 1578.17 537.28 1578.14 537.315L1573.36 533.277C1572.26 534.596 1571.86 536.301 1571.44 537.792L1577.47 539.472ZM1579.26 520.576C1582.02 522.541 1583.8 523.82 1584.92 524.887C1585.26 525.181 1585.55 525.524 1585.79 525.904C1585.81 525.937 1585.82 525.973 1585.83 526.011L1585.84 525.99L1592.07 526.334C1592.22 523.697 1590.75 521.757 1589.22 520.294C1587.7 518.845 1585.47 517.263 1582.88 515.417L1579.26 520.58L1579.26 520.576ZM1581.57 535.586C1584.33 534.259 1586.74 533.113 1588.44 531.948C1590.18 530.754 1591.92 529.036 1592.07 526.334L1585.84 525.99L1585.83 525.973C1585.84 525.96 1585.84 525.948 1585.85 525.936C1585.86 525.912 1585.86 525.92 1585.82 525.967C1585.57 526.266 1585.27 526.524 1584.93 526.729C1583.73 527.555 1581.85 528.466 1578.89 529.886L1581.57 535.586ZM1572.94 511.551C1573.18 513.14 1573.38 514.834 1574.27 516.282L1579.59 512.944C1579.59 512.944 1579.53 512.87 1579.45 512.514C1579.31 511.874 1579.2 511.229 1579.11 510.581L1572.94 511.551ZM1581.49 514.431C1579.76 513.2 1579.65 513.052 1579.59 512.944L1574.27 516.282C1575.16 517.73 1576.57 518.659 1577.88 519.59L1581.49 514.431ZM1564.14 506.02C1566.74 504.01 1568.4 502.74 1569.67 502.032C1570.01 501.824 1570.38 501.67 1570.76 501.576L1570.82 501.57L1570.79 501.566L1573.27 495.767C1570.83 494.704 1568.53 495.477 1566.69 496.498C1564.88 497.49 1562.78 499.131 1560.35 501.007L1564.14 506.02ZM1578.86 508.902C1578.38 505.758 1577.97 503.043 1577.36 501.028C1576.74 498.984 1575.67 496.809 1573.27 495.767L1570.79 501.566L1570.79 501.562L1570.81 501.581C1571.07 501.982 1571.26 502.422 1571.38 502.884C1571.83 504.36 1572.17 506.526 1572.68 509.876L1578.86 508.902ZM1553.78 509.123C1555.3 509.425 1556.98 509.829 1558.64 509.443L1557.26 503.293C1557.3 503.285 1557.25 503.313 1556.9 503.27C1556.49 503.226 1555.96 503.121 1555 502.928L1553.78 509.123ZM1559.05 502.012C1558.56 502.401 1558.06 502.773 1557.55 503.126C1557.27 503.307 1557.21 503.301 1557.26 503.293L1558.64 509.448C1560.31 509.059 1561.64 507.956 1562.84 507.021L1559.05 502.012ZM1553.37 502.605C1550.3 501.99 1547.65 501.45 1545.59 501.351C1543.51 501.25 1541.05 501.535 1539.32 503.628L1544.12 507.667C1543.92 507.907 1543.81 507.586 1545.28 507.658C1546.77 507.728 1548.87 508.136 1552.14 508.791L1553.36 502.6L1553.37 502.605ZM1546.49 515.721C1545.34 512.516 1544.59 510.445 1544.28 508.938C1543.97 507.43 1544.3 507.446 1544.12 507.667L1539.32 503.628C1537.61 505.693 1537.73 508.182 1538.16 510.245C1538.59 512.302 1539.53 514.886 1540.62 517.893L1546.49 515.721ZM1584.4 530.125C1585.43 531.17 1586.97 532.109 1588.63 532.943C1590.36 533.81 1592.49 534.691 1594.91 535.544C1599.74 537.25 1605.88 538.892 1612.6 540.094L1613.71 533.873C1607.28 532.725 1601.47 531.165 1596.98 529.585C1594.73 528.789 1592.86 528.008 1591.42 527.287C1589.91 526.529 1589.12 525.96 1588.83 525.671L1584.4 530.125ZM1609.32 583.91C1602.14 580.339 1594.71 574.554 1588.47 567.679C1582.24 560.793 1577.38 553.001 1575.15 545.513L1569.16 547.342C1571.74 555.994 1577.2 564.589 1583.86 571.945C1590.53 579.309 1598.57 585.609 1606.54 589.575L1609.32 583.91ZM1617.45 546.378L1616.52 554.904L1622.73 555.584L1623.67 547.055L1617.45 546.378ZM1616.52 554.908L1614.53 573.03L1620.75 573.711L1622.73 555.584L1616.52 554.904L1616.52 554.908ZM1614.53 573.03L1613.72 580.489L1619.93 581.17L1620.75 573.711L1614.53 573.03ZM1619.97 552.111C1616.26 551.704 1608.51 549.429 1600.5 545.682C1592.46 541.918 1584.83 536.972 1580.87 531.58L1575.84 535.348C1580.76 542.042 1589.58 547.529 1597.86 551.409C1606.18 555.304 1614.63 557.876 1619.28 558.386L1619.97 552.111ZM1606.54 589.575C1607.95 590.305 1609.53 590.63 1611.12 590.516C1612.7 590.401 1614.22 589.851 1615.52 588.925C1617.97 587.216 1619.58 584.357 1619.93 581.17L1613.72 580.489C1613.55 582.016 1612.8 583.157 1611.97 583.744C1611.59 584.027 1611.14 584.194 1610.66 584.224C1610.19 584.254 1609.72 584.147 1609.31 583.914L1606.54 589.575ZM1612.6 540.094C1615.68 540.642 1617.78 543.425 1617.45 546.383L1623.67 547.063C1624.37 540.591 1619.8 534.964 1613.71 533.873L1612.6 540.094ZM1617.98 570.233C1617.35 570.163 1616.18 569.858 1614.49 569.203C1612.86 568.567 1610.91 567.667 1608.75 566.542C1603.85 563.964 1599.18 560.986 1594.77 557.636C1590.07 554.061 1585.81 550.101 1582.86 546.15C1579.86 542.129 1578.54 538.564 1578.86 535.636L1572.64 534.955C1572.06 540.247 1574.49 545.436 1577.86 549.959C1581.29 554.547 1586.04 558.907 1591 562.68C1595.69 566.244 1600.66 569.412 1605.87 572.153C1607.94 573.247 1610.06 574.229 1612.23 575.094C1614.08 575.804 1615.84 576.349 1617.3 576.508L1617.98 570.233Z" fill="white" fill-opacity="0.38"/>
</g>
<path d="M1611.67 721.774C1619.19 721.667 1622.96 721.612 1624.15 723.777C1625.33 725.946 1623.16 728.904 1618.81 734.807L1617.69 736.336C1616.46 738.016 1615.84 738.858 1615.63 739.777C1615.43 740.706 1615.66 741.608 1616.12 743.417L1616.55 745.065C1618.18 751.433 1619 754.617 1616.91 756.533C1614.82 758.447 1611.21 757.825 1603.98 756.583L1602.11 756.261C1600.05 755.907 1599.03 755.728 1597.99 755.942C1596.96 756.152 1596.03 756.727 1594.18 757.873L1592.49 758.919C1585.98 762.964 1582.72 764.986 1580.24 764C1577.76 763.016 1577.7 759.676 1577.58 753.003L1577.55 751.275C1577.51 749.379 1577.49 748.434 1577.06 747.637C1576.62 746.841 1575.82 746.293 1574.21 745.193L1572.75 744.193C1567.09 740.324 1564.25 738.391 1564.81 735.865C1565.37 733.342 1568.95 731.9 1576.1 729.02L1577.95 728.272C1579.99 727.455 1581 727.046 1581.77 726.343C1582.53 725.641 1582.96 724.728 1583.82 722.901L1584.6 721.233C1587.61 714.8 1589.12 711.584 1591.95 711.01C1594.78 710.433 1597.05 712.881 1601.59 717.775L1602.76 719.04C1604.05 720.432 1604.7 721.129 1605.6 721.486C1606.51 721.852 1607.58 721.833 1609.72 721.803L1611.67 721.778L1611.67 721.774ZM1558.28 740.576C1540.88 742.554 1521.01 751.461 1508.2 762.129C1504.05 765.591 1505.44 770.936 1510.09 773.075L1514.36 775.039C1515.22 773.638 1516.62 772.054 1518.25 770.458C1519.92 768.82 1521.99 766.995 1524.35 765.104C1529.69 760.833 1535.36 756.943 1541.3 753.471C1547.59 749.813 1554.4 746.555 1560.8 744.703L1561.28 744.568C1560 743.444 1558.98 742.09 1558.28 740.576ZM1568.36 749.807C1566.57 749.979 1564.57 750.38 1562.38 751.015C1556.86 752.607 1550.7 755.513 1544.74 758.984C1539.15 762.247 1533.82 765.904 1528.8 769.917C1526.6 771.685 1524.73 773.332 1523.29 774.751C1521.81 776.21 1520.93 777.27 1520.55 777.888L1532.25 783.27C1535 778.785 1541.72 771.217 1549.74 764.231C1555.62 759.108 1562.56 753.991 1569.52 750.607L1568.36 749.807ZM1570.46 757.406C1565.11 760.29 1559.55 764.393 1554.43 768.846C1546.71 775.566 1540.64 782.54 1538.44 786.119L1543.76 788.568C1548.41 790.707 1554.37 788.809 1557.41 784.51C1562.64 777.115 1568.09 770.792 1572.49 766.536C1571.71 765.252 1571.18 763.837 1570.92 762.349C1570.65 760.723 1570.49 759.07 1570.46 757.406Z" fill="white" fill-opacity="0.52"/>
<path d="M403.694 411.873C409.406 411.873 414.262 410.397 418.262 407.447C422.262 404.497 424.26 400.916 424.257 396.705C424.257 392.492 422.257 388.91 418.257 385.96C414.257 383.01 409.403 381.536 403.694 381.538C397.983 381.538 393.127 383.013 389.127 385.963C385.127 388.914 383.129 392.494 383.132 396.705C383.132 400.918 385.132 404.5 389.132 407.45C393.131 410.401 397.986 411.875 403.694 411.873ZM398.668 392.998L401.638 388.279C402.019 387.605 402.704 387.268 403.694 387.268C404.684 387.268 405.37 387.605 405.751 388.279L408.721 392.998L415.118 395.189C416.032 395.469 416.489 395.975 416.489 396.705C416.489 397.436 416.032 397.941 415.118 398.222L408.721 400.413L405.751 405.132C405.37 405.806 404.684 406.143 403.694 406.143C402.704 406.143 402.019 405.806 401.638 405.132L398.668 400.413L392.271 398.222C391.357 397.941 390.9 397.436 390.9 396.705C390.9 395.975 391.357 395.469 392.271 395.189L398.668 392.998ZM367.139 423.669C364.626 423.669 362.473 423.009 360.682 421.688C358.891 420.366 357.997 418.78 358 416.928L358 376.482C358 374.628 358.896 373.041 360.687 371.72C362.478 370.398 364.629 369.739 367.139 369.741L381.533 369.741L387.244 365.191C388.082 364.461 389.092 363.912 390.274 363.546C391.456 363.18 392.691 362.998 393.98 363L413.4 363C414.695 363 415.933 363.183 417.115 363.549C418.297 363.916 419.305 364.463 420.14 365.191L425.856 369.741L440.25 369.741C442.763 369.741 444.915 370.402 446.707 371.723C448.498 373.044 449.392 374.631 449.389 376.482L449.389 416.928C449.389 418.782 448.493 420.37 446.702 421.691C444.911 423.012 442.76 423.672 440.25 423.669L367.139 423.669Z" fill="white" fill-opacity="0.38"/>
<path d="M1374.65 28.4834C1377.86 24.7237 1376.91 18.6873 1372.52 14.9403C1368.14 11.1932 1362.03 11.2033 1358.82 14.963C1355.6 18.7227 1356.55 24.759 1360.94 28.5061C1365.33 32.2532 1371.44 32.243 1374.65 28.4834ZM1419.71 53.5667L1437.8 69.0186L1424.56 84.5224L1406.47 69.0705L1399.85 76.8224L1378.87 42.9519C1377.8 41.1987 1377.25 39.2464 1377.31 37.354C1377.36 35.4616 1378.02 33.7185 1379.18 32.3561C1380.34 30.9938 1381.96 30.0765 1383.82 29.726C1385.68 29.3755 1387.7 29.6084 1389.6 30.3938L1426.33 45.8148L1419.71 53.5667Z" fill="white" fill-opacity="0.38"/>
<g clip-path="url(#clip3_1_2)">
<path d="M312.3 21.3514L302.764 11.6471C301.544 10.4059 299.322 10.5931 297.826 12.063L295.106 14.7357C293.611 16.2057 293.385 18.424 294.604 19.6652L298.153 23.2761L282.443 25.4058C280.655 25.6541 279.078 27.2043 278.798 28.9872L272.761 68.3247C272.501 69.9105 274.337 70.6356 275.588 69.4061L280.211 64.8625L295.736 80.6602C296.955 81.9014 299.177 81.7142 300.673 80.2443L308.832 72.2262C310.328 70.7562 310.554 68.5379 309.334 67.2967L298.246 56.0127L309.125 45.3219L320.213 56.6059C321.433 57.8471 323.655 57.6599 325.151 56.19L333.31 48.1719C334.806 46.7019 335.032 44.4836 333.812 43.2424L318.288 27.4448L322.912 22.9012C324.163 21.6717 323.497 19.7974 321.88 20.0558L312.3 21.3514ZM289.375 46.9854C286.935 44.503 287.387 40.0664 290.379 37.1264C293.37 34.1865 297.814 33.8122 300.254 36.2946L289.375 46.9854Z" fill="white" fill-opacity="0.38"/>
</g>
<path d="M1337.74 663.907C1337.48 663.895 1337.23 663.944 1337 664.048C1336.78 664.152 1336.58 664.309 1336.44 664.501C1332.7 669.61 1332.59 674.306 1332.59 674.375C1332.59 674.765 1332.69 675.151 1332.88 675.503C1333.07 675.855 1333.34 676.164 1333.68 676.409C1334.01 676.654 1334.41 676.828 1334.83 676.918C1335.25 677.009 1335.69 677.013 1336.11 676.931C1336.77 676.788 1337.36 676.447 1337.77 675.963C1338.19 675.48 1338.41 674.883 1338.41 674.27C1338.42 673.911 1338.52 673.558 1338.69 673.234C1338.86 672.909 1339.1 672.62 1339.4 672.384C1339.7 672.147 1340.05 671.969 1340.43 671.86C1340.81 671.751 1341.21 671.713 1341.6 671.75C1342.33 671.826 1343 672.145 1343.49 672.644C1343.97 673.143 1344.23 673.787 1344.22 674.45C1344.21 676.539 1343.27 678.537 1341.63 680.006C1339.99 681.474 1337.76 682.293 1335.45 682.281C1333.14 682.269 1330.93 681.428 1329.3 679.943C1327.67 678.458 1326.77 676.45 1326.78 674.361C1326.78 674.155 1326.81 670.824 1328.76 666.486C1328.86 666.265 1328.88 666.022 1328.84 665.787C1328.8 665.551 1328.69 665.33 1328.51 665.148C1328.34 664.965 1328.12 664.829 1327.87 664.754C1327.62 664.678 1327.35 664.665 1327.09 664.718C1318.53 666.495 1310.91 670.907 1305.56 677.199C1300.21 683.491 1297.44 691.269 1297.74 699.201C1298.44 717.267 1314.88 731.796 1334.89 732.092C1344.76 732.228 1354.3 728.869 1361.47 722.732C1368.63 716.595 1372.85 708.169 1373.22 699.257C1373.59 690.346 1370.09 681.656 1363.46 675.049C1356.83 668.442 1347.59 664.443 1337.74 663.907ZM1318.06 697.97C1318.06 697.191 1318.32 696.43 1318.8 695.783C1319.28 695.135 1319.96 694.63 1320.75 694.332C1321.55 694.034 1322.43 693.956 1323.27 694.108C1324.12 694.26 1324.89 694.635 1325.5 695.186C1326.11 695.737 1326.53 696.438 1326.7 697.202C1326.87 697.966 1326.78 698.757 1326.45 699.477C1326.12 700.196 1325.56 700.811 1324.84 701.244C1324.13 701.677 1323.28 701.908 1322.42 701.908C1321.27 701.908 1320.16 701.493 1319.34 700.754C1318.52 700.016 1318.06 699.014 1318.06 697.97ZM1347.22 715.941C1343.71 717.922 1339.64 718.972 1335.5 718.972C1331.35 718.972 1327.29 717.922 1323.78 715.941C1323.12 715.57 1322.66 714.979 1322.49 714.3C1322.32 713.621 1322.46 712.908 1322.87 712.319C1323.28 711.73 1323.93 711.312 1324.69 711.159C1325.44 711.005 1326.23 711.127 1326.88 711.499C1329.47 712.95 1332.45 713.719 1335.5 713.719C1338.55 713.719 1341.53 712.95 1344.12 711.499C1344.44 711.315 1344.8 711.19 1345.18 711.132C1345.56 711.073 1345.94 711.082 1346.31 711.159C1346.69 711.235 1347.04 711.376 1347.35 711.576C1347.66 711.775 1347.93 712.027 1348.13 712.319C1348.33 712.611 1348.47 712.936 1348.54 713.276C1348.6 713.616 1348.59 713.964 1348.51 714.3C1348.42 714.637 1348.27 714.955 1348.05 715.236C1347.83 715.518 1347.55 715.758 1347.22 715.941ZM1348.58 701.908C1347.72 701.908 1346.87 701.677 1346.16 701.244C1345.44 700.811 1344.88 700.196 1344.55 699.477C1344.22 698.757 1344.13 697.966 1344.3 697.202C1344.47 696.438 1344.89 695.737 1345.5 695.186C1346.1 694.635 1346.88 694.26 1347.73 694.108C1348.57 693.956 1349.45 694.034 1350.25 694.332C1351.04 694.63 1351.72 695.135 1352.2 695.783C1352.68 696.43 1352.94 697.191 1352.94 697.97C1352.94 699.014 1352.48 700.016 1351.66 700.754C1350.84 701.493 1349.73 701.908 1348.58 701.908Z" fill="white" fill-opacity="0.38"/>
<g clip-path="url(#clip4_1_2)">
<path d="M382.875 217.333C378.094 217.333 374.085 215.456 370.85 211.701C367.614 207.946 365.998 203.296 366 197.75C366 192.201 367.646 187.55 370.938 183.795C374.229 180.04 378.209 178.164 382.875 178.167C387.206 178.167 390.849 179.668 393.803 182.671C396.758 185.674 398.627 189.394 399.413 193.833L401.606 193.833L395.531 174.25L389.625 174.25L389.625 166.417L406.5 166.417L406.5 174.25L402.788 174.25L403.969 178.167L420.169 178.167L415.275 162.5L406.5 162.5L406.5 154.667L415.275 154.667C416.738 154.667 418.046 155.124 419.2 156.038C420.354 156.951 421.184 158.192 421.687 159.758L427.425 177.971L430.125 177.971C434.794 177.971 438.774 179.881 442.066 183.701C445.358 187.521 447.002 192.139 447 197.554C447 203.037 445.369 207.705 442.106 211.556C438.844 215.408 434.85 217.333 430.125 217.333C426.075 217.333 422.517 215.865 419.45 212.927C416.383 209.99 414.429 206.236 413.588 201.667L399.413 201.667C398.625 206.171 396.713 209.909 393.675 212.88C390.638 215.852 387.038 217.336 382.875 217.333ZM382.875 201.667L392.325 201.667L392.325 193.833L382.875 193.833L382.875 201.667ZM408.863 193.833L413.588 193.833C413.869 192.332 414.249 190.928 414.728 189.623C415.208 188.317 415.84 187.11 416.625 186L406.331 186L408.863 193.833ZM426.75 199.121L433.162 196.379L429.787 186L423.544 188.742L426.75 199.121Z" fill="white" fill-opacity="0.54"/>
</g>
<path d="M1221.64 58.5137C1220.16 57.808 1218.49 57.5809 1216.85 57.861C1215.2 58.1411 1213.66 58.9159 1212.4 60.0874C1211.15 61.2589 1210.24 62.7744 1209.8 64.4424C1209.36 66.1103 1209.4 67.8558 1209.92 69.4581C1210.44 71.0603 1211.42 72.4474 1212.72 73.4439C1214.03 74.4404 1215.61 75.0015 1217.26 75.0564C1218.91 75.1112 1220.56 74.6573 1222 73.752C1223.44 72.8468 1224.61 71.5308 1225.35 69.9705C1226.35 67.8778 1226.52 65.4965 1225.82 63.3488C1225.12 61.2011 1223.62 59.4623 1221.64 58.5137ZM1214.9 72.6347C1213.73 72.0775 1212.76 71.1675 1212.12 70.0197C1211.47 68.8719 1211.18 67.5379 1211.28 66.1864C1211.37 64.8349 1211.85 63.5266 1212.66 62.4269C1213.46 61.3272 1214.55 60.4856 1215.8 60.0084C1217.04 59.5312 1218.37 59.4398 1219.63 59.746C1220.89 60.0521 1222.02 60.7419 1222.88 61.7281C1223.73 62.7144 1224.27 63.9528 1224.43 65.2868C1224.59 66.6207 1224.37 67.9903 1223.78 69.2224C1223.39 70.0408 1222.85 70.7784 1222.19 71.393C1221.53 72.0076 1220.77 72.4871 1219.95 72.8042C1219.12 73.1214 1218.25 73.2698 1217.39 73.2412C1216.52 73.2125 1215.68 73.0072 1214.9 72.6372L1214.9 72.6347ZM1219.76 67.3067C1219.57 67.701 1219.28 68.0336 1218.92 68.2624C1218.55 68.4912 1218.13 68.6059 1217.72 68.5921C1217.3 68.5783 1216.9 68.4365 1216.57 68.1847C1216.24 67.9329 1215.99 67.5824 1215.86 67.1775C1215.73 66.7726 1215.72 66.3316 1215.83 65.9101C1215.94 65.4885 1216.17 65.1056 1216.49 64.8095C1216.81 64.5135 1217.2 64.3177 1217.61 64.2469C1218.03 64.1761 1218.45 64.2335 1218.82 64.4118C1219.32 64.6509 1219.7 65.0902 1219.88 65.6331C1220.06 66.176 1220.01 66.778 1219.76 67.3067ZM1163.21 40.3344C1163.96 38.7741 1164.25 37.0396 1164.04 35.3503C1163.84 33.6609 1163.15 32.0926 1162.07 30.8436C1160.99 29.5946 1159.56 28.721 1157.96 28.3333C1156.37 27.9456 1154.68 28.0612 1153.1 28.6655C1151.53 29.2699 1150.15 30.3357 1149.13 31.7283C1148.11 33.1209 1147.5 34.7778 1147.38 36.4893C1147.26 38.2008 1147.63 39.8902 1148.45 41.3438C1149.27 42.7973 1150.49 43.9498 1151.97 44.6555C1153.95 45.5988 1156.25 45.6737 1158.36 44.8636C1160.47 44.0535 1162.21 42.4247 1163.21 40.3344ZM1152.76 42.996C1151.59 42.4388 1150.63 41.5287 1149.98 40.3809C1149.34 39.2331 1149.04 37.8991 1149.14 36.5476C1149.24 35.1961 1149.72 33.8878 1150.52 32.7882C1151.32 31.6885 1152.42 30.8469 1153.66 30.3697C1154.9 29.8926 1156.23 29.8013 1157.5 30.1074C1158.76 30.4135 1159.88 31.1033 1160.74 32.0896C1161.59 33.0758 1162.13 34.3142 1162.3 35.6482C1162.46 36.9821 1162.23 38.3518 1161.64 39.5838C1161.25 40.4023 1160.71 41.1399 1160.05 41.7545C1159.4 42.3691 1158.63 42.8486 1157.81 43.1657C1156.98 43.4828 1156.11 43.6312 1155.25 43.6025C1154.38 43.5739 1153.54 43.3686 1152.76 42.9985L1152.76 42.996ZM1228.67 73.1843C1229.64 71.6272 1230.3 69.8941 1230.6 68.092C1230.91 66.2899 1230.86 64.457 1230.45 62.7065C1230.05 60.956 1229.3 59.3249 1228.24 57.9139C1227.19 56.5029 1225.86 55.342 1224.34 54.5027C1222.81 53.6634 1221.12 53.1635 1219.38 53.034C1217.63 52.9045 1215.86 53.148 1214.18 53.7495C1212.49 54.3511 1210.93 55.2979 1209.59 56.5315C1208.25 57.7652 1207.16 59.2595 1206.38 60.9223C1205.51 62.7592 1205.04 64.7622 1205.01 66.7783L1163.53 46.9937C1165.14 45.6592 1166.44 43.9646 1167.32 42.0471C1168.2 40.1297 1168.64 38.0432 1168.6 35.9569C1168.56 33.8705 1168.05 31.8429 1167.11 30.0382C1166.16 28.2336 1164.8 26.7027 1163.15 25.5696C1161.5 24.4364 1159.6 23.7329 1157.6 23.516C1155.6 23.2991 1153.56 23.5749 1151.64 24.3211C1149.72 25.0673 1147.99 26.2629 1146.57 27.811C1145.15 29.3591 1144.09 31.2163 1143.47 33.2319C1139.17 28.2125 1137.54 22.5778 1140.52 16.3235C1143.61 9.84479 1166.46 9.55641 1178.43 14.7399L1174.77 22.3973C1174.07 23.8763 1173.95 25.5605 1174.44 27.0794C1174.93 28.5982 1176 29.8272 1177.4 30.4962L1187.52 35.3228C1188.77 35.9168 1190.2 36.0235 1191.56 35.6237C1192.92 35.224 1194.12 34.3438 1194.94 33.14C1194.94 33.14 1196.92 28.1089 1196.23 26.7167L1197.22 26.4923L1199.43 35.2849L1219.47 44.8436C1233.1 51.339 1241.65 61.8814 1238.56 68.3601C1237.13 71.3504 1233.5 72.9493 1228.67 73.1843ZM1157.62 37.6655C1157.44 38.0598 1157.14 38.3923 1156.78 38.6211C1156.41 38.8499 1156 38.9646 1155.58 38.9507C1155.16 38.9368 1154.76 38.795 1154.43 38.5432C1154.1 38.2914 1153.86 37.9409 1153.73 37.536C1153.59 37.1311 1153.58 36.6901 1153.69 36.2686C1153.81 35.8471 1154.04 35.4641 1154.35 35.1681C1154.67 34.8721 1155.06 34.6763 1155.47 34.6055C1155.89 34.5347 1156.31 34.5921 1156.69 34.7704C1156.93 34.8889 1157.15 35.0579 1157.34 35.2677C1157.52 35.4775 1157.66 35.724 1157.74 35.9931C1157.83 36.2622 1157.87 36.5486 1157.84 36.836C1157.82 37.1234 1157.75 37.4061 1157.62 37.668L1157.62 37.6655Z" fill="white" fill-opacity="0.39"/>
<g clip-path="url(#clip5_1_2)">
<path d="M1624.23 243.054C1622.61 242.216 1620.99 243.15 1621.34 245.919L1627.11 248.21C1626.77 245.439 1625.5 243.714 1624.23 243.054ZM1614.64 240.221C1613.86 239.78 1613.05 239.606 1612.3 239.673C1610.1 239.872 1608.58 242.317 1610.68 246.67C1606.77 248.958 1598.49 252.737 1592.02 248.352L1598 254.494C1597.2 254.497 1596.35 254.441 1595.4 254.301C1561.8 220.542 1523.02 242.664 1523.02 242.664C1525.97 264.083 1511.97 264.383 1511.97 264.383L1506.1 278.872L1512.53 282.5L1518.2 274.112C1518.2 274.112 1525.82 277.561 1539.87 268.448C1545.16 274.201 1554.62 279.339 1562.38 282.074L1560.6 283.08L1550.91 280.75C1557.54 285.279 1564.25 287.623 1569.51 288.837C1570.58 285.172 1572.31 281.517 1576.67 277.958L1565.48 312.364L1571.26 315.625C1571.26 315.625 1579.3 298.967 1596.29 289.192C1598.35 288.149 1600.22 287.138 1602.08 285.761L1601.19 288.392L1596.04 292.044C1596.04 292.044 1606.64 293.588 1614.16 275.139C1618.83 278.871 1624.14 281.245 1629.59 282.539C1630.97 282.841 1632.41 282.491 1633.42 281.591C1636.42 278.876 1639.47 275.819 1641.46 272.76L1639.2 271.71C1641 268.405 1636.05 266.232 1635.77 270.005L1633.37 268.791L1634.15 264.851C1634.15 264.851 1639.41 264.342 1643.58 268.163C1643.76 267.364 1643.81 266.6 1643.75 265.829C1643.18 259.632 1634.99 253.032 1618.31 247.073C1618 243.442 1616.39 241.196 1614.64 240.221ZM1621.69 253.756C1624.29 255.617 1626.06 257.435 1627.27 259.616L1623.72 257.614C1622.79 258.442 1621.03 258.471 1619.47 257.59C1617.91 256.708 1617.03 255.194 1617.25 253.963L1613.79 252.012C1615.09 251.897 1618.38 251.858 1621.69 253.756ZM1601.88 293.897C1594.82 298.479 1590.09 296.799 1590.09 296.799C1582.54 303.194 1579.08 310.882 1577.93 319.3L1582.88 322.095C1587.44 312.034 1591.65 304.885 1601.88 293.897ZM1539.74 273.065L1532.54 276.548L1535.58 285.353L1534.37 294.735L1541.05 298.5L1546.45 278.433L1539.74 273.065Z" fill="white" fill-opacity="0.5"/>
</g>
<path d="M142 74.2605L148.589 86.375H135.411L138.194 81.2653L142 74.2605ZM170 41.3125V105.688C170 107.395 169.263 109.032 167.95 110.24C166.637 111.447 164.857 112.125 163 112.125H93.0001C91.1435 112.125 89.3631 111.447 88.0503 110.24C86.7376 109.032 86.0001 107.395 86.0001 105.688V41.3125C86.0001 39.6052 86.7376 37.9678 88.0503 36.7605C89.3631 35.5533 91.1435 34.875 93.0001 34.875H163C164.857 34.875 166.637 35.5533 167.95 36.7605C169.263 37.9678 170 39.6052 170 41.3125ZM162.633 97.8096L145.133 65.6221C144.842 65.0865 144.395 64.6359 143.842 64.321C143.289 64.006 142.651 63.8392 142 63.8392C141.349 63.8392 140.711 64.006 140.158 64.321C139.605 64.6359 139.158 65.0865 138.868 65.6221L133.101 76.236C129.392 75.5679 125.875 74.1977 122.772 72.2125C127.608 67.1777 130.6 60.872 131.325 54.1875H138.5C139.428 54.1875 140.319 53.8484 140.975 53.2448C141.631 52.6411 142 51.8224 142 50.9688C142 50.1151 141.631 49.2964 140.975 48.6928C140.319 48.0891 139.428 47.75 138.5 47.75H121V44.5313C121 43.6776 120.631 42.8589 119.975 42.2553C119.319 41.6516 118.428 41.3125 117.5 41.3125C116.572 41.3125 115.682 41.6516 115.025 42.2553C114.369 42.8589 114 43.6776 114 44.5313V47.75H96.5001C95.5718 47.75 94.6816 48.0891 94.0252 48.6928C93.3688 49.2964 93.0001 50.1151 93.0001 50.9688C93.0001 51.8224 93.3688 52.6411 94.0252 53.2448C94.6816 53.8484 95.5718 54.1875 96.5001 54.1875H124.273C123.578 59.2662 121.247 64.0375 117.579 67.8873C116.025 66.219 114.702 64.3796 113.641 62.4114C113.211 61.6743 112.486 61.1199 111.62 60.8659C110.753 60.6119 109.813 60.6781 108.999 61.0505C108.184 61.4229 107.559 62.0723 107.256 62.861C106.954 63.6498 106.997 64.516 107.376 65.2761C108.716 67.7603 110.392 70.0788 112.364 72.1763C107.702 75.1405 102.168 76.7252 96.5001 76.7188C95.5718 76.7188 94.6816 77.0579 94.0252 77.6615C93.3688 78.2652 93.0001 79.0839 93.0001 79.9375C93.0001 80.7912 93.3688 81.6099 94.0252 82.2135C94.6816 82.8172 95.5718 83.1563 96.5001 83.1563C104.098 83.1637 111.49 80.8845 117.548 76.6665C121.214 79.243 125.407 81.1124 129.877 82.1625L121.368 97.8096C120.952 98.5737 120.884 99.4582 121.178 100.269C121.471 101.079 122.103 101.749 122.934 102.131C123.765 102.513 124.726 102.576 125.608 102.306C126.489 102.035 127.217 101.454 127.633 100.69L131.911 92.8125H152.089L156.368 100.69C156.573 101.069 156.858 101.406 157.205 101.683C157.553 101.96 157.956 102.172 158.393 102.306C158.829 102.439 159.29 102.493 159.748 102.463C160.207 102.433 160.655 102.32 161.066 102.131C161.478 101.942 161.845 101.68 162.146 101.36C162.447 101.041 162.677 100.67 162.823 100.269C162.968 99.8673 163.026 99.4436 162.993 99.0217C162.961 98.5998 162.838 98.1879 162.633 97.8096Z" fill="white" fill-opacity="0.39"/>
<path d="M87.1111 278.251C81.7639 278.251 77.1864 276.565 73.3785 273.193C69.5706 269.821 67.6667 265.768 67.6667 261.033C67.6667 256.298 69.5706 252.244 73.3785 248.873C77.1864 245.501 81.7639 243.815 87.1111 243.815C88.9745 243.815 90.697 244.013 92.2785 244.409C93.86 244.805 95.3783 245.396 96.8333 246.182L96.8333 200.769L126 200.769L126 217.988L106.556 217.988L106.556 261.033C106.556 265.768 104.652 269.821 100.844 273.193C97.0359 276.565 92.4583 278.251 87.1111 278.251Z" fill="white" fill-opacity="0.46"/>
<path d="M180.78 461.443L141.037 386.093C140.867 385.771 140.563 385.495 140.166 385.299C139.769 385.104 139.299 385 138.817 385L114.118 385C113.124 385 112.247 385.437 111.898 386.093L72.1543 461.443C71.8794 461.963 71.9746 462.543 72.4186 462.996C72.8627 463.448 73.5817 463.727 74.3641 463.727L100.416 463.727C101.431 463.727 102.34 463.259 102.668 462.566L108.694 449.616L144.23 449.616L150.267 462.566C150.584 463.259 151.493 463.727 152.519 463.727L178.571 463.727C178.954 463.727 179.331 463.66 179.67 463.534C180.008 463.407 180.299 463.223 180.516 462.998C180.734 462.774 180.871 462.515 180.917 462.244C180.963 461.973 180.916 461.698 180.78 461.443ZM116.138 433.628L126.467 411.451L136.797 433.635L116.138 433.635L116.138 433.628Z" fill="white" fill-opacity="0.27"/>
<path d="M185.44 822.863L175.649 804.107C175.511 803.837 175.251 803.643 174.947 803.575C174.643 803.508 174.331 803.584 174.088 803.769C168.608 807.997 159.19 811.186 152.175 811.186C138.621 811.186 129.151 802.259 129.151 789.476C129.151 776.693 138.621 767.767 152.175 767.767C159.511 767.767 167.038 770.062 171.808 773.766C172.042 773.951 172.363 774.019 172.658 773.968C172.952 773.909 173.213 773.723 173.36 773.462L184.217 754.216C184.46 753.786 184.347 753.246 183.948 752.942C175.736 746.614 165.313 743.534 152.079 743.534C123.896 743.534 103.447 762.864 103.447 789.485C103.447 816.113 123.896 835.435 152.079 835.435C164.974 835.435 176.118 831.622 185.188 824.087C185.553 823.783 185.657 823.277 185.44 822.863Z" fill="white" fill-opacity="0.33"/>
<path d="M317.926 622.144C322.674 618.045 325.608 612.535 325.608 606.458C325.608 593.855 313.061 583.61 297.638 583.61H265.981C264.944 583.61 264.108 584.367 264.108 585.307V661.816C264.108 662.756 264.944 663.513 265.981 663.513H301.609C317.04 663.513 329.587 653.26 329.587 640.658C329.587 633.042 324.973 626.297 317.926 622.144ZM296.342 615.059H284.647C284.472 615.059 284.347 614.953 284.28 614.809C284.255 614.763 284.213 614.718 284.213 614.665V599.281C284.213 599.228 284.255 599.183 284.28 599.137C284.347 599.001 284.472 598.887 284.647 598.887H296.342C301.032 598.887 304.852 602.51 304.852 606.965C304.852 611.429 301.032 615.059 296.342 615.059ZM297.053 648.766H284.714C284.681 648.766 284.656 648.736 284.622 648.729C284.438 648.683 284.288 648.554 284.288 648.372V630.458C284.288 630.276 284.438 630.147 284.622 630.101C284.664 630.094 284.681 630.064 284.714 630.064H297.044C297.278 630.064 297.513 630.079 297.738 630.101C302.62 630.458 306.482 634.489 306.482 639.415C306.482 644.326 302.637 648.357 297.763 648.729C297.538 648.744 297.295 648.766 297.053 648.766Z" fill="white" fill-opacity="0.35"/>
<path d="M1590 74.2601L1596.59 86.3747H1583.41L1586.19 81.2649L1590 74.2601ZM1618 41.3122V105.687C1618 107.394 1617.26 109.032 1615.95 110.239C1614.64 111.446 1612.86 112.125 1611 112.125H1541C1539.14 112.125 1537.36 111.446 1536.05 110.239C1534.74 109.032 1534 107.394 1534 105.687V41.3122C1534 39.6048 1534.74 37.9674 1536.05 36.7602C1537.36 35.5529 1539.14 34.8747 1541 34.8747H1611C1612.86 34.8747 1614.64 35.5529 1615.95 36.7602C1617.26 37.9674 1618 39.6048 1618 41.3122ZM1610.63 97.8093L1593.13 65.6218C1592.84 65.0861 1592.39 64.6356 1591.84 64.3206C1591.29 64.0056 1590.65 63.8388 1590 63.8388C1589.35 63.8388 1588.71 64.0056 1588.16 64.3206C1587.6 64.6356 1587.16 65.0861 1586.87 65.6218L1581.1 76.2356C1577.39 75.5675 1573.87 74.1973 1570.77 72.2122C1575.61 67.1773 1578.6 60.8717 1579.32 54.1872H1586.5C1587.43 54.1872 1588.32 53.848 1588.97 53.2444C1589.63 52.6408 1590 51.8221 1590 50.9684C1590 50.1147 1589.63 49.296 1588.97 48.6924C1588.32 48.0888 1587.43 47.7497 1586.5 47.7497H1569V44.5309C1569 43.6772 1568.63 42.8585 1567.97 42.2549C1567.32 41.6513 1566.43 41.3122 1565.5 41.3122C1564.57 41.3122 1563.68 41.6513 1563.02 42.2549C1562.37 42.8585 1562 43.6772 1562 44.5309V47.7497H1544.5C1543.57 47.7497 1542.68 48.0888 1542.02 48.6924C1541.37 49.296 1541 50.1147 1541 50.9684C1541 51.8221 1541.37 52.6408 1542.02 53.2444C1542.68 53.848 1543.57 54.1872 1544.5 54.1872H1572.27C1571.58 59.2658 1569.25 64.0372 1565.58 67.887C1564.02 66.2186 1562.7 64.3793 1561.64 62.4111C1561.21 61.6739 1560.49 61.1196 1559.62 60.8655C1558.75 60.6115 1557.81 60.6777 1557 61.0501C1556.18 61.4225 1555.56 62.0719 1555.26 62.8607C1554.95 63.6494 1555 64.5156 1555.38 65.2758C1556.72 67.76 1558.39 70.0784 1560.36 72.176C1555.7 75.1401 1550.17 76.7249 1544.5 76.7184C1543.57 76.7184 1542.68 77.0575 1542.02 77.6612C1541.37 78.2648 1541 79.0835 1541 79.9372C1541 80.7908 1541.37 81.6095 1542.02 82.2132C1542.68 82.8168 1543.57 83.1559 1544.5 83.1559C1552.1 83.1633 1559.49 80.8841 1565.55 76.6661C1569.21 79.2426 1573.41 81.112 1577.88 82.1621L1569.37 97.8093C1568.95 98.5733 1568.88 99.4578 1569.18 100.268C1569.47 101.079 1570.1 101.748 1570.93 102.13C1571.76 102.512 1572.73 102.575 1573.61 102.305C1574.49 102.035 1575.22 101.454 1575.63 100.69L1579.91 92.8122H1600.09L1604.37 100.69C1604.57 101.068 1604.86 101.406 1605.2 101.683C1605.55 101.96 1605.96 102.171 1606.39 102.305C1606.83 102.439 1607.29 102.492 1607.75 102.462C1608.21 102.432 1608.65 102.32 1609.07 102.13C1609.48 101.941 1609.84 101.679 1610.15 101.36C1610.45 101.04 1610.68 100.669 1610.82 100.268C1610.97 99.8669 1611.03 99.4432 1610.99 99.0213C1610.96 98.5994 1610.84 98.1876 1610.63 97.8093Z" fill="white" fill-opacity="0.39"/>
<path d="M1488.12 391.375H1496.25V398.292H1490.88L1476.57 412.955C1475.33 411.018 1473.71 409.358 1471.82 408.079L1488.12 391.375ZM1462.5 408.667C1466.08 408.667 1469.51 410.124 1472.05 412.718C1474.58 415.313 1476 418.831 1476 422.5C1476 425.567 1475.01 428.547 1473.18 430.971C1471.34 433.394 1468.77 435.123 1465.88 435.884V436.333C1465.88 440.919 1464.1 445.318 1460.93 448.56C1457.77 451.803 1453.48 453.625 1449 453.625C1444.52 453.625 1440.23 451.803 1437.07 448.56C1433.9 445.318 1432.12 440.919 1432.12 436.333C1432.12 431.747 1433.9 427.349 1437.07 424.106C1440.23 420.863 1444.52 419.042 1449 419.042H1449.44C1450.96 412.955 1456.32 408.667 1462.5 408.667ZM1462.5 417.313C1461.16 417.313 1459.87 417.859 1458.92 418.832C1457.97 419.805 1457.44 421.124 1457.44 422.5C1457.44 423.876 1457.97 425.195 1458.92 426.168C1459.87 427.141 1461.16 427.688 1462.5 427.688C1463.84 427.688 1465.13 427.141 1466.08 426.168C1467.03 425.195 1467.56 423.876 1467.56 422.5C1467.56 421.124 1467.03 419.805 1466.08 418.832C1465.13 417.859 1463.84 417.313 1462.5 417.313ZM1445.42 430.247L1443.03 432.668L1452.58 442.455L1454.97 439.999L1445.42 430.247Z" fill="white" fill-opacity="0.6"/>
<path d="M1197.15 860.58C1175.19 860.58 1157.33 874.079 1157.33 890.671C1157.33 907.263 1175.19 920.762 1197.15 920.762C1219.1 920.762 1236.96 907.263 1236.96 890.671C1236.96 874.079 1219.1 860.58 1197.15 860.58ZM1224.52 904.559L1215.86 904.559C1215.59 904.559 1215.33 904.505 1215.1 904.403C1214.87 904.302 1214.67 904.156 1214.54 903.98L1211.45 899.976C1211.25 899.714 1211.19 899.402 1211.28 899.108L1214.13 890.439C1214.19 890.265 1214.3 890.102 1214.45 889.966C1214.61 889.829 1214.8 889.721 1215.02 889.651L1220.4 887.929C1220.66 887.845 1220.95 887.818 1221.23 887.851C1221.51 887.885 1221.78 887.977 1221.99 888.117L1229.96 893.299C1230.16 893.427 1230.31 893.591 1230.4 893.774C1230.49 893.958 1230.52 894.156 1230.48 894.35C1229.82 897.772 1228.24 901.055 1225.83 903.996C1225.69 904.168 1225.5 904.31 1225.27 904.408C1225.04 904.507 1224.78 904.559 1224.52 904.559ZM1173.89 887.941L1179.27 889.662C1179.49 889.733 1179.69 889.84 1179.84 889.977C1179.99 890.114 1180.1 890.276 1180.16 890.451L1183.01 899.119C1183.1 899.414 1183.05 899.726 1182.84 899.987L1179.75 903.98C1179.62 904.156 1179.43 904.302 1179.19 904.403C1178.96 904.505 1178.7 904.559 1178.43 904.559L1169.77 904.559C1169.51 904.559 1169.26 904.509 1169.03 904.412C1168.8 904.316 1168.61 904.176 1168.47 904.008C1166.06 901.066 1164.48 897.783 1163.82 894.361C1163.78 894.168 1163.81 893.97 1163.9 893.786C1163.99 893.602 1164.14 893.439 1164.34 893.311L1172.3 888.129C1172.52 887.989 1172.78 887.898 1173.06 887.865C1173.34 887.831 1173.63 887.858 1173.89 887.941ZM1223.07 875.32L1219.61 882.753C1219.55 882.905 1219.43 883.044 1219.29 883.162C1219.15 883.28 1218.97 883.374 1218.77 883.437L1213.11 885.25C1212.85 885.333 1212.57 885.36 1212.29 885.329C1212.01 885.297 1211.75 885.208 1211.53 885.071L1200.76 878.244C1200.59 878.136 1200.45 878.001 1200.36 877.849C1200.26 877.697 1200.21 877.53 1200.21 877.361L1200.21 872.503C1200.21 872.313 1200.27 872.126 1200.39 871.958C1200.51 871.79 1200.68 871.647 1200.89 871.541L1209.09 867.412C1209.3 867.305 1209.55 867.239 1209.8 867.222C1210.06 867.205 1210.32 867.237 1210.55 867.316C1215.27 868.871 1219.46 871.218 1222.79 874.179C1222.97 874.333 1223.09 874.521 1223.14 874.721C1223.19 874.921 1223.16 875.128 1223.07 875.32ZM1185.2 867.412L1193.4 871.541C1193.61 871.647 1193.78 871.79 1193.9 871.958C1194.02 872.126 1194.08 872.313 1194.08 872.503L1194.08 877.361C1194.08 877.53 1194.03 877.697 1193.94 877.851C1193.84 878.004 1193.71 878.14 1193.54 878.248L1182.77 885.075C1182.55 885.212 1182.29 885.301 1182.01 885.333C1181.73 885.365 1181.45 885.338 1181.19 885.254L1175.52 883.437C1175.32 883.375 1175.14 883.281 1175 883.164C1174.85 883.046 1174.74 882.907 1174.67 882.755L1171.21 875.321C1171.12 875.129 1171.1 874.922 1171.15 874.721C1171.2 874.52 1171.32 874.333 1171.5 874.179C1174.84 871.215 1179.03 868.865 1183.75 867.31C1183.98 867.234 1184.24 867.204 1184.49 867.222C1184.75 867.239 1184.99 867.305 1185.2 867.412ZM1188.51 914.786L1184.74 907.597C1184.65 907.434 1184.62 907.257 1184.63 907.082C1184.65 906.907 1184.72 906.736 1184.84 906.584L1187.74 902.823C1187.88 902.647 1188.07 902.502 1188.3 902.4C1188.53 902.298 1188.8 902.245 1189.06 902.244L1205.23 902.244C1205.49 902.245 1205.76 902.298 1205.99 902.4C1206.22 902.502 1206.42 902.647 1206.55 902.823L1209.45 906.584C1209.57 906.736 1209.64 906.906 1209.66 907.082C1209.68 907.257 1209.64 907.434 1209.56 907.597L1205.81 914.783C1205.71 914.958 1205.57 915.114 1205.38 915.237C1205.19 915.36 1204.96 915.446 1204.72 915.487C1199.74 916.35 1194.57 916.35 1189.6 915.487C1189.35 915.445 1189.13 915.36 1188.94 915.237C1188.75 915.115 1188.61 914.96 1188.51 914.786Z" fill="white" fill-opacity="0.4"/>
</g>
<defs>
<clipPath id="clip0_1_2">
<rect width="1680" height="998" fill="white" transform="translate(1680 998) rotate(-180)"/>
</clipPath>
<clipPath id="clip1_1_2">
<rect width="131.999" height="107.683" fill="white" transform="translate(1232 443.513) rotate(-22.5)"/>
</clipPath>
<clipPath id="clip2_1_2">
<rect width="101" height="100" fill="white" transform="translate(1524 586.399) rotate(-83.75)"/>
</clipPath>
<clipPath id="clip3_1_2">
<rect x="240" y="51.1444" width="91.5165" height="75.9386" rx="37.9693" transform="rotate(-44.5 240 51.1444)" fill="white"/>
</clipPath>
<clipPath id="clip4_1_2">
<rect width="81" height="94" fill="white" transform="translate(366 139)"/>
</clipPath>
<clipPath id="clip5_1_2">
<rect width="120.457" height="113.467" fill="white" transform="translate(1549.74 180) rotate(29.4238)"/>
</clipPath>
</defs>
</svg>
