<svg width="50" height="50" viewBox="0 0 50 50" fill="none" xmlns="http://www.w3.org/2000/svg">
<path d="M25 4.01782C29.6176 4.01782 34.0461 5.85216 37.3112 9.1173C40.5764 12.3824 42.4107 16.8109 42.4107 21.4285C42.4107 28.7857 37.2411 36.8035 27.0357 45.5678C26.4683 46.0553 25.7448 46.323 24.9967 46.3224C24.2486 46.3217 23.5255 46.0527 22.9589 45.5643L22.2839 44.9785C12.5304 36.4428 7.58929 28.6214 7.58929 21.4285C7.58929 16.8109 9.42363 12.3824 12.6888 9.1173C15.9539 5.85216 20.3824 4.01782 25 4.01782ZM25 14.7321C23.224 14.7321 21.5207 15.4376 20.2649 16.6934C19.0091 17.9493 18.3036 19.6525 18.3036 21.4285C18.3036 23.2045 19.0091 24.9078 20.2649 26.1636C21.5207 27.4195 23.224 28.125 25 28.125C26.776 28.125 28.4793 27.4195 29.7351 26.1636C30.9909 24.9078 31.6964 23.2045 31.6964 21.4285C31.6964 19.6525 30.9909 17.9493 29.7351 16.6934C28.4793 15.4376 26.776 14.7321 25 14.7321Z" fill="#FF8080"/>
</svg>
