<svg width="1114" height="901" viewBox="0 0 1114 901" fill="none" xmlns="http://www.w3.org/2000/svg">
<path d="M530.152 227.876H501.166V174.108C501.166 166.978 497.094 160.14 489.846 155.098C482.598 150.056 472.768 147.224 462.517 147.224H385.22V127.061C385.22 118.148 380.13 109.601 371.07 103.299C362.01 96.9964 349.722 93.4559 336.909 93.4559C324.096 93.4559 311.808 96.9964 302.748 103.299C293.688 109.601 288.598 118.148 288.598 127.061V147.224H211.301C201.051 147.224 191.22 150.056 183.972 155.098C176.724 160.14 172.652 166.978 172.652 174.108V225.187H201.639C230.625 225.187 253.814 241.317 253.814 261.48C253.814 281.643 230.625 297.774 201.639 297.774H172.652V348.853C172.652 355.983 176.724 362.821 183.972 367.863C191.22 372.905 201.051 375.737 211.301 375.737H284.733L302.748 355.574C302.748 335.411 307.923 319.281 336.909 319.281C365.896 319.281 389.085 335.411 389.085 355.574V375.737H462.517C472.768 375.737 482.598 372.905 489.846 367.863C497.094 362.821 501.166 355.983 501.166 348.853V295.085H530.152C542.965 295.085 555.253 291.545 564.313 285.243C573.373 278.941 578.463 270.393 578.463 261.48C578.463 252.568 573.373 244.02 564.313 237.718C555.253 231.416 542.965 227.876 530.152 227.876Z" fill="#FFFF"/>
<path d="M139.042 438.333H169.917V387.667C169.917 380.948 174.254 374.504 181.974 369.753C189.694 365.002 200.165 362.333 211.083 362.333H293.417V343.333C293.417 334.935 298.838 326.88 308.489 320.942C318.139 315.003 331.227 311.667 344.875 311.667C358.523 311.667 371.611 315.003 381.262 320.942C390.912 326.88 396.333 334.935 396.333 343.333V362.333H478.667C489.585 362.333 500.056 365.002 507.776 369.753C515.496 374.504 519.833 380.948 519.833 387.667V435.8H488.958C458.083 435.8 433.383 451 433.383 470C433.383 489 458.083 504.2 488.958 504.2H519.833V552.333C519.833 559.052 515.496 565.496 507.776 570.247C500.056 574.998 489.585 577.667 478.667 577.667H400.45V558.667C400.45 539.667 375.75 524.467 344.875 524.467C314 524.467 289.3 539.667 289.3 558.667V577.667H211.083C200.165 577.667 189.694 574.998 181.974 570.247C174.254 565.496 169.917 559.052 169.917 552.333V501.667H139.042C125.394 501.667 112.305 498.33 102.655 492.392C93.0049 486.453 87.5834 478.399 87.5834 470C87.5834 461.602 93.0049 453.547 102.655 447.608C112.305 441.67 125.394 438.333 139.042 438.333Z" fill="#FFFF"/>
<g clip-path="url(#clip0_14_403)">
<path d="M821.803 436.521L820.962 385.517C820.878 380.39 817.568 375.499 811.761 371.92C805.953 368.34 798.124 366.365 789.996 366.429L717.878 366.998C715.365 367.026 712.901 367.444 710.701 368.214C708.502 368.984 706.635 370.082 705.266 371.414C703.897 372.744 703.067 374.267 702.85 375.846C702.632 377.426 703.034 379.014 704.019 380.47C706.319 383.878 707.531 387.538 707.588 391.244C707.851 407.226 686.804 420.405 660.696 420.611C634.587 420.817 613.111 407.974 612.848 391.991C612.782 388.286 613.874 384.607 616.06 381.164C617.002 379.685 617.35 378.082 617.073 376.499C616.796 374.915 615.903 373.401 614.472 372.089C613.042 370.778 611.119 369.711 608.875 368.983C606.63 368.254 604.134 367.888 601.608 367.915L529.49 368.484C521.362 368.548 513.6 370.646 507.912 374.316C502.224 377.987 499.076 382.928 499.161 388.055L499.882 431.811C497.335 431.651 494.775 431.582 492.215 431.605C473.927 431.75 456.463 436.47 443.665 444.728C430.867 452.986 423.785 464.105 423.975 475.639C424.165 487.174 431.612 498.178 444.678 506.232C457.745 514.286 475.36 518.73 493.649 518.586C496.209 518.568 498.765 518.459 501.306 518.26L502.027 562.016C502.112 567.142 505.421 572.033 511.229 575.612C517.036 579.192 524.865 581.167 532.993 581.103L594.71 580.616C594.452 582.223 594.337 583.837 594.368 585.452C594.558 596.986 602.006 607.99 615.072 616.044C628.139 624.098 645.754 628.542 664.042 628.398C682.331 628.254 699.795 623.533 712.593 615.275C725.391 607.017 732.473 595.898 732.283 584.364C732.261 582.749 732.094 581.137 731.782 579.535L793.499 579.048C801.628 578.984 809.389 576.886 815.077 573.216C820.765 569.546 823.913 564.604 823.829 559.477L822.988 508.473" fill="#FFFF"/>
</g>
<path d="M603.566 150.982H527.574C519.936 150.982 512.611 153.2 507.211 157.147C501.81 161.094 498.776 166.448 498.776 172.03V221.556C498.788 223.282 499.381 224.979 500.502 226.498C501.623 228.017 503.238 229.311 505.205 230.266C507.172 231.222 509.43 231.809 511.78 231.976C514.13 232.143 516.501 231.885 518.683 231.225C523.785 229.685 529.253 228.893 534.774 228.897C558.587 228.897 577.972 243.498 577.972 261.428C577.972 279.357 558.587 293.959 534.774 293.959C529.253 293.962 523.785 293.171 518.683 291.631C516.49 290.967 514.106 290.71 511.744 290.882C509.382 291.055 507.115 291.651 505.145 292.618C503.175 293.586 501.562 294.894 500.451 296.427C499.34 297.96 498.764 299.67 498.776 301.404V350.931C498.776 356.513 501.81 361.867 507.211 365.814C512.611 369.761 519.936 371.978 527.574 371.978H592.767C592.499 373.725 592.367 375.482 592.371 377.24C592.371 389.8 599.198 401.845 611.349 410.726C623.501 419.607 639.983 424.596 657.168 424.596C674.353 424.596 690.834 419.607 702.986 410.726C715.138 401.845 721.964 389.8 721.964 377.24C721.969 375.482 721.836 373.725 721.568 371.978H786.761C794.399 371.978 801.724 369.761 807.125 365.814C812.526 361.867 815.56 356.513 815.56 350.931V308.547C817.95 308.743 820.354 308.84 822.759 308.837C839.945 308.837 856.426 303.847 868.578 294.966C880.729 286.085 887.556 274.04 887.556 261.48C887.556 248.921 880.729 236.875 868.578 227.994C856.426 219.113 839.945 214.124 822.759 214.124C820.354 214.121 817.95 214.218 815.56 214.414V172.03C815.56 166.448 812.526 161.094 807.125 157.147C801.724 153.2 794.399 150.982 786.761 150.982H710.769" fill="#FFFF"/>
<defs>
<clipPath id="clip0_14_403">
<rect width="293.672" height="528.521" fill="white" transform="matrix(-0.0164741 -0.999864 0.999969 -0.00788685 398.596 659.288)"/>
</clipPath>
</defs>
</svg>
