<svg width="753" height="627" viewBox="0 0 753 627" fill="none" xmlns="http://www.w3.org/2000/svg">
<g clip-path="url(#clip0_1_75)">
<path d="M404.038 177.119H379.389V119.384C379.389 111.727 375.927 104.385 369.763 98.9709C363.6 93.5571 355.241 90.5157 346.524 90.5157H280.795V68.8648C280.795 59.2945 276.467 50.1161 268.763 43.3489C261.058 36.5817 250.609 32.7799 239.714 32.7799C228.819 32.7799 218.37 36.5817 210.665 43.3489C202.961 50.1161 198.633 59.2945 198.633 68.8648V90.5157H132.904C124.187 90.5157 115.828 93.5571 109.665 98.9709C103.501 104.385 100.039 111.727 100.039 119.384V174.233H124.687C149.336 174.233 169.055 191.553 169.055 213.204C169.055 234.855 149.336 252.176 124.687 252.176H100.039V307.025C100.039 314.681 103.501 322.024 109.665 327.438C115.828 332.851 124.187 335.893 132.904 335.893H195.347V314.242C195.347 292.591 215.065 275.27 239.714 275.27C264.363 275.27 284.081 292.591 284.081 314.242V335.893H346.524C355.241 335.893 363.6 332.851 369.763 327.438C375.927 322.024 379.389 314.681 379.389 307.025V249.289H404.038C414.933 249.289 425.382 245.487 433.086 238.72C440.791 231.953 445.119 222.775 445.119 213.204C445.119 203.634 440.791 194.456 433.086 187.688C425.382 180.921 414.933 177.119 404.038 177.119Z" fill="white"/>
<g clip-path="url(#clip1_1_75)">
<path d="M404.038 177.119H379.389V119.384C379.389 111.727 375.927 104.385 369.763 98.9709C363.6 93.5571 355.241 90.5157 346.524 90.5157H280.795V68.8648C280.795 59.2945 276.467 50.1161 268.763 43.3489C261.058 36.5817 250.609 32.7799 239.714 32.7799C228.819 32.7799 218.37 36.5817 210.665 43.3489C202.961 50.1161 198.633 59.2945 198.633 68.8648V90.5157H132.904C124.187 90.5157 115.828 93.5571 109.665 98.9709C103.501 104.385 100.039 111.727 100.039 119.384V174.233H124.687C149.336 174.233 169.055 191.553 169.055 213.204C169.055 234.855 149.336 252.176 124.687 252.176H100.039V307.025C100.039 314.681 103.501 322.024 109.665 327.438C115.828 332.851 124.187 335.893 132.904 335.893H195.347V314.242C195.347 292.591 215.065 275.27 239.714 275.27C264.363 275.27 284.081 292.591 284.081 314.242V335.893H346.524C355.241 335.893 363.6 332.851 369.763 327.438C375.927 322.024 379.389 314.681 379.389 307.025V249.289H404.038C414.933 249.289 425.382 245.487 433.086 238.72C440.791 231.953 445.119 222.775 445.119 213.204C445.119 203.634 440.791 194.456 433.086 187.688C425.382 180.921 414.933 177.119 404.038 177.119Z" fill="white"/>
<path d="M404.038 177.119H379.389V119.384C379.389 111.727 375.927 104.385 369.763 98.9709C363.6 93.5571 355.241 90.5157 346.524 90.5157H280.795V68.8648C280.795 59.2945 276.467 50.1161 268.763 43.3489C261.058 36.5817 250.609 32.7799 239.714 32.7799C228.819 32.7799 218.37 36.5817 210.665 43.3489C202.961 50.1161 198.633 59.2945 198.633 68.8648V90.5157H132.904C124.187 90.5157 115.828 93.5571 109.665 98.9709C103.501 104.385 100.039 111.727 100.039 119.384V174.233H124.687C149.336 174.233 169.055 191.553 169.055 213.204C169.055 234.855 149.336 252.176 124.687 252.176H100.039V307.025C100.039 314.681 103.501 322.024 109.665 327.438C115.828 332.851 124.187 335.893 132.904 335.893H195.347V314.242C195.347 292.591 215.065 275.27 239.714 275.27C264.363 275.27 284.081 292.591 284.081 314.242V335.893H346.524C355.241 335.893 363.6 332.851 369.763 327.438C375.927 322.024 379.389 314.681 379.389 307.025V249.289H404.038C414.933 249.289 425.382 245.487 433.086 238.72C440.791 231.953 445.119 222.775 445.119 213.204C445.119 203.634 440.791 194.456 433.086 187.688C425.382 180.921 414.933 177.119 404.038 177.119Z" fill="white"/>
</g>
</g>
<g clip-path="url(#clip2_1_75)">
<path d="M678.151 177.119H653.503V119.384C653.503 111.727 650.04 104.385 643.877 98.9709C637.714 93.5571 629.354 90.5157 620.638 90.5157H554.909V68.8648C554.909 59.2945 550.58 50.1161 542.876 43.3489C535.172 36.5817 524.723 32.7799 513.828 32.7799C502.932 32.7799 492.483 36.5817 484.779 43.3489C477.075 50.1161 472.747 59.2945 472.747 68.8648V90.5157H407.017C398.301 90.5157 389.942 93.5571 383.778 98.9709C377.615 104.385 374.153 111.727 374.153 119.384V174.233H398.801C423.45 174.233 443.168 191.553 443.168 213.204C443.168 234.855 423.45 252.176 398.801 252.176H374.153V307.025C374.153 314.681 377.615 322.024 383.778 327.438C389.942 332.851 398.301 335.893 407.017 335.893H469.46V314.242C469.46 292.591 489.179 275.27 513.828 275.27C538.476 275.27 558.195 292.591 558.195 314.242V335.893H620.638C629.354 335.893 637.714 332.851 643.877 327.438C650.04 322.024 653.503 314.681 653.503 307.025V249.289H678.151C689.047 249.289 699.496 245.487 707.2 238.72C714.904 231.953 719.232 222.775 719.232 213.204C719.232 203.634 714.904 194.456 707.2 187.688C699.496 180.921 689.047 177.119 678.151 177.119Z" fill="white"/>
<g clip-path="url(#clip3_1_75)">
<path d="M678.151 177.119H653.503V119.384C653.503 111.727 650.04 104.385 643.877 98.9709C637.714 93.5571 629.354 90.5157 620.638 90.5157H554.909V68.8648C554.909 59.2945 550.58 50.1161 542.876 43.3489C535.172 36.5817 524.723 32.7799 513.828 32.7799C502.932 32.7799 492.483 36.5817 484.779 43.3489C477.075 50.1161 472.747 59.2945 472.747 68.8648V90.5157H407.017C398.301 90.5157 389.942 93.5571 383.778 98.9709C377.615 104.385 374.153 111.727 374.153 119.384V174.233H398.801C423.45 174.233 443.168 191.553 443.168 213.204C443.168 234.855 423.45 252.176 398.801 252.176H374.153V307.025C374.153 314.681 377.615 322.024 383.778 327.438C389.942 332.851 398.301 335.893 407.017 335.893H469.46V314.242C469.46 292.591 489.179 275.27 513.828 275.27C538.476 275.27 558.195 292.591 558.195 314.242V335.893H620.638C629.354 335.893 637.714 332.851 643.877 327.438C650.04 322.024 653.503 314.681 653.503 307.025V249.289H678.151C689.047 249.289 699.496 245.487 707.2 238.72C714.904 231.953 719.232 222.775 719.232 213.204C719.232 203.634 714.904 194.456 707.2 187.688C699.496 180.921 689.047 177.119 678.151 177.119Z" fill="white"/>
<path d="M678.151 177.119H653.503V119.384C653.503 111.727 650.04 104.385 643.877 98.9709C637.714 93.5571 629.354 90.5157 620.638 90.5157H554.909V68.8648C554.909 59.2945 550.58 50.1161 542.876 43.3489C535.172 36.5817 524.723 32.7799 513.828 32.7799C502.932 32.7799 492.483 36.5817 484.779 43.3489C477.075 50.1161 472.747 59.2945 472.747 68.8648V90.5157H407.017C398.301 90.5157 389.942 93.5571 383.778 98.9709C377.615 104.385 374.153 111.727 374.153 119.384V174.233H398.801C423.45 174.233 443.168 191.553 443.168 213.204C443.168 234.855 423.45 252.176 398.801 252.176H374.153V307.025C374.153 314.681 377.615 322.024 383.778 327.438C389.942 332.851 398.301 335.893 407.017 335.893H469.46V314.242C469.46 292.591 489.179 275.27 513.828 275.27C538.476 275.27 558.195 292.591 558.195 314.242V335.893H620.638C629.354 335.893 637.714 332.851 643.877 327.438C650.04 322.024 653.503 314.681 653.503 307.025V249.289H678.151C689.047 249.289 699.496 245.487 707.2 238.72C714.904 231.953 719.232 222.775 719.232 213.204C719.232 203.634 714.904 194.456 707.2 187.688C699.496 180.921 689.047 177.119 678.151 177.119Z" fill="white"/>
</g>
</g>
<g clip-path="url(#clip4_1_75)">
<path d="M468.594 302.528V326.27H397.086C387.603 326.27 378.509 329.605 371.804 335.542C365.099 341.479 361.332 349.53 361.332 357.926V421.238H334.516C322.663 421.238 311.295 425.406 302.914 432.827C294.532 440.248 289.824 450.313 289.824 460.807C289.824 471.302 294.532 481.366 302.914 488.787C311.295 496.208 322.663 500.377 334.516 500.377H361.332V563.688C361.332 572.084 365.099 580.136 371.804 586.072C378.509 592.009 387.603 595.344 397.086 595.344H465.018V571.602C465.018 547.861 486.471 528.867 513.286 528.867C540.101 528.867 561.554 547.861 561.554 571.602V595.344H629.486C638.969 595.344 648.063 592.009 654.768 586.072C661.473 580.136 665.24 572.084 665.24 563.688V503.543H638.425C611.609 503.543 590.157 484.549 590.157 460.807C590.157 437.065 611.609 418.072 638.425 418.072H665.24V357.926C665.24 349.53 661.473 341.479 654.768 335.542C648.063 329.605 638.969 326.27 629.486 326.27L557.978 326.27V302.528C557.978 292.034 553.27 281.969 544.888 274.548C536.507 267.128 525.139 262.959 513.286 262.959C501.433 262.959 490.065 267.128 481.684 274.548C473.302 281.969 468.594 292.034 468.594 302.528Z" fill="white"/>
<g clip-path="url(#clip5_1_75)">
<path d="M468.594 302.528V326.27H397.086C387.603 326.27 378.509 329.605 371.804 335.542C365.099 341.479 361.332 349.53 361.332 357.926V421.238H334.516C322.663 421.238 311.295 425.406 302.914 432.827C294.532 440.248 289.824 450.313 289.824 460.807C289.824 471.302 294.532 481.366 302.914 488.787C311.295 496.208 322.663 500.377 334.516 500.377H361.332V563.688C361.332 572.084 365.099 580.136 371.804 586.072C378.509 592.009 387.603 595.344 397.086 595.344H465.018V571.602C465.018 547.861 486.471 528.867 513.286 528.867C540.101 528.867 561.554 547.861 561.554 571.602V595.344H629.486C638.969 595.344 648.063 592.009 654.768 586.072C661.473 580.136 665.24 572.084 665.24 563.688V503.543H638.425C611.609 503.543 590.157 484.549 590.157 460.807C590.157 437.065 611.609 418.072 638.425 418.072H665.24V357.926C665.24 349.53 661.473 341.479 654.768 335.542C648.063 329.605 638.969 326.27 629.486 326.27L557.978 326.27V302.528C557.978 292.034 553.27 281.969 544.888 274.548C536.507 267.128 525.139 262.959 513.286 262.959C501.433 262.959 490.065 267.128 481.684 274.548C473.302 281.969 468.594 292.034 468.594 302.528Z" fill="white"/>
<g clip-path="url(#clip6_1_75)">
<path d="M468.594 302.528V326.27H397.086C387.603 326.27 378.509 329.605 371.804 335.542C365.099 341.479 361.332 349.53 361.332 357.926V421.238H334.516C322.663 421.238 311.295 425.406 302.914 432.827C294.532 440.248 289.824 450.313 289.824 460.807C289.824 471.302 294.532 481.366 302.914 488.787C311.295 496.208 322.663 500.377 334.516 500.377H361.332V563.688C361.332 572.084 365.099 580.136 371.804 586.072C378.509 592.009 387.603 595.344 397.086 595.344H465.018V571.602C465.018 547.861 486.471 528.867 513.286 528.867C540.101 528.867 561.554 547.861 561.554 571.602V595.344H629.486C638.969 595.344 648.063 592.009 654.768 586.072C661.473 580.136 665.24 572.084 665.24 563.688V503.543H638.425C611.609 503.543 590.157 484.549 590.157 460.807C590.157 437.065 611.609 418.072 638.425 418.072H665.24V357.926C665.24 349.53 661.473 341.479 654.768 335.542C648.063 329.605 638.969 326.27 629.486 326.27L557.978 326.27V302.528C557.978 292.034 553.27 281.969 544.888 274.548C536.507 267.128 525.139 262.959 513.286 262.959C501.433 262.959 490.065 267.128 481.684 274.548C473.302 281.969 468.594 292.034 468.594 302.528Z" fill="white"/>
</g>
</g>
</g>
<g clip-path="url(#clip7_1_75)">
<path d="M195.787 309.572L196.002 332.66L124.99 333.24C115.573 333.317 106.572 336.634 99.967 342.461C93.3621 348.288 89.6942 356.149 89.7703 364.313L90.3443 425.88L63.7145 426.097C51.9434 426.194 40.6922 430.34 32.4361 437.624C24.1799 444.908 19.5951 454.734 19.6902 464.939C19.7854 475.145 24.5527 484.894 32.9434 492.042C41.3341 499.19 52.6608 503.152 64.4319 503.056L91.0617 502.838L91.6357 564.405C91.7118 572.569 95.5256 580.369 102.238 586.087C108.951 591.806 118.012 594.975 127.429 594.899L194.891 594.347L194.676 571.26C194.461 548.172 215.592 529.528 242.222 529.311C268.852 529.093 290.328 547.389 290.543 570.477L290.758 593.564L358.22 593.013C367.637 592.936 376.638 589.619 383.243 583.792C389.848 577.964 393.516 570.104 393.44 561.94L392.895 503.451L366.265 503.669C339.635 503.886 318.159 485.59 317.944 462.503C317.729 439.415 338.86 420.771 365.49 420.554L392.12 420.336L391.574 361.848C391.498 353.683 387.685 345.884 380.972 340.165C374.259 334.447 365.198 331.277 355.781 331.354L284.768 331.934L284.553 308.847C284.458 298.641 279.691 288.892 271.3 281.744C262.909 274.596 251.583 270.634 239.811 270.73C228.04 270.826 216.789 274.973 208.533 282.257C200.277 289.541 195.692 299.367 195.787 309.572Z" fill="white"/>
<g clip-path="url(#clip8_1_75)">
<path d="M195.787 309.572L196.002 332.66L124.99 333.24C115.573 333.317 106.572 336.634 99.967 342.461C93.3621 348.288 89.6942 356.149 89.7703 364.313L90.3443 425.88L63.7145 426.097C51.9434 426.194 40.6922 430.34 32.4361 437.624C24.1799 444.908 19.5951 454.734 19.6902 464.939C19.7854 475.145 24.5527 484.894 32.9434 492.042C41.3341 499.19 52.6608 503.152 64.4319 503.056L91.0617 502.838L91.6357 564.405C91.7118 572.569 95.5256 580.369 102.238 586.087C108.951 591.806 118.012 594.975 127.429 594.899L194.891 594.347L194.676 571.26C194.461 548.172 215.592 529.528 242.222 529.311C268.852 529.093 290.328 547.389 290.543 570.477L290.758 593.564L358.22 593.013C367.637 592.936 376.638 589.619 383.243 583.792C389.848 577.964 393.516 570.104 393.44 561.94L392.895 503.451L366.265 503.669C339.635 503.886 318.159 485.59 317.944 462.503C317.729 439.415 338.86 420.771 365.49 420.554L392.12 420.336L391.574 361.848C391.498 353.683 387.685 345.884 380.972 340.165C374.259 334.447 365.198 331.277 355.781 331.354L284.768 331.934L284.553 308.847C284.458 298.641 279.691 288.892 271.3 281.744C262.909 274.596 251.583 270.634 239.811 270.73C228.04 270.826 216.789 274.973 208.533 282.257C200.277 289.541 195.692 299.367 195.787 309.572Z" fill="white"/>
<g clip-path="url(#clip9_1_75)">
<path d="M195.787 309.572L196.002 332.66L124.99 333.24C115.573 333.317 106.572 336.634 99.967 342.461C93.3621 348.288 89.6942 356.149 89.7703 364.313L90.3443 425.88L63.7145 426.097C51.9434 426.194 40.6922 430.34 32.4361 437.624C24.1799 444.908 19.5951 454.734 19.6902 464.939C19.7854 475.145 24.5527 484.894 32.9434 492.042C41.3341 499.19 52.6608 503.152 64.4319 503.056L91.0617 502.838L91.6357 564.405C91.7118 572.569 95.5256 580.369 102.238 586.087C108.951 591.806 118.012 594.975 127.429 594.899L194.891 594.347L194.676 571.26C194.461 548.172 215.592 529.528 242.222 529.311C268.852 529.093 290.328 547.389 290.543 570.477L290.758 593.564L358.22 593.013C367.637 592.936 376.638 589.619 383.243 583.792C389.848 577.964 393.516 570.104 393.44 561.94L392.895 503.451L366.265 503.669C339.635 503.886 318.159 485.59 317.944 462.503C317.729 439.415 338.86 420.771 365.49 420.554L392.12 420.336L391.574 361.848C391.498 353.683 387.685 345.884 380.972 340.165C374.259 334.447 365.198 331.277 355.781 331.354L284.768 331.934L284.553 308.847C284.458 298.641 279.691 288.892 271.3 281.744C262.909 274.596 251.583 270.634 239.811 270.73C228.04 270.826 216.789 274.973 208.533 282.257C200.277 289.541 195.692 299.367 195.787 309.572Z" fill="white"/>
</g>
</g>
</g>
<g clip-path="url(#clip10_1_75)">
<path d="M421.633 158.373H396.969V100.783C396.969 93.1459 393.505 85.8217 387.337 80.4216C381.17 75.0215 372.806 71.9877 364.084 71.9877H298.314V50.3914C298.314 40.8452 293.983 31.6901 286.274 24.9399C278.566 18.1897 268.11 14.3975 257.208 14.3975C246.306 14.3975 235.85 18.1897 228.141 24.9399C220.432 31.6901 216.102 40.8452 216.102 50.3914V71.9877H150.332C141.61 71.9877 133.245 75.0215 127.078 80.4216C120.911 85.8217 117.447 93.1459 117.447 100.783V155.493H142.11C166.774 155.493 186.505 172.771 186.505 194.367C186.505 215.963 166.774 233.24 142.11 233.24H117.447V287.951C117.447 295.588 120.911 302.912 127.078 308.312C133.245 313.712 141.61 316.746 150.332 316.746H212.813V295.15C212.813 273.553 232.544 256.276 257.208 256.276C281.872 256.276 301.603 273.553 301.603 295.15V316.746H364.084C372.806 316.746 381.17 313.712 387.337 308.312C393.505 302.912 396.969 295.588 396.969 287.951V230.361H421.633C432.535 230.361 442.991 226.569 450.7 219.818C458.409 213.068 462.739 203.913 462.739 194.367C462.739 184.821 458.409 175.665 450.7 168.915C442.991 162.165 432.535 158.373 421.633 158.373Z" fill="#FFE9AF"/>
<g clip-path="url(#clip11_1_75)">
<path d="M421.633 158.373H396.969V100.783C396.969 93.1459 393.505 85.8217 387.337 80.4216C381.17 75.0215 372.806 71.9877 364.084 71.9877H298.314V50.3914C298.314 40.8452 293.983 31.6901 286.274 24.9399C278.566 18.1897 268.11 14.3975 257.208 14.3975C246.306 14.3975 235.85 18.1897 228.141 24.9399C220.432 31.6901 216.102 40.8452 216.102 50.3914V71.9877H150.332C141.61 71.9877 133.245 75.0215 127.078 80.4216C120.911 85.8217 117.447 93.1459 117.447 100.783V155.493H142.11C166.774 155.493 186.505 172.771 186.505 194.367C186.505 215.963 166.774 233.24 142.11 233.24H117.447V287.951C117.447 295.588 120.911 302.912 127.078 308.312C133.245 313.712 141.61 316.746 150.332 316.746H212.813V295.15C212.813 273.553 232.544 256.276 257.208 256.276C281.872 256.276 301.603 273.553 301.603 295.15V316.746H364.084C372.806 316.746 381.17 313.712 387.337 308.312C393.505 302.912 396.969 295.588 396.969 287.951V230.361H421.633C432.535 230.361 442.991 226.569 450.7 219.818C458.409 213.068 462.739 203.913 462.739 194.367C462.739 184.821 458.409 175.665 450.7 168.915C442.991 162.165 432.535 158.373 421.633 158.373Z" fill="#9F82DB"/>
<path d="M424.989 158.373H400.325V100.783C400.325 93.1459 396.86 85.8217 390.693 80.4216C384.526 75.0215 376.162 71.9877 367.44 71.9877H301.67V50.3914C301.67 40.8452 297.339 31.6901 289.63 24.9399C281.921 18.1897 271.466 14.3975 260.564 14.3975C249.661 14.3975 239.206 18.1897 231.497 24.9399C223.788 31.6901 219.457 40.8452 219.457 50.3914V71.9877H153.687C144.966 71.9877 136.601 75.0215 130.434 80.4216C124.267 85.8217 120.802 93.1459 120.802 100.783V155.493H145.466C170.13 155.493 189.861 172.771 189.861 194.367C189.861 215.963 170.13 233.24 145.466 233.24H120.802V287.951C120.802 295.588 124.267 302.912 130.434 308.312C136.601 313.712 144.966 316.746 153.687 316.746H216.169V295.15C216.169 273.553 235.9 256.276 260.564 256.276C285.227 256.276 304.958 273.553 304.958 295.15V316.746H367.44C376.162 316.746 403.889 322.146 410.056 316.746C416.223 311.346 400.325 295.588 400.325 287.951V230.361H424.989C435.891 230.361 446.346 226.569 454.055 219.818C461.764 213.068 466.095 203.913 466.095 194.367C466.095 184.821 461.764 175.666 454.055 168.915C446.346 162.165 435.891 158.373 424.989 158.373Z" fill="#9F82DB"/>
</g>
</g>
<g clip-path="url(#clip12_1_75)">
<path d="M695.451 158.373H670.787V100.783C670.787 93.1459 667.323 85.8217 661.156 80.4216C654.989 75.0215 646.624 71.9877 637.902 71.9877H572.132V50.3914C572.132 40.8452 567.802 31.6901 560.093 24.9399C552.384 18.1897 541.928 14.3975 531.026 14.3975C520.124 14.3975 509.669 18.1897 501.96 24.9399C494.251 31.6901 489.92 40.8452 489.92 50.3914V71.9877H424.15C415.428 71.9877 407.064 75.0215 400.897 80.4216C394.729 85.8217 391.265 93.1459 391.265 100.783V155.493H415.929C440.592 155.493 460.323 172.771 460.323 194.367C460.323 215.963 440.592 233.24 415.929 233.24H391.265V287.951C391.265 295.588 394.729 302.912 400.897 308.312C407.064 313.712 415.428 316.746 424.15 316.746H486.631V295.15C486.631 273.553 506.362 256.276 531.026 256.276C555.69 256.276 575.421 273.553 575.421 295.15V316.746H637.902C646.624 316.746 654.989 313.712 661.156 308.312C667.323 302.912 670.787 295.588 670.787 287.951V230.361H695.451C706.353 230.361 716.809 226.569 724.518 219.818C732.227 213.068 736.558 203.913 736.558 194.367C736.558 184.821 732.227 175.665 724.518 168.915C716.809 162.165 706.353 158.373 695.451 158.373Z" fill="#71C3FF"/>
<g clip-path="url(#clip13_1_75)">
<path d="M695.451 158.373H670.787V100.783C670.787 93.1459 667.323 85.8217 661.156 80.4216C654.989 75.0215 646.624 71.9877 637.902 71.9877H572.132V50.3914C572.132 40.8452 567.802 31.6901 560.093 24.9399C552.384 18.1897 541.928 14.3975 531.026 14.3975C520.124 14.3975 509.669 18.1897 501.96 24.9399C494.251 31.6901 489.92 40.8452 489.92 50.3914V71.9877H424.15C415.428 71.9877 407.064 75.0215 400.897 80.4216C394.729 85.8217 391.265 93.1459 391.265 100.783V155.493H415.929C440.592 155.493 460.323 172.771 460.323 194.367C460.323 215.963 440.592 233.24 415.929 233.24H391.265V287.951C391.265 295.588 394.729 302.912 400.897 308.312C407.064 313.712 415.428 316.746 424.15 316.746H486.631V295.15C486.631 273.553 506.362 256.276 531.026 256.276C555.69 256.276 575.421 273.553 575.421 295.15V316.746H637.902C646.624 316.746 654.989 313.712 661.156 308.312C667.323 302.912 670.787 295.588 670.787 287.951V230.361H695.451C706.353 230.361 716.809 226.569 724.518 219.818C732.227 213.068 736.558 203.913 736.558 194.367C736.558 184.821 732.227 175.665 724.518 168.915C716.809 162.165 706.353 158.373 695.451 158.373Z" fill="#71C3FF"/>
<path d="M695.451 158.373H670.787V100.783C670.787 93.1459 667.323 85.8217 661.156 80.4216C654.989 75.0215 646.624 71.9877 637.902 71.9877H572.132V50.3914C572.132 40.8452 567.802 31.6901 560.093 24.9399C552.384 18.1897 541.928 14.3975 531.026 14.3975C520.124 14.3975 509.669 18.1897 501.96 24.9399C494.251 31.6901 489.92 40.8452 489.92 50.3914V71.9877H424.15C415.428 71.9877 407.064 75.0215 400.897 80.4216C394.729 85.8217 391.265 93.1459 391.265 100.783V160.205H415.929C440.592 160.205 455.021 171.907 455.021 193.503C455.021 215.099 439.418 228.685 414.754 228.685H391.265V287.951C391.265 295.588 394.729 302.912 400.897 308.312C407.064 313.712 415.428 316.746 424.15 316.746H486.631V295.15C486.631 273.553 506.362 256.276 531.026 256.276C555.69 256.276 575.421 273.553 575.421 295.15V316.746H637.902C646.624 316.746 654.989 313.712 661.156 308.312C667.323 302.912 670.787 295.588 670.787 287.951V230.361H695.451C706.353 230.361 716.809 226.568 724.518 219.818C732.227 213.068 736.558 203.913 736.558 194.367C736.558 184.821 732.227 175.665 724.518 168.915C716.809 162.165 706.353 158.373 695.451 158.373Z" fill="#71C3FF"/>
</g>
</g>
<g clip-path="url(#clip14_1_75)">
<path d="M486.173 284.024V307.741H414.81C405.347 307.741 396.271 311.073 389.579 317.003C382.888 322.933 379.129 330.976 379.129 339.363V402.608H352.368C340.538 402.608 329.194 406.772 320.829 414.185C312.465 421.598 307.766 431.652 307.766 442.136C307.766 452.619 312.465 462.673 320.829 470.086C329.194 477.499 340.538 481.663 352.368 481.663H379.129V544.908C379.129 553.295 382.888 561.338 389.579 567.268C396.271 573.198 405.347 576.53 414.81 576.53H482.605V552.813C482.605 529.097 504.013 510.123 530.774 510.123C557.535 510.123 578.944 529.097 578.944 552.813V576.53H646.739C656.202 576.53 665.278 573.198 671.969 567.268C678.661 561.338 682.42 553.295 682.42 544.908V484.826H655.659C628.898 484.826 607.489 465.852 607.489 442.136C607.489 418.419 628.898 399.446 655.659 399.446H682.42V339.363C682.42 330.976 678.661 322.933 671.969 317.003C665.278 311.073 656.202 307.741 646.739 307.741L575.376 307.741V284.024C575.376 273.541 570.677 263.487 562.313 256.074C553.948 248.661 542.604 244.496 530.774 244.496C518.945 244.496 507.601 248.661 499.236 256.074C490.872 263.487 486.173 273.541 486.173 284.024Z" fill="#F7C6CC"/>
<g clip-path="url(#clip15_1_75)">
<path d="M486.173 284.024V307.741H414.81C405.347 307.741 396.271 311.073 389.579 317.003C382.888 322.933 379.129 330.976 379.129 339.363V402.608H352.368C340.538 402.608 329.194 406.772 320.829 414.185C312.465 421.598 307.766 431.652 307.766 442.136C307.766 452.619 312.465 462.673 320.829 470.086C329.194 477.499 340.538 481.663 352.368 481.663H379.129V544.908C379.129 553.295 382.888 561.338 389.579 567.268C396.271 573.198 405.347 576.53 414.81 576.53H482.605V552.813C482.605 529.097 504.013 510.123 530.774 510.123C557.535 510.123 578.944 529.097 578.944 552.813V576.53H646.739C656.202 576.53 665.278 573.198 671.969 567.268C678.661 561.338 682.42 553.295 682.42 544.908V484.826H655.659C628.898 484.826 607.489 465.852 607.489 442.136C607.489 418.419 628.898 399.446 655.659 399.446H682.42V339.363C682.42 330.976 678.661 322.933 671.969 317.003C665.278 311.073 656.202 307.741 646.739 307.741L575.376 307.741V284.024C575.376 273.541 570.677 263.487 562.313 256.074C553.948 248.661 542.604 244.496 530.774 244.496C518.945 244.496 507.601 248.661 499.236 256.074C490.872 263.487 486.173 273.541 486.173 284.024Z" fill="#F7C6CC"/>
<g clip-path="url(#clip16_1_75)">
<path d="M481.083 287.689V311.406H409.721C400.257 311.406 391.182 314.737 384.49 320.668C377.799 326.598 374.039 334.641 374.039 343.028V406.273H347.278C335.449 406.273 324.104 410.437 315.74 417.85C307.376 425.263 302.677 435.317 302.677 445.8C302.677 456.284 307.376 466.338 315.74 473.751C324.104 481.164 335.449 485.328 347.278 485.328H374.039V548.573C374.039 556.959 377.799 565.003 384.49 570.933C391.182 576.863 400.257 580.195 409.721 580.195H477.515V556.478C477.515 532.762 498.924 513.788 525.685 513.788C552.446 513.788 573.855 532.762 573.855 556.478V580.195H641.65C651.113 580.195 660.189 576.863 666.88 570.933C673.572 565.003 677.331 556.959 677.331 548.573V488.49H650.57C623.809 488.49 602.4 469.517 602.4 445.8C602.4 422.084 623.809 403.11 650.57 403.11H677.331V343.028C677.331 334.641 673.572 326.598 666.88 320.668C660.189 314.737 651.113 311.406 641.65 311.406L570.287 311.406V287.689C570.287 277.206 565.588 267.152 557.223 259.739C548.859 252.326 537.514 248.161 525.685 248.161C513.856 248.161 502.511 252.326 494.147 259.739C485.782 267.152 481.083 277.206 481.083 287.689Z" fill="#F7C6CC"/>
</g>
</g>
</g>
<g clip-path="url(#clip17_1_75)">
<path d="M213.236 290.724L213.452 313.812L142.439 314.392C133.022 314.469 124.021 317.786 117.416 323.613C110.811 329.441 107.143 337.301 107.22 345.465L107.793 407.032L81.1637 407.25C69.3926 407.346 58.1414 411.492 49.8853 418.776C41.6291 426.061 37.0443 435.886 37.1395 446.092C37.2346 456.297 42.0019 466.046 50.3926 473.194C58.7833 480.343 70.11 484.304 81.8811 484.208L108.511 483.991L109.085 545.558C109.161 553.722 112.975 561.521 119.687 567.24C126.4 572.958 135.461 576.128 144.878 576.051L212.34 575.5L212.125 552.412C211.91 529.325 233.041 510.681 259.671 510.463C286.301 510.245 307.777 528.541 307.992 551.629L308.208 574.717L375.67 574.165C385.086 574.088 394.087 570.771 400.692 564.944C407.297 559.117 410.965 551.256 410.889 543.092L410.344 484.603L383.714 484.821C357.084 485.039 335.608 466.743 335.393 443.655C335.178 420.568 356.309 401.923 382.939 401.706L409.569 401.488L409.024 343C408.948 334.836 405.134 327.036 398.421 321.318C391.709 315.599 382.647 312.43 373.23 312.507L302.218 313.087L302.002 289.999C301.907 279.794 297.14 270.045 288.749 262.896C280.359 255.748 269.032 251.786 257.261 251.882C245.49 251.979 234.238 256.125 225.982 263.409C217.726 270.693 213.141 280.519 213.236 290.724Z" fill="#7DB578"/>
<g clip-path="url(#clip18_1_75)">
<path d="M213.236 290.724L213.452 313.812L142.439 314.392C133.022 314.469 124.021 317.786 117.416 323.613C110.811 329.441 107.143 337.301 107.22 345.465L107.793 407.032L81.1637 407.25C69.3926 407.346 58.1414 411.492 49.8853 418.776C41.6291 426.061 37.0443 435.886 37.1395 446.092C37.2346 456.297 42.0019 466.046 50.3926 473.194C58.7833 480.343 70.11 484.304 81.8811 484.208L108.511 483.991L109.085 545.558C109.161 553.722 112.975 561.521 119.687 567.24C126.4 572.958 135.461 576.128 144.878 576.051L212.34 575.5L212.125 552.412C211.91 529.325 233.041 510.681 259.671 510.463C286.301 510.245 307.777 528.541 307.992 551.629L308.208 574.717L375.67 574.165C385.086 574.088 394.087 570.771 400.692 564.944C407.297 559.117 410.965 551.256 410.889 543.092L410.344 484.603L383.714 484.821C357.084 485.039 335.608 466.743 335.393 443.655C335.178 420.568 356.309 401.923 382.939 401.706L409.569 401.488L409.024 343C408.948 334.836 405.134 327.036 398.421 321.318C391.709 315.599 382.647 312.43 373.23 312.507L302.218 313.087L302.002 289.999C301.907 279.794 297.14 270.045 288.749 262.896C280.359 255.748 269.032 251.786 257.261 251.882C245.49 251.979 234.238 256.125 225.982 263.409C217.726 270.693 213.141 280.519 213.236 290.724Z" fill="#7DB578"/>
<g clip-path="url(#clip19_1_75)">
<path d="M216.102 289.999L216.102 313.087L142.439 314.392C133.022 314.469 124.021 317.786 117.416 323.613C110.811 329.441 107.143 337.301 107.22 345.465L107.793 407.032L81.1637 407.25C69.3926 407.346 58.1414 411.492 49.8853 418.776C41.6291 426.061 37.0443 435.886 37.1395 446.092C37.2346 456.297 42.0019 466.046 50.3926 473.194C58.7833 480.343 70.11 484.304 81.8811 484.208L108.511 483.991L109.085 545.558C109.161 553.722 112.975 561.521 119.687 567.24C126.4 572.958 135.461 576.128 144.878 576.051L212.34 575.5L212.125 552.412C211.91 529.325 233.041 510.681 259.671 510.463C286.301 510.245 307.777 528.541 307.992 551.629L308.208 574.717L375.67 574.165C385.086 574.088 394.087 570.771 400.692 564.944C407.297 559.117 410.965 551.256 410.889 543.092L410.344 484.603L383.714 484.821C357.084 485.039 335.608 466.743 335.393 443.655C335.178 420.568 356.309 401.923 382.939 401.706L409.569 401.488L409.024 343C408.948 334.836 405.134 327.036 398.421 321.318C391.709 315.599 382.647 312.43 373.23 312.507L302.218 313.087L302.002 289.999C301.907 279.794 297.14 270.045 288.749 262.896C280.359 255.748 269.032 251.786 257.261 251.882C245.49 251.979 234.238 256.125 225.982 263.409C217.726 270.693 216.006 279.794 216.102 289.999Z" fill="#86B681"/>
</g>
</g>
</g>
<defs>
<clipPath id="clip0_1_75">
<rect width="394.377" height="346.415" fill="white" transform="translate(67.1741 18.346)"/>
</clipPath>
<clipPath id="clip1_1_75">
<rect width="394.377" height="346.415" fill="white" transform="translate(67.1741 18.346)"/>
</clipPath>
<clipPath id="clip2_1_75">
<rect width="394.377" height="346.415" fill="white" transform="translate(341.288 18.346)"/>
</clipPath>
<clipPath id="clip3_1_75">
<rect width="394.377" height="346.415" fill="white" transform="translate(341.288 18.346)"/>
</clipPath>
<clipPath id="clip4_1_75">
<rect width="379.869" height="429.047" fill="white" transform="matrix(0 -1 1 0 271.947 627)"/>
</clipPath>
<clipPath id="clip5_1_75">
<rect width="379.869" height="429.047" fill="white" transform="matrix(0 -1 1 0 271.947 627)"/>
</clipPath>
<clipPath id="clip6_1_75">
<rect width="379.869" height="429.047" fill="white" transform="matrix(0 -1 1 0 271.947 627)"/>
</clipPath>
<clipPath id="clip7_1_75">
<rect width="369.417" height="426.091" fill="white" transform="matrix(-0.0093219 -0.999956 0.999967 -0.00816919 3.44367 626.697)"/>
</clipPath>
<clipPath id="clip8_1_75">
<rect width="369.417" height="426.091" fill="white" transform="matrix(-0.0093219 -0.999956 0.999967 -0.00816919 3.44367 626.697)"/>
</clipPath>
<clipPath id="clip9_1_75">
<rect width="369.417" height="426.091" fill="white" transform="matrix(-0.0093219 -0.999956 0.999967 -0.00816919 3.44367 626.697)"/>
</clipPath>
<clipPath id="clip10_1_75">
<rect width="394.62" height="345.541" fill="white" transform="translate(84.5615)"/>
</clipPath>
<clipPath id="clip11_1_75">
<rect width="394.62" height="345.541" fill="white" transform="translate(84.5615)"/>
</clipPath>
<clipPath id="clip12_1_75">
<rect width="394.62" height="345.541" fill="white" transform="translate(358.38)"/>
</clipPath>
<clipPath id="clip13_1_75">
<rect width="394.62" height="345.541" fill="white" transform="translate(358.38)"/>
</clipPath>
<clipPath id="clip14_1_75">
<rect width="379.467" height="428.176" fill="white" transform="matrix(0 -1 1 0 289.925 608.152)"/>
</clipPath>
<clipPath id="clip15_1_75">
<rect width="379.467" height="428.176" fill="white" transform="matrix(0 -1 1 0 289.925 608.152)"/>
</clipPath>
<clipPath id="clip16_1_75">
<rect width="379.467" height="428.176" fill="white" transform="matrix(0 -1 1 0 289.925 608.152)"/>
</clipPath>
<clipPath id="clip17_1_75">
<rect width="369.417" height="426.091" fill="white" transform="matrix(-0.0093219 -0.999956 0.999967 -0.00816919 20.8929 607.849)"/>
</clipPath>
<clipPath id="clip18_1_75">
<rect width="369.417" height="426.091" fill="white" transform="matrix(-0.0093219 -0.999956 0.999967 -0.00816919 20.8929 607.849)"/>
</clipPath>
<clipPath id="clip19_1_75">
<rect width="369.417" height="426.091" fill="white" transform="matrix(-0.0093219 -0.999956 0.999967 -0.00816919 20.8929 607.849)"/>
</clipPath>
</defs>
</svg>
