<svg width="701" height="598" viewBox="0 0 701 598" fill="none" xmlns="http://www.w3.org/2000/svg">
<g clip-path="url(#clip0_29_156)">
<path d="M468.594 284.182V307.924H397.086C387.603 307.924 378.509 311.259 371.804 317.196C365.099 323.133 361.332 331.184 361.332 339.58V402.892H334.516C322.663 402.892 311.295 407.061 302.914 414.481C294.532 421.902 289.824 431.967 289.824 442.461C289.824 452.956 294.532 463.021 302.914 470.441C311.295 477.862 322.663 482.031 334.516 482.031H361.332V545.343C361.332 553.738 365.099 561.79 371.804 567.727C378.509 573.663 387.603 576.998 397.086 576.998H465.018V553.256C465.018 529.515 486.471 510.521 513.286 510.521C540.101 510.521 561.554 529.515 561.554 553.256V576.998H629.486C638.969 576.998 648.063 573.663 654.768 567.727C661.473 561.79 665.24 553.738 665.24 545.343V485.197H638.425C611.609 485.197 590.157 466.203 590.157 442.461C590.157 418.719 611.609 399.726 638.425 399.726H665.24V339.58C665.24 331.184 661.473 323.133 654.768 317.196C648.063 311.259 638.969 307.924 629.486 307.924L557.978 307.924V284.182C557.978 273.688 553.27 263.623 544.888 256.202C536.507 248.782 525.139 244.613 513.286 244.613C501.433 244.613 490.065 248.782 481.684 256.202C473.302 263.623 468.594 273.688 468.594 284.182Z" fill="white"/>
<g clip-path="url(#clip1_29_156)">
<path d="M468.594 284.182V307.924H397.086C387.603 307.924 378.509 311.259 371.804 317.196C365.099 323.133 361.332 331.184 361.332 339.58V402.892H334.516C322.663 402.892 311.295 407.061 302.914 414.481C294.532 421.902 289.824 431.967 289.824 442.461C289.824 452.956 294.532 463.021 302.914 470.441C311.295 477.862 322.663 482.031 334.516 482.031H361.332V545.343C361.332 553.738 365.099 561.79 371.804 567.727C378.509 573.663 387.603 576.998 397.086 576.998H465.018V553.256C465.018 529.515 486.471 510.521 513.286 510.521C540.101 510.521 561.554 529.515 561.554 553.256V576.998H629.486C638.969 576.998 648.063 573.663 654.768 567.727C661.473 561.79 665.24 553.738 665.24 545.343V485.197H638.425C611.609 485.197 590.157 466.203 590.157 442.461C590.157 418.719 611.609 399.726 638.425 399.726H665.24V339.58C665.24 331.184 661.473 323.133 654.768 317.196C648.063 311.259 638.969 307.924 629.486 307.924L557.978 307.924V284.182C557.978 273.688 553.27 263.623 544.888 256.202C536.507 248.782 525.139 244.613 513.286 244.613C501.433 244.613 490.065 248.782 481.684 256.202C473.302 263.623 468.594 273.688 468.594 284.182Z" fill="white"/>
<g clip-path="url(#clip2_29_156)">
<path d="M468.594 284.182V307.924H397.086C387.603 307.924 378.509 311.259 371.804 317.196C365.099 323.133 361.332 331.184 361.332 339.58V402.892H334.516C322.663 402.892 311.295 407.061 302.914 414.481C294.532 421.902 289.824 431.967 289.824 442.461C289.824 452.956 294.532 463.021 302.914 470.441C311.295 477.862 322.663 482.031 334.516 482.031H361.332V545.343C361.332 553.738 365.099 561.79 371.804 567.727C378.509 573.663 387.603 576.998 397.086 576.998H465.018V553.256C465.018 529.515 486.471 510.521 513.286 510.521C540.101 510.521 561.554 529.515 561.554 553.256V576.998H629.486C638.969 576.998 648.063 573.663 654.768 567.727C661.473 561.79 665.24 553.738 665.24 545.343V485.197H638.425C611.609 485.197 590.157 466.203 590.157 442.461C590.157 418.719 611.609 399.726 638.425 399.726H665.24V339.58C665.24 331.184 661.473 323.133 654.768 317.196C648.063 311.259 638.969 307.924 629.486 307.924L557.978 307.924V284.182C557.978 273.688 553.27 263.623 544.888 256.202C536.507 248.782 525.139 244.613 513.286 244.613C501.433 244.613 490.065 248.782 481.684 256.202C473.302 263.623 468.594 273.688 468.594 284.182Z" fill="white"/>
</g>
</g>
</g>
<g clip-path="url(#clip3_29_156)">
<path d="M195.787 291.226L196.002 314.314L124.99 314.894C115.573 314.971 106.572 318.288 99.967 324.115C93.3621 329.943 89.6942 337.803 89.7703 345.967L90.3443 407.534L63.7145 407.752C51.9434 407.848 40.6922 411.994 32.4361 419.278C24.1799 426.562 19.5951 436.388 19.6902 446.593C19.7854 456.799 24.5527 466.548 32.9434 473.696C41.3341 480.844 52.6608 484.806 64.4319 484.71L91.0617 484.492L91.6357 546.059C91.7118 554.224 95.5256 562.023 102.238 567.741C108.951 573.46 118.012 576.63 127.429 576.553L194.891 576.001L194.676 552.914C194.461 529.826 215.592 511.182 242.222 510.965C268.852 510.747 290.328 529.043 290.543 552.131L290.758 575.218L358.22 574.667C367.637 574.59 376.638 571.273 383.243 565.446C389.848 559.618 393.516 551.758 393.44 543.594L392.895 485.105L366.265 485.323C339.635 485.54 318.159 467.244 317.944 444.157C317.729 421.069 338.86 402.425 365.49 402.208L392.12 401.99L391.574 343.502C391.498 335.337 387.685 327.538 380.972 321.819C374.259 316.101 365.198 312.931 355.781 313.008L284.768 313.588L284.553 290.501C284.458 280.296 279.691 270.546 271.3 263.398C262.909 256.25 251.583 252.288 239.811 252.384C228.04 252.48 216.789 256.627 208.533 263.911C200.277 271.195 195.692 281.021 195.787 291.226Z" fill="white"/>
<g clip-path="url(#clip4_29_156)">
<path d="M195.787 291.226L196.002 314.314L124.99 314.894C115.573 314.971 106.572 318.288 99.967 324.115C93.3621 329.943 89.6942 337.803 89.7703 345.967L90.3443 407.534L63.7145 407.752C51.9434 407.848 40.6922 411.994 32.4361 419.278C24.1799 426.562 19.5951 436.388 19.6902 446.593C19.7854 456.799 24.5527 466.548 32.9434 473.696C41.3341 480.844 52.6608 484.806 64.4319 484.71L91.0617 484.492L91.6357 546.059C91.7118 554.224 95.5256 562.023 102.238 567.741C108.951 573.46 118.012 576.63 127.429 576.553L194.891 576.001L194.676 552.914C194.461 529.826 215.592 511.182 242.222 510.965C268.852 510.747 290.328 529.043 290.543 552.131L290.758 575.218L358.22 574.667C367.637 574.59 376.638 571.273 383.243 565.446C389.848 559.618 393.516 551.758 393.44 543.594L392.895 485.105L366.265 485.323C339.635 485.54 318.159 467.244 317.944 444.157C317.729 421.069 338.86 402.425 365.49 402.208L392.12 401.99L391.574 343.502C391.498 335.337 387.685 327.538 380.972 321.819C374.259 316.101 365.198 312.931 355.781 313.008L284.768 313.588L284.553 290.501C284.458 280.296 279.691 270.546 271.3 263.398C262.909 256.25 251.583 252.288 239.811 252.384C228.04 252.48 216.789 256.627 208.533 263.911C200.277 271.195 195.692 281.021 195.787 291.226Z" fill="white"/>
<g clip-path="url(#clip5_29_156)">
<path d="M195.787 291.226L196.002 314.314L124.99 314.894C115.573 314.971 106.572 318.288 99.967 324.115C93.3621 329.943 89.6942 337.803 89.7703 345.967L90.3443 407.534L63.7145 407.752C51.9434 407.848 40.6922 411.994 32.4361 419.278C24.1799 426.562 19.5951 436.388 19.6902 446.593C19.7854 456.799 24.5527 466.548 32.9434 473.696C41.3341 480.844 52.6608 484.806 64.4319 484.71L91.0617 484.492L91.6357 546.059C91.7118 554.224 95.5256 562.023 102.238 567.741C108.951 573.46 118.012 576.63 127.429 576.553L194.891 576.001L194.676 552.914C194.461 529.826 215.592 511.182 242.222 510.965C268.852 510.747 290.328 529.043 290.543 552.131L290.758 575.218L358.22 574.667C367.637 574.59 376.638 571.273 383.243 565.446C389.848 559.618 393.516 551.758 393.44 543.594L392.895 485.105L366.265 485.323C339.635 485.54 318.159 467.244 317.944 444.157C317.729 421.069 338.86 402.425 365.49 402.208L392.12 401.99L391.574 343.502C391.498 335.337 387.685 327.538 380.972 321.819C374.259 316.101 365.198 312.931 355.781 313.008L284.768 313.588L284.553 290.501C284.458 280.296 279.691 270.546 271.3 263.398C262.909 256.25 251.583 252.288 239.811 252.384C228.04 252.48 216.789 256.627 208.533 263.911C200.277 271.195 195.692 281.021 195.787 291.226Z" fill="white"/>
</g>
</g>
</g>
<defs>
<clipPath id="clip0_29_156">
<rect width="379.869" height="429.047" fill="white" transform="matrix(0 -1 1 0 271.947 608.654)"/>
</clipPath>
<clipPath id="clip1_29_156">
<rect width="379.869" height="429.047" fill="white" transform="matrix(0 -1 1 0 271.947 608.654)"/>
</clipPath>
<clipPath id="clip2_29_156">
<rect width="379.869" height="429.047" fill="white" transform="matrix(0 -1 1 0 271.947 608.654)"/>
</clipPath>
<clipPath id="clip3_29_156">
<rect width="369.417" height="426.091" fill="white" transform="matrix(-0.0093219 -0.999956 0.999967 -0.00816919 3.44367 608.351)"/>
</clipPath>
<clipPath id="clip4_29_156">
<rect width="369.417" height="426.091" fill="white" transform="matrix(-0.0093219 -0.999956 0.999967 -0.00816919 3.44367 608.351)"/>
</clipPath>
<clipPath id="clip5_29_156">
<rect width="369.417" height="426.091" fill="white" transform="matrix(-0.0093219 -0.999956 0.999967 -0.00816919 3.44367 608.351)"/>
</clipPath>
</defs>
</svg>
