<svg width="1160" height="956" viewBox="0 0 1160 956" fill="none" xmlns="http://www.w3.org/2000/svg">
<path d="M555.152 255.66H526.166V200.262C526.166 192.916 522.094 185.871 514.846 180.677C507.598 175.482 497.768 172.564 487.517 172.564H410.22V151.79C410.22 142.607 405.13 133.801 396.07 127.308C387.01 120.815 374.722 117.167 361.909 117.167C349.096 117.167 336.808 120.815 327.748 127.308C318.688 133.801 313.598 142.607 313.598 151.79V172.564H236.301C226.051 172.564 216.22 175.482 208.972 180.677C201.724 185.871 197.652 192.916 197.652 200.262V252.89H226.639C255.625 252.89 278.814 269.509 278.814 290.283C278.814 311.057 255.625 327.676 226.639 327.676H197.652V380.303C197.652 387.649 201.724 394.695 208.972 399.889C216.22 405.084 226.051 408.002 236.301 408.002H309.733L327.748 387.228C327.748 366.454 332.923 349.835 361.909 349.835C390.896 349.835 414.085 366.454 414.085 387.228V408.002H487.517C497.768 408.002 507.598 405.084 514.846 399.889C522.094 394.695 526.166 387.649 526.166 380.303V324.906H555.152C567.965 324.906 580.253 321.258 589.313 314.765C598.373 308.272 603.463 299.466 603.463 290.283C603.463 281.1 598.373 272.294 589.313 265.801C580.253 259.307 567.965 255.66 555.152 255.66Z" fill="white"/>
<path d="M188.042 503.083H218.917V451.417C218.917 444.565 223.254 437.995 230.974 433.15C238.694 428.305 249.165 425.583 260.083 425.583H342.417V406.208C342.417 397.644 347.838 389.431 357.489 383.375C367.139 377.319 380.227 373.917 393.875 373.917C407.523 373.917 420.611 377.319 430.262 383.375C439.912 389.431 445.333 397.644 445.333 406.208V425.583H527.667C538.585 425.583 549.056 428.305 556.776 433.15C564.496 437.995 568.833 444.565 568.833 451.417V500.5H537.958C507.083 500.5 482.383 516 482.383 535.375C482.383 554.75 507.083 570.25 537.958 570.25H568.833V619.333C568.833 626.185 564.496 632.756 556.776 637.6C549.056 642.445 538.585 645.167 527.667 645.167H449.45V625.792C449.45 606.417 424.75 590.917 393.875 590.917C363 590.917 338.3 606.417 338.3 625.792V645.167H260.083C249.165 645.167 238.694 642.445 230.974 637.6C223.254 632.756 218.917 626.185 218.917 619.333V567.667H188.042C174.394 567.667 161.305 564.265 151.655 558.209C142.005 552.153 136.583 543.939 136.583 535.375C136.583 526.811 142.005 518.597 151.655 512.541C161.305 506.486 174.394 503.083 188.042 503.083Z" fill="#F9F9F9"/>
<g clip-path="url(#clip0_14_403)">
<path d="M862.415 494.136L861.529 440.342C861.44 434.935 857.957 429.776 851.846 426.001C845.735 422.225 837.497 420.142 828.944 420.209L753.057 420.808C750.413 420.837 747.819 421.278 745.505 422.09C743.191 422.902 741.227 424.061 739.786 425.464C738.346 426.868 737.473 428.474 737.244 430.14C737.015 431.805 737.438 433.48 738.475 435.017C740.894 438.611 742.171 442.472 742.23 446.38C742.508 463.237 720.361 477.136 692.889 477.353C665.416 477.569 642.817 464.023 642.539 447.166C642.47 443.258 643.619 439.378 645.919 435.747C646.911 434.186 647.277 432.496 646.985 430.826C646.693 429.156 645.753 427.559 644.248 426.176C642.743 424.793 640.719 423.667 638.358 422.899C635.996 422.131 633.369 421.744 630.711 421.773L554.825 422.371C546.272 422.439 538.104 424.651 532.12 428.522C526.135 432.393 522.822 437.605 522.911 443.012L523.672 489.162C520.992 488.994 518.299 488.921 515.605 488.945C496.361 489.097 477.984 494.076 464.518 502.785C451.052 511.495 443.599 523.222 443.8 535.387C444 547.553 451.837 559.16 465.587 567.655C479.336 576.149 497.872 580.837 517.116 580.685C519.81 580.666 522.5 580.552 525.174 580.341L525.935 626.491C526.024 631.898 529.507 637.056 535.618 640.832C541.729 644.607 549.967 646.69 558.52 646.623L623.462 646.111C623.19 647.805 623.069 649.508 623.102 651.211C623.303 663.376 631.14 674.983 644.889 683.478C658.639 691.973 677.175 696.66 696.419 696.508C715.663 696.356 734.04 691.378 747.506 682.669C760.972 673.959 768.424 662.232 768.224 650.066C768.201 648.363 768.024 646.663 767.697 644.973L832.639 644.461C841.192 644.394 849.359 642.181 855.344 638.31C861.329 634.439 864.641 629.227 864.552 623.82L863.666 570.025" fill="white"/>
</g>
<path d="M647.566 139.793H571.574C563.936 139.793 556.611 142.608 551.211 147.619C545.81 152.629 542.776 159.425 542.776 166.512V229.385C542.788 231.576 543.381 233.73 544.502 235.659C545.623 237.587 547.238 239.23 549.205 240.442C551.172 241.655 553.43 242.4 555.78 242.612C558.13 242.824 560.501 242.497 562.683 241.659C567.785 239.704 573.253 238.699 578.774 238.703C602.587 238.703 621.972 257.24 621.972 280.001C621.972 302.762 602.587 321.299 578.774 321.299C573.253 321.303 567.785 320.298 562.683 318.343C560.49 317.5 558.106 317.174 555.744 317.393C553.382 317.612 551.115 318.369 549.145 319.597C547.175 320.825 545.562 322.486 544.451 324.432C543.34 326.378 542.764 328.548 542.776 330.75V393.624C542.776 400.71 545.81 407.506 551.211 412.517C556.611 417.528 563.936 420.343 571.574 420.343H636.767C636.499 422.561 636.367 424.791 636.371 427.023C636.371 442.967 643.198 458.258 655.349 469.532C667.501 480.807 683.983 487.14 701.168 487.14C718.353 487.14 734.834 480.807 746.986 469.532C759.138 458.258 765.964 442.967 765.964 427.023C765.969 424.791 765.836 422.561 765.568 420.343H830.761C838.399 420.343 845.724 417.528 851.125 412.517C856.526 407.506 859.56 400.71 859.56 393.624V339.818C861.95 340.067 864.354 340.189 866.759 340.186C883.945 340.186 900.426 333.852 912.578 322.577C924.729 311.303 931.556 296.012 931.556 280.068C931.556 264.124 924.729 248.832 912.578 237.558C900.426 226.284 883.945 219.95 866.759 219.95C864.354 219.946 861.95 220.069 859.56 220.317V166.512C859.56 159.425 856.526 152.629 851.125 147.619C845.724 142.608 838.399 139.793 830.761 139.793H754.769" fill="white"/>
<path d="M555.152 217.145H526.166V154.09C526.166 145.728 522.094 137.709 514.846 131.797C507.598 125.884 497.768 122.562 487.517 122.562H410.22V98.9167C410.22 88.4647 405.13 78.4408 396.07 71.0501C387.01 63.6594 374.722 59.5073 361.909 59.5073C349.096 59.5073 336.808 63.6594 327.748 71.0501C318.688 78.4408 313.598 88.4647 313.598 98.9167V122.562H236.301C226.051 122.562 216.22 125.884 208.972 131.797C201.724 137.709 197.652 145.728 197.652 154.09V213.992H226.639C255.625 213.992 278.814 232.909 278.814 256.554C278.814 280.2 255.625 299.116 226.639 299.116H197.652V359.019C197.652 367.38 201.724 375.399 208.972 381.312C216.22 387.224 226.051 390.546 236.301 390.546H309.733L327.748 366.9C327.748 343.255 332.923 324.338 361.909 324.338C390.896 324.338 414.085 343.255 414.085 366.9V390.546H487.517C497.768 390.546 507.598 387.224 514.846 381.312C522.094 375.399 526.166 367.38 526.166 359.019V295.964H555.152C567.965 295.964 580.253 291.812 589.313 284.421C598.373 277.03 603.463 267.006 603.463 256.554C603.463 246.102 598.373 236.078 589.313 228.688C580.253 221.297 567.965 217.145 555.152 217.145Z" fill="#83C68E"/>
<path d="M166.438 458.5H196.625V400.5C196.625 392.809 200.866 385.432 208.414 379.994C215.962 374.555 226.2 371.5 236.875 371.5H317.375V349.75C317.375 340.136 322.676 330.916 332.111 324.117C341.547 317.319 354.344 313.5 367.688 313.5C381.031 313.5 393.828 317.319 403.264 324.117C412.699 330.916 418 340.136 418 349.75V371.5H498.5C509.175 371.5 519.413 374.555 526.961 379.994C534.509 385.432 538.75 392.809 538.75 400.5V455.6H508.563C478.375 455.6 454.225 473 454.225 494.75C454.225 516.5 478.375 533.9 508.563 533.9H538.75V589C538.75 596.691 534.509 604.068 526.961 609.506C519.413 614.945 509.175 618 498.5 618H422.025V596.25C422.025 574.5 397.875 557.1 367.688 557.1C337.5 557.1 313.35 574.5 313.35 596.25V618H236.875C226.2 618 215.962 614.945 208.414 609.506C200.866 604.068 196.625 596.691 196.625 589V531H166.438C153.094 531 140.297 527.181 130.861 520.383C121.426 513.584 116.125 504.364 116.125 494.75C116.125 485.136 121.426 475.916 130.861 469.117C140.297 462.319 153.094 458.5 166.438 458.5Z" fill="#4B7DDE"/>
<g clip-path="url(#clip1_14_403)">
<path d="M840.006 448.888L839.026 389.386C838.928 383.406 835.604 377.696 829.787 373.512C823.97 369.329 816.135 367.015 808.007 367.079L735.889 367.648C733.376 367.677 730.912 368.161 728.715 369.056C726.518 369.951 724.654 371.231 723.289 372.782C721.923 374.333 721.097 376.107 720.884 377.95C720.671 379.792 721.077 381.645 722.067 383.346C724.376 387.323 725.598 391.595 725.665 395.918C725.972 414.564 704.96 429.91 678.852 430.115C652.744 430.321 631.232 415.311 630.925 396.665C630.849 392.343 631.931 388.053 634.108 384.039C635.046 382.315 635.389 380.445 635.108 378.598C634.826 376.751 633.929 374.983 632.495 373.451C631.061 371.919 629.135 370.672 626.888 369.819C624.642 368.967 622.145 368.536 619.619 368.565L547.501 369.133C539.373 369.198 531.616 371.635 525.938 375.909C520.261 380.183 517.126 385.944 517.225 391.924L518.066 442.97C515.518 442.78 512.958 442.697 510.399 442.72C492.11 442.864 474.658 448.348 461.883 457.965C449.108 467.581 442.055 480.543 442.277 493.999C442.499 507.455 449.977 520.303 463.065 529.715C476.154 539.128 493.782 544.335 512.07 544.191C514.63 544.174 517.187 544.05 519.727 543.82L520.568 594.866C520.667 600.846 523.99 606.556 529.808 610.74C535.625 614.923 543.459 617.237 551.588 617.173L613.305 616.686C613.05 618.56 612.941 620.444 612.976 622.327C613.198 635.783 620.675 648.63 633.764 658.043C646.853 667.456 664.481 672.663 682.769 672.519C701.058 672.374 718.51 666.891 731.285 657.274C744.06 647.657 751.113 634.695 750.891 621.239C750.864 619.356 750.693 617.475 750.377 615.605L812.094 615.119C820.222 615.054 827.978 612.617 833.656 608.343C839.334 604.069 842.468 598.308 842.37 592.328L841.389 532.826" fill="#FF7474"/>
</g>
<path d="M621.566 126.876H545.574C537.936 126.876 530.611 129.468 525.211 134.081C519.81 138.695 516.776 144.952 516.776 151.476V209.365C516.788 211.382 517.381 213.366 518.502 215.141C519.623 216.916 521.238 218.429 523.205 219.545C525.172 220.662 527.43 221.348 529.78 221.543C532.13 221.739 534.501 221.437 536.683 220.666C541.785 218.865 547.253 217.941 552.774 217.944C576.587 217.944 595.972 235.011 595.972 255.968C595.972 276.924 576.587 293.991 552.774 293.991C547.253 293.995 541.785 293.07 536.683 291.27C534.49 290.494 532.106 290.194 529.744 290.395C527.382 290.597 525.115 291.294 523.145 292.424C521.175 293.555 519.562 295.084 518.451 296.876C517.34 298.667 516.764 300.666 516.776 302.694V360.582C516.776 367.107 519.81 373.364 525.211 377.977C530.611 382.591 537.936 385.183 545.574 385.183H610.767C610.499 387.225 610.367 389.278 610.371 391.333C610.371 406.013 617.198 420.092 629.349 430.472C641.501 440.853 657.983 446.684 675.168 446.684C692.353 446.684 708.834 440.853 720.986 430.472C733.138 420.092 739.964 406.013 739.964 391.333C739.969 389.278 739.836 387.225 739.568 385.183H804.761C812.399 385.183 819.724 382.591 825.125 377.977C830.526 373.364 833.56 367.107 833.56 360.582V311.042C835.95 311.271 838.354 311.384 840.759 311.381C857.945 311.381 874.426 305.549 886.578 295.169C898.729 284.788 905.556 270.709 905.556 256.029C905.556 241.349 898.729 227.27 886.578 216.89C874.426 206.509 857.945 200.678 840.759 200.678C838.354 200.674 835.95 200.787 833.56 201.016V151.476C833.56 144.952 830.526 138.695 825.125 134.081C819.724 129.468 812.399 126.876 804.761 126.876H728.769" fill="#FFDE75"/>
<defs>
<clipPath id="clip0_14_403">
<rect width="309.74" height="556.139" fill="white" transform="matrix(-0.0164741 -0.999864 0.999969 -0.00788685 417.103 729.084)"/>
</clipPath>
<clipPath id="clip1_14_403">
<rect width="342.596" height="528.521" fill="white" transform="matrix(-0.0164741 -0.999864 0.999969 -0.00788685 417.402 708.206)"/>
</clipPath>
</defs>
</svg>
