<svg width="1002" height="822" viewBox="0 0 1002 822" fill="none" xmlns="http://www.w3.org/2000/svg">
<g clip-path="url(#clip0_326_1141)">
<path d="M665.895 594.466L665.315 559.147C665.256 555.597 662.863 552.211 658.661 549.733C654.459 547.256 648.793 545.891 642.909 545.937L590.703 546.35C588.884 546.37 587.099 546.66 585.507 547.194C583.914 547.728 582.562 548.489 581.57 549.411C580.579 550.333 579.977 551.387 579.819 552.481C579.661 553.575 579.95 554.675 580.663 555.683C582.326 558.042 583.201 560.577 583.24 563.143C583.422 574.21 568.178 583.342 549.279 583.491C530.379 583.641 514.84 574.753 514.658 563.685C514.612 561.119 515.405 558.571 516.989 556.187C517.672 555.162 517.925 554.052 517.725 552.956C517.525 551.859 516.879 550.811 515.845 549.903C514.81 548.996 513.419 548.257 511.794 547.753C510.17 547.25 508.363 546.996 506.535 547.016L454.328 547.429C448.444 547.476 442.824 548.93 438.705 551.474C434.586 554.017 432.304 557.44 432.362 560.989L432.86 591.29C431.016 591.18 429.164 591.133 427.311 591.149C414.071 591.254 401.427 594.528 392.158 600.249C382.889 605.971 377.756 613.673 377.887 621.66C378.018 629.648 383.403 637.266 392.857 642.84C402.312 648.414 415.061 651.486 428.3 651.381C430.153 651.369 432.004 651.293 433.843 651.154L434.341 681.454C434.399 685.003 436.793 688.389 440.995 690.867C445.197 693.344 450.863 694.709 456.747 694.663L501.424 694.309C501.236 695.422 501.152 696.54 501.174 697.658C501.305 705.645 506.69 713.264 516.144 718.838C525.599 724.411 538.348 727.484 551.587 727.379C564.826 727.274 577.471 724.001 586.739 718.279C596.008 712.557 601.142 704.856 601.01 696.868C600.995 695.75 600.875 694.634 600.65 693.524L645.327 693.171C651.211 693.124 656.831 691.67 660.951 689.127C665.07 686.584 667.352 683.161 667.293 679.611L666.713 644.291" fill="white"/>
</g>
<path d="M523.434 210.325H471.344C466.108 210.325 461.087 211.88 457.385 214.649C453.683 217.417 451.603 221.171 451.603 225.086V259.819C451.612 261.029 452.018 262.219 452.787 263.284C453.555 264.35 454.662 265.257 456.01 265.927C457.358 266.597 458.906 267.009 460.517 267.126C462.128 267.243 463.753 267.062 465.249 266.599C468.746 265.519 472.494 264.964 476.279 264.966C492.602 264.966 505.889 275.206 505.889 287.78C505.889 300.355 492.602 310.595 476.279 310.595C472.494 310.597 468.746 310.042 465.249 308.962C463.745 308.496 462.112 308.316 460.493 308.437C458.874 308.558 457.32 308.976 455.969 309.654C454.619 310.333 453.513 311.25 452.752 312.325C451.99 313.4 451.595 314.599 451.603 315.816V350.549C451.603 354.464 453.683 358.218 457.385 360.986C461.087 363.754 466.108 365.309 471.344 365.309H516.031C515.847 366.535 515.757 367.767 515.76 369C515.76 377.808 520.439 386.255 528.769 392.483C537.098 398.711 548.396 402.21 560.176 402.21C571.956 402.21 583.253 398.711 591.583 392.483C599.912 386.255 604.592 377.808 604.592 369C604.595 367.767 604.504 366.535 604.32 365.309H649.008C654.243 365.309 659.264 363.754 662.966 360.986C666.668 358.218 668.748 354.464 668.748 350.549V320.825C670.387 320.963 672.034 321.03 673.683 321.028C685.463 321.028 696.76 317.529 705.09 311.301C713.42 305.073 718.099 296.625 718.099 287.817C718.099 279.009 713.42 270.562 705.09 264.334C696.76 258.105 685.463 254.606 673.683 254.606C672.034 254.604 670.387 254.672 668.748 254.809V225.086C668.748 221.171 666.668 217.417 662.966 214.649C659.264 211.88 654.243 210.325 649.008 210.325H596.918" fill="white"/>
<path d="M517.492 362.277H464.907C459.622 362.277 454.553 364.135 450.816 367.441C447.079 370.748 444.979 375.232 444.979 379.908V421.395C444.988 422.84 445.398 424.262 446.174 425.534C446.95 426.807 448.067 427.891 449.428 428.691C450.789 429.491 452.352 429.983 453.978 430.123C455.604 430.263 457.245 430.047 458.754 429.494C462.285 428.203 466.069 427.541 469.889 427.543C486.367 427.543 499.781 439.774 499.781 454.793C499.781 469.812 486.367 482.044 469.889 482.044C466.069 482.046 462.285 481.383 458.754 480.093C457.237 479.537 455.587 479.322 453.953 479.466C452.319 479.611 450.75 480.11 449.387 480.921C448.023 481.731 446.908 482.827 446.139 484.111C445.37 485.395 444.971 486.827 444.979 488.28V529.767C444.979 534.443 447.079 538.927 450.816 542.234C454.553 545.54 459.622 547.397 464.907 547.397H510.019C509.833 548.861 509.742 550.332 509.745 551.805C509.745 562.326 514.469 572.416 522.877 579.855C531.286 587.294 542.691 591.474 554.582 591.474C566.474 591.474 577.879 587.294 586.287 579.855C594.696 572.416 599.42 562.326 599.42 551.805C599.423 550.332 599.331 548.861 599.146 547.397H644.258C649.543 547.397 654.612 545.54 658.349 542.234C662.086 538.927 664.186 534.443 664.186 529.767V494.264C665.84 494.428 667.503 494.509 669.168 494.506C681.059 494.506 692.464 490.327 700.873 482.887C709.281 475.448 714.005 465.358 714.005 454.837C714.005 444.317 709.281 434.227 700.873 426.788C692.464 419.348 681.059 415.169 669.168 415.169C667.503 415.166 665.84 415.247 664.186 415.411V379.908C664.186 375.232 662.086 370.748 658.349 367.441C654.612 364.135 649.543 362.277 644.258 362.277H591.673" fill="white"/>
<path d="M494.729 346.584H442.968C437.766 346.584 432.776 348.312 429.098 351.387C425.419 354.463 423.353 358.635 423.353 362.984V401.577C423.361 402.921 423.765 404.244 424.528 405.427C425.292 406.611 426.392 407.619 427.732 408.364C429.071 409.108 430.609 409.565 432.21 409.696C433.811 409.826 435.426 409.625 436.912 409.111C440.387 407.91 444.112 407.294 447.872 407.296C464.092 407.296 477.295 418.674 477.295 432.645C477.295 446.616 464.092 457.994 447.872 457.994C444.112 457.997 440.387 457.38 436.912 456.18C435.418 455.663 433.795 455.462 432.186 455.597C430.577 455.731 429.033 456.196 427.691 456.95C426.349 457.703 425.251 458.723 424.494 459.917C423.737 461.112 423.345 462.444 423.353 463.796V502.388C423.353 506.738 425.419 510.909 429.098 513.985C432.776 517.061 437.766 518.788 442.968 518.788H487.373C487.19 520.15 487.1 521.519 487.103 522.889C487.103 532.675 491.753 542.061 500.03 548.982C508.307 555.902 519.533 559.79 531.238 559.79C542.943 559.79 554.169 555.902 562.446 548.982C570.723 542.061 575.373 532.675 575.373 522.889C575.376 521.519 575.286 520.15 575.103 518.788H619.508C624.71 518.788 629.699 517.061 633.378 513.985C637.056 510.909 639.123 506.738 639.123 502.388V469.362C640.751 469.514 642.389 469.59 644.027 469.587C655.732 469.587 666.958 465.699 675.235 458.779C683.512 451.859 688.162 442.473 688.162 432.686C688.162 422.899 683.512 413.513 675.235 406.593C666.958 399.673 655.732 395.785 644.027 395.785C642.389 395.783 640.751 395.858 639.123 396.011V362.984C639.123 358.635 637.056 354.463 633.378 351.387C629.699 348.312 624.71 346.584 619.508 346.584H567.747" fill="#FFDE75"/>
<path d="M494.729 183.584H442.968C437.766 183.584 432.776 185.312 429.098 188.387C425.419 191.463 423.353 195.635 423.353 199.984V238.577C423.361 239.921 423.765 241.244 424.528 242.427C425.292 243.611 426.392 244.619 427.732 245.364C429.071 246.108 430.609 246.565 432.21 246.696C433.811 246.826 435.426 246.625 436.912 246.111C440.387 244.91 444.112 244.294 447.872 244.296C464.092 244.296 477.295 255.674 477.295 269.645C477.295 283.616 464.092 294.994 447.872 294.994C444.112 294.997 440.387 294.38 436.912 293.18C435.418 292.663 433.795 292.462 432.186 292.597C430.577 292.731 429.033 293.196 427.691 293.95C426.349 294.703 425.251 295.723 424.494 296.917C423.737 298.112 423.345 299.444 423.353 300.796V339.388C423.353 343.738 425.419 347.909 429.098 350.985C432.776 354.061 437.766 355.788 442.968 355.788H487.373C487.19 357.15 487.1 358.519 487.103 359.889C487.103 369.675 491.753 379.061 500.03 385.982C508.307 392.902 519.533 396.79 531.238 396.79C542.943 396.79 554.169 392.902 562.446 385.982C570.723 379.061 575.373 369.675 575.373 359.889C575.376 358.519 575.286 357.15 575.103 355.788H619.508C624.71 355.788 629.699 354.061 633.378 350.985C637.056 347.909 639.123 343.738 639.123 339.388V306.362C640.751 306.514 642.389 306.59 644.027 306.587C655.732 306.587 666.958 302.699 675.235 295.779C683.512 288.859 688.162 279.473 688.162 269.686C688.162 259.899 683.512 250.513 675.235 243.593C666.958 236.673 655.732 232.785 644.027 232.785C642.389 232.783 640.751 232.858 639.123 233.011V199.984C639.123 195.635 637.056 191.463 633.378 188.387C629.699 185.312 624.71 183.584 619.508 183.584H567.747" fill="#B7DFE1"/>
<g clip-path="url(#clip1_326_1141)">
<path d="M643.553 560.465L642.89 520.636C642.824 516.633 640.569 512.811 636.622 510.011C632.676 507.211 627.36 505.662 621.845 505.705L572.915 506.087C571.21 506.107 569.538 506.431 568.048 507.03C566.557 507.629 565.292 508.486 564.366 509.524C563.439 510.562 562.879 511.75 562.734 512.983C562.59 514.216 562.865 515.457 563.536 516.595C565.103 519.258 565.932 522.117 565.977 525.011C566.185 537.492 551.928 547.764 534.214 547.903C516.501 548.041 501.906 537.994 501.698 525.513C501.647 522.619 502.381 519.748 503.858 517.061C504.495 515.907 504.728 514.656 504.537 513.419C504.346 512.182 503.737 510.999 502.764 509.974C501.791 508.949 500.485 508.113 498.961 507.543C497.436 506.972 495.742 506.684 494.028 506.703L445.098 507.085C439.583 507.128 434.321 508.76 430.468 511.621C426.616 514.482 424.489 518.338 424.555 522.341L425.124 556.51C423.396 556.383 421.659 556.327 419.922 556.343C407.514 556.44 395.673 560.111 387.005 566.548C378.337 572.986 373.551 581.662 373.701 590.669C373.851 599.676 378.924 608.276 387.804 614.576C396.684 620.877 408.644 624.362 421.052 624.265C422.789 624.254 424.524 624.171 426.247 624.017L426.816 658.185C426.883 662.188 429.137 666.01 433.084 668.811C437.031 671.611 442.346 673.16 447.861 673.117L489.734 672.79C489.562 674.044 489.487 675.305 489.511 676.565C489.661 685.572 494.734 694.172 503.614 700.472C512.494 706.773 524.454 710.258 536.862 710.161C549.271 710.064 561.112 706.393 569.78 699.956C578.448 693.518 583.233 684.842 583.083 675.835C583.065 674.574 582.949 673.315 582.735 672.063L624.608 671.736C630.123 671.693 635.385 670.062 639.238 667.201C643.09 664.34 645.217 660.483 645.151 656.48L644.488 616.652" fill="#FF7474"/>
</g>
<defs>
<clipPath id="clip0_326_1141">
<rect width="203.361" height="382.597" fill="white" transform="matrix(-0.0164238 -0.999865 0.999969 -0.007911 359.414 748.841)"/>
</clipPath>
<clipPath id="clip1_326_1141">
<rect width="229.326" height="358.589" fill="white" transform="matrix(-0.0166384 -0.999862 0.999969 -0.00780892 356.816 734.054)"/>
</clipPath>
</defs>
</svg>
